<svg width="78" height="73" viewBox="0 0 78 73" fill="none" xmlns="http://www.w3.org/2000/svg">
<path d="M63.8229 60.2539H7.11335C3.21457 60.2539 0.0246582 57.064 0.0246582 53.1652V7.08869C0.0246582 3.18991 3.21457 0 7.11335 0H63.8229C67.7217 0 70.9116 3.18991 70.9116 7.08869V53.1652C70.9116 57.064 67.7217 60.2539 63.8229 60.2539Z" fill="#8CBCD6"/>
<path d="M54.9618 21.2661C57.898 21.2661 60.2783 18.8858 60.2783 15.9496C60.2783 13.0133 57.898 10.6331 54.9618 10.6331C52.0256 10.6331 49.6453 13.0133 49.6453 15.9496C49.6453 18.8858 52.0256 21.2661 54.9618 21.2661Z" fill="#B3DDF5"/>
<path d="M28.3794 15.9495L8.8855 44.3042H47.8733L28.3794 15.9495Z" fill="#9AC9E3"/>
<path d="M47.8734 26.5825L33.696 44.3042H62.0508L47.8734 26.5825Z" fill="#B3DDF5"/>
<path d="M60.2784 72.659C70.0658 72.659 78.0001 64.7247 78.0001 54.9373C78.0001 45.1499 70.0658 37.2156 60.2784 37.2156C50.4909 37.2156 42.5566 45.1499 42.5566 54.9373C42.5566 64.7247 50.4909 72.659 60.2784 72.659Z" fill="#43A047"/>
<path d="M56.7341 44.3042H63.8228V65.5703H56.7341V44.3042Z" fill="white"/>
<path d="M49.6453 51.3931H70.9113V58.4818H49.6453V51.3931Z" fill="white"/>
</svg>
