<svg width="31" height="32" viewBox="0 0 31 32" fill="none" xmlns="http://www.w3.org/2000/svg">
<path d="M3.52273 32C2.55398 32 1.72496 31.6521 1.03568 30.9564C0.346402 30.2607 0.00117424 29.4234 0 28.4444V3.55555C0 2.57778 0.345227 1.74104 1.03568 1.04533C1.72614 0.349629 2.55515 0.00118518 3.52273 0H14.0909C14.59 0 15.0086 0.170667 15.3468 0.512C15.6849 0.853333 15.8534 1.27526 15.8523 1.77778C15.8511 2.28029 15.682 2.70281 15.345 3.04533C15.008 3.38785 14.59 3.55792 14.0909 3.55555H3.52273V28.4444H14.0909C14.59 28.4444 15.0086 28.6151 15.3468 28.9564C15.6849 29.2978 15.8534 29.7197 15.8523 30.2222C15.8511 30.7247 15.682 31.1472 15.345 31.4898C15.008 31.8323 14.59 32.0023 14.0909 32H3.52273ZM24.9673 17.7778H12.3295C11.8305 17.7778 11.4125 17.6071 11.0755 17.2658C10.7384 16.9244 10.5694 16.5025 10.5682 16C10.567 15.4975 10.7361 15.0755 11.0755 14.7342C11.4148 14.3929 11.8328 14.2222 12.3295 14.2222H24.9673L21.6648 10.8889C21.3419 10.563 21.1804 10.163 21.1804 9.68888C21.1804 9.21481 21.3419 8.79999 21.6648 8.44444C21.9877 8.08888 22.3987 7.9034 22.8977 7.88799C23.3968 7.87259 23.8224 8.04325 24.1747 8.39999L30.4716 14.7555C30.8239 15.1111 31 15.5259 31 16C31 16.4741 30.8239 16.8889 30.4716 17.2444L24.1747 23.6C23.8224 23.9555 23.4044 24.1262 22.9206 24.112C22.4368 24.0978 22.0182 23.9123 21.6648 23.5555C21.3419 23.2 21.188 22.7781 21.2033 22.2898C21.2186 21.8015 21.3871 21.3938 21.7088 21.0667L24.9673 17.7778Z" fill="#FFED00"/>
</svg>
