<svg width="40" height="36" viewBox="0 0 40 36" fill="none" xmlns="http://www.w3.org/2000/svg">
<path d="M2 11.7391C2 2 11.7391 2 20.087 2C28.4348 2 38.1739 2 38.1739 11.7391C38.1739 22.8696 28.4348 10.3478 28.4348 10.3478H11.7391C11.7391 10.3478 2 22.8696 2 11.7391ZM13.1304 14.5217C13.1304 14.5217 6.17391 21.4783 6.17391 34H34C34 21.4783 27.0435 14.5217 27.0435 14.5217H13.1304Z" stroke="#FFED00" stroke-width="2.5" stroke-linecap="round" stroke-linejoin="round"/>
<path d="M20.0872 29.826C23.1608 29.826 25.6524 27.3344 25.6524 24.2608C25.6524 21.1872 23.1608 18.6956 20.0872 18.6956C17.0136 18.6956 14.522 21.1872 14.522 24.2608C14.522 27.3344 17.0136 29.826 20.0872 29.826Z" stroke="#FFED00" stroke-width="2.5" stroke-linecap="round" stroke-linejoin="round"/>
</svg>
