<svg width="23" height="26" viewBox="0 0 23 26" fill="none" xmlns="http://www.w3.org/2000/svg">
<path d="M20.4444 17.4722H17.8889V14.9166H20.4444M20.4444 22.5833H17.8889V20.0277H20.4444M12.7778 7.24997H10.2222V4.69442H12.7778M12.7778 12.3611H10.2222V9.80553H12.7778M12.7778 17.4722H10.2222V14.9166H12.7778M12.7778 22.5833H10.2222V20.0277H12.7778M5.11111 12.3611H2.55556V9.80553H5.11111M5.11111 17.4722H2.55556V14.9166H5.11111M5.11111 22.5833H2.55556V20.0277H5.11111M15.3333 12.3611V4.69442L11.5 0.861084L7.66667 4.69442V7.24997H0V25.1389H23V12.3611H15.3333Z" fill="#1D1D1B"/>
</svg>
