<svg width="24" height="24" viewBox="0 0 24 24" fill="none" xmlns="http://www.w3.org/2000/svg">
<path d="M20.4998 2.66665H18.1665V1.49998C18.1665 1.19056 18.0436 0.893814 17.8248 0.675022C17.606 0.456229 17.3093 0.333313 16.9998 0.333313C16.6904 0.333313 16.3937 0.456229 16.1749 0.675022C15.9561 0.893814 15.8332 1.19056 15.8332 1.49998V2.66665H8.83317V1.49998C8.83317 1.19056 8.71025 0.893814 8.49146 0.675022C8.27267 0.456229 7.97592 0.333313 7.6665 0.333313C7.35709 0.333313 7.06034 0.456229 6.84155 0.675022C6.62275 0.893814 6.49984 1.19056 6.49984 1.49998V2.66665H4.1665C3.23825 2.66665 2.34801 3.0354 1.69163 3.69177C1.03525 4.34815 0.666504 5.23839 0.666504 6.16665V20.1666C0.666504 21.0949 1.03525 21.9851 1.69163 22.6415C2.34801 23.2979 3.23825 23.6666 4.1665 23.6666H20.4998C21.4281 23.6666 22.3183 23.2979 22.9747 22.6415C23.6311 21.9851 23.9998 21.0949 23.9998 20.1666V6.16665C23.9998 5.23839 23.6311 4.34815 22.9747 3.69177C22.3183 3.0354 21.4281 2.66665 20.4998 2.66665ZM21.6665 20.1666C21.6665 20.4761 21.5436 20.7728 21.3248 20.9916C21.106 21.2104 20.8093 21.3333 20.4998 21.3333H4.1665C3.85708 21.3333 3.56034 21.2104 3.34155 20.9916C3.12275 20.7728 2.99984 20.4761 2.99984 20.1666V12H21.6665V20.1666ZM21.6665 9.66665H2.99984V6.16665C2.99984 5.85723 3.12275 5.56048 3.34155 5.34169C3.56034 5.1229 3.85708 4.99998 4.1665 4.99998H6.49984V6.16665C6.49984 6.47607 6.62275 6.77281 6.84155 6.9916C7.06034 7.2104 7.35709 7.33331 7.6665 7.33331C7.97592 7.33331 8.27267 7.2104 8.49146 6.9916C8.71025 6.77281 8.83317 6.47607 8.83317 6.16665V4.99998H15.8332V6.16665C15.8332 6.47607 15.9561 6.77281 16.1749 6.9916C16.3937 7.2104 16.6904 7.33331 16.9998 7.33331C17.3093 7.33331 17.606 7.2104 17.8248 6.9916C18.0436 6.77281 18.1665 6.47607 18.1665 6.16665V4.99998H20.4998C20.8093 4.99998 21.106 5.1229 21.3248 5.34169C21.5436 5.56048 21.6665 5.85723 21.6665 6.16665V9.66665Z" fill="#1D1D1B"/>
</svg>
