<svg width="52" height="39" viewBox="0 0 52 39" fill="none" xmlns="http://www.w3.org/2000/svg">
<g clip-path="url(#clip0_780_510)">
<path d="M52 19.5C52 26.6717 49.0967 33.1717 44.4167 37.9167L42.0767 35.5767C46.1933 31.4167 48.75 25.7833 48.75 19.5C48.75 13.2383 46.1933 7.58333 42.0767 3.42333L44.4167 1.08333C49.0967 5.82833 52 12.3283 52 19.5ZM43.3333 14.3V10.8333H36.4C34.4933 10.8333 32.9333 12.3933 32.9333 14.3V17.7667C32.9333 18.6861 33.2986 19.5678 33.9487 20.218C34.5988 20.8681 35.4806 21.2333 36.4 21.2333H39.8667V24.7H32.9333V28.1667H39.8667C41.7733 28.1667 43.3333 26.6067 43.3333 24.7V21.2333C43.3333 20.3139 42.9681 19.4322 42.318 18.782C41.6678 18.1319 40.7861 17.7667 39.8667 17.7667H36.4V14.3H43.3333ZM18.2433 6.5C20.5183 5.135 23.1617 4.33333 26 4.33333C28.8383 4.33333 31.4817 5.135 33.7567 6.5H40.495C36.9417 2.51333 31.7633 0 26 0C20.2367 0 15.0583 2.51333 11.505 6.5H18.2433ZM28.6 19.5C29.9867 19.5 31.2 20.7133 31.2 22.1V24.7C31.2 25.1552 31.1103 25.606 30.9361 26.0266C30.7619 26.4472 30.5065 26.8294 30.1846 27.1513C29.8627 27.4732 29.4806 27.7286 29.06 27.9028C28.6394 28.077 28.1886 28.1667 27.7333 28.1667H20.8V10.8333H27.7333C28.6528 10.8333 29.5345 11.1986 30.1846 11.8487C30.8348 12.4988 31.2 13.3806 31.2 14.3V16.9C31.2 18.2867 29.9867 19.5 28.6 19.5ZM27.7333 21.2333H24.2667V24.7H27.7333V21.2333ZM27.7333 14.3H24.2667V17.7667H27.7333V14.3ZM9.92333 3.42333L7.58333 1.08333C2.90333 5.82833 0 12.3283 0 19.5C0 26.6717 2.90333 33.1717 7.58333 37.9167L9.92333 35.5767C5.80667 31.4167 3.25 25.7833 3.25 19.5C3.25 13.2383 5.80667 7.58333 9.92333 3.42333ZM15.6 28.1667V21.2333H12.1333V28.1667H8.66667V14.3C8.66667 13.3806 9.0319 12.4988 9.68203 11.8487C10.3322 11.1986 11.2139 10.8333 12.1333 10.8333H15.6C17.5067 10.8333 19.0667 12.3933 19.0667 14.3V28.1667H15.6ZM15.6 17.7667V14.3H12.1333V17.7667H15.6ZM33.7567 32.5C31.4817 33.865 28.8383 34.6667 26 34.6667C23.2654 34.6643 20.5833 33.9151 18.2433 32.5H11.505C15.0583 36.4867 20.2367 39 26 39C31.7633 39 36.9417 36.4867 40.495 32.5H33.7567Z" fill="#FFF034"/>
</g>
<defs>
<clipPath id="clip0_780_510">
<rect width="52" height="39" fill="white"/>
</clipPath>
</defs>
</svg>
