<svg width="48" height="41" viewBox="0 0 48 41" fill="none" xmlns="http://www.w3.org/2000/svg">
<g clip-path="url(#clip0_780_517)">
<path d="M30 33.7647C30 37.7441 26.76 41 22.8 41C18.84 41 15.6 37.7441 15.6 33.7647H20.4C20.4 35.0912 21.48 36.1765 22.8 36.1765C24.12 36.1765 25.2 35.0912 25.2 33.7647C25.2 32.4382 24.12 31.3529 22.8 31.3529H0V26.5294H22.8C26.76 26.5294 30 29.7853 30 33.7647ZM40.8 8.44118C40.8 3.78647 37.032 0 32.4 0C27.768 0 24 3.78647 24 8.44118H28.8C28.8 6.43941 30.408 4.82353 32.4 4.82353C34.392 4.82353 36 6.43941 36 8.44118C36 10.4429 34.392 12.0588 32.4 12.0588H0V16.8824H32.4C37.032 16.8824 40.8 13.0959 40.8 8.44118ZM39.6 19.2941H0V24.1176H39.6C41.592 24.1176 43.2 25.7335 43.2 27.7353C43.2 29.7371 41.592 31.3529 39.6 31.3529V36.1765C44.232 36.1765 48 32.39 48 27.7353C48 23.0806 44.232 19.2941 39.6 19.2941Z" fill="#948D12"/>
</g>
<defs>
<clipPath id="clip0_780_517">
<rect width="48" height="41" fill="white"/>
</clipPath>
</defs>
</svg>
