<svg width="51" height="40" viewBox="0 0 51 40" fill="none" xmlns="http://www.w3.org/2000/svg">
<g clip-path="url(#clip0_780_519)">
<path fill-rule="evenodd" clip-rule="evenodd" d="M25.5026 4.38356C21.7386 4.38356 18.204 5.29315 15.1218 6.89315L18.5499 10.2816C23.3229 7.02137 29.9141 7.49151 34.1627 11.6899C38.4101 15.8882 38.8858 22.4044 35.5874 27.1211L39.3669 30.8581C42.7707 28.171 45.304 24.5205 46.5136 20.3584C46.5837 20.1193 46.5837 19.8654 46.5136 19.6263C43.9603 10.8712 35.5508 4.38356 25.5026 4.38356ZM9.65926 10.9063C10.1959 10.3642 10.7609 9.85132 11.3545 9.36767L35.5441 33.2778C34.8116 33.6431 34.0559 33.9675 33.2768 34.251L9.65926 10.9063ZM6.8875 14.366L28.2234 35.4553C27.1971 35.5774 26.1636 35.6301 25.1301 35.6132L5.72669 16.4351C6.07408 15.722 6.46028 15.0323 6.8875 14.366ZM5.01047 21.9255L17.3337 34.1063C11.6228 31.8992 7.12365 27.4488 5.01047 21.9255ZM0.225307 18.4318C3.32413 7.76329 13.4965 0 25.5026 0C37.501 0 47.6689 7.75452 50.7755 18.4132C51.0748 19.4433 51.0748 20.537 50.7755 21.5682C47.6767 32.2367 37.5043 40 25.4982 40C13.4998 40 3.33189 32.2455 0.225307 21.5868C-0.0751024 20.5561 -0.0751024 19.4625 0.225307 18.4318Z" fill="#FFF034"/>
</g>
<defs>
<clipPath id="clip0_780_519">
<rect width="51" height="40" fill="white"/>
</clipPath>
</defs>
</svg>
