<svg width="17" height="12" viewBox="0 0 17 12" fill="none" xmlns="http://www.w3.org/2000/svg">
<path d="M16.9203 4.00351C16.9835 3.86131 17.0098 3.70561 16.9967 3.5507C16.9837 3.39579 16.9317 3.24662 16.8455 3.11685C16.616 2.67858 15.0267 2.57049 15.0981 3.08898C15.127 3.2984 15.1831 3.44027 14.923 3.4656C14.8777 3.37927 14.8388 3.2898 14.8065 3.19791L14.3561 1.824C14.1705 1.27816 13.7802 0.824458 13.2664 0.557336L12.9494 0.388447C12.4695 0.133755 11.9339 0.000349333 11.3898 2.84173e-06H5.61446C5.07002 -0.000707684 4.53378 0.131833 4.05313 0.385914L3.73695 0.554803C3.22317 0.821925 2.83288 1.27563 2.64734 1.82147L2.19347 3.19369C2.16149 3.28585 2.12286 3.37559 2.07788 3.46222C1.8161 3.43689 1.87304 3.29333 1.90194 3.0856C1.97334 2.56711 0.383955 2.6752 0.154472 3.11347C0.0683239 3.24324 0.016334 3.39241 0.00326654 3.54732C-0.00980094 3.70224 0.0164718 3.85793 0.0796773 4.00013C0.293123 4.13938 0.533457 4.23285 0.785322 4.27458C1.03719 4.31631 1.29505 4.30538 1.54242 4.24249L0.625337 5.35462C0.307484 5.6868 0.131423 6.12834 0.134073 6.58667L0.158722 11.1163C0.169118 11.3565 0.274298 11.5829 0.4515 11.7467C0.628702 11.9104 0.86367 11.9982 1.10555 11.9911H2.50285C2.6143 11.9948 2.72274 11.9548 2.80479 11.8798C2.88683 11.8047 2.9359 11.7007 2.94141 11.59V11.5723L2.91762 10.5556H14.0875L14.0628 11.5773C14.0628 11.6893 14.1076 11.7967 14.1873 11.8759C14.267 11.9551 14.3751 11.9996 14.4878 11.9996H15.9021C16.1448 12.0071 16.3807 11.919 16.5584 11.7545C16.7361 11.59 16.8411 11.3624 16.8506 11.1213L16.8761 6.59173C16.8788 6.13341 16.7027 5.69186 16.3849 5.35969L15.4576 4.24165C15.7047 4.30515 15.9624 4.31677 16.2142 4.27577C16.4661 4.23477 16.7066 4.14204 16.9203 4.00351ZM2.88022 3.37778C2.90462 2.6671 3.21173 1.99506 3.73419 1.50906C4.25666 1.02306 4.95181 0.762785 5.66716 0.785336H11.3328C12.0492 0.763022 12.7451 1.02401 13.2679 1.511C13.7908 1.998 14.0977 2.6712 14.1215 3.38285V3.76285C14.1213 3.79069 14.11 3.81733 14.0901 3.83694C14.0702 3.85655 14.0433 3.86756 14.0152 3.86756H2.98561C2.95766 3.86756 2.93085 3.85652 2.91109 3.83689C2.89132 3.81725 2.88022 3.79062 2.88022 3.76285V3.37778ZM4.06418 6.78004C4.04538 6.80918 4.01965 6.83328 3.98927 6.85021C3.95888 6.86715 3.92477 6.8764 3.88994 6.87715H1.28914C1.17355 6.87715 0.933864 6.8248 0.933864 6.47604L1.1098 5.57333C1.17015 5.2592 1.79485 5.27693 2.07278 5.4416L3.99533 6.49462C4.04275 6.52407 4.07657 6.57091 4.08946 6.62497C4.10234 6.67904 4.09326 6.73597 4.06418 6.78342V6.78004ZM15.8944 5.57333L16.0704 6.47942C16.0704 6.82818 15.8307 6.88053 15.7151 6.88053H13.1143C13.0691 6.87946 13.0254 6.86389 12.9898 6.83616C12.9542 6.80843 12.9286 6.77001 12.9167 6.72663C12.9049 6.68326 12.9075 6.63724 12.9241 6.59543C12.9407 6.55362 12.9704 6.51826 13.0089 6.49462L14.9349 5.4416C15.2051 5.27693 15.8299 5.25751 15.8944 5.57333Z" fill="#FFED00"/>
</svg>
