<svg width="31" height="33" viewBox="0 0 31 33" fill="none" xmlns="http://www.w3.org/2000/svg">
<path d="M21.8956 9.42105V7.73684C21.8956 5.95012 21.1858 4.23658 19.9224 2.97318C18.659 1.70977 16.9454 1 15.1587 1C13.372 1 11.6585 1.70977 10.3951 2.97318C9.13165 4.23658 8.42188 5.95012 8.42188 7.73684V9.42105" stroke="#FFF034" stroke-width="2" stroke-linecap="round"/>
<path fill-rule="evenodd" clip-rule="evenodd" d="M1.48042 9.21724C-1.00387e-07 10.696 0 13.0791 0 17.8421V19.5263C0 25.8774 -2.00774e-07 29.0539 1.97389 31.0261C3.94779 32.9983 7.12253 33 13.4737 33H16.8421C23.1933 33 26.3697 33 28.3419 31.0261C30.3141 29.0522 30.3158 25.8774 30.3158 19.5263V17.8421C30.3158 13.0791 30.3158 10.696 28.8354 9.21724C27.3566 7.73682 24.9735 7.73682 20.2105 7.73682H10.1053C5.34232 7.73682 2.95916 7.73682 1.48042 9.21724ZM15.1579 21.2105C15.6046 21.2105 16.033 21.0331 16.3488 20.7172C16.6647 20.4014 16.8421 19.973 16.8421 19.5263C16.8421 19.0796 16.6647 18.6512 16.3488 18.3354C16.033 18.0195 15.6046 17.8421 15.1579 17.8421C14.7112 17.8421 14.2828 18.0195 13.967 18.3354C13.6511 18.6512 13.4737 19.0796 13.4737 19.5263C13.4737 19.973 13.6511 20.4014 13.967 20.7172C14.2828 21.0331 14.7112 21.2105 15.1579 21.2105ZM20.2105 19.5263C20.2111 20.5716 19.8874 21.5913 19.2841 22.445C18.6808 23.2986 17.8276 23.9442 16.8421 24.2926V27.9473H13.4737V24.2926C12.5998 23.9841 11.8276 23.4413 11.2414 22.7235C10.6553 22.0058 10.2777 21.1407 10.1501 20.2228C10.0224 19.3049 10.1496 18.3696 10.5176 17.5191C10.8857 16.6686 11.4805 15.9357 12.237 15.4005C12.9935 14.8653 13.8826 14.5483 14.8071 14.4843C15.7316 14.4203 16.6559 14.6117 17.479 15.0376C18.302 15.4635 18.9922 16.1074 19.4739 16.8991C19.9556 17.6907 20.2105 18.5996 20.2105 19.5263Z" fill="#FFF034"/>
</svg>
