<svg width="28" height="30" viewBox="0 0 28 30" fill="none" xmlns="http://www.w3.org/2000/svg">
<path d="M7.00265 8.82353C7.00265 8.58952 7.09483 8.36509 7.2589 8.19961C7.42297 8.03414 7.64551 7.94118 7.87754 7.94118H13.1269C13.3589 7.94118 13.5814 8.03414 13.7455 8.19961C13.9096 8.36509 14.0018 8.58952 14.0018 8.82353C14.0018 9.05754 13.9096 9.28197 13.7455 9.44745C13.5814 9.61292 13.3589 9.70588 13.1269 9.70588H7.87754C7.64551 9.70588 7.42297 9.61292 7.2589 9.44745C7.09483 9.28197 7.00265 9.05754 7.00265 8.82353ZM7.87754 11.4706C7.64551 11.4706 7.42297 11.5636 7.2589 11.729C7.09483 11.8945 7.00265 12.1189 7.00265 12.3529C7.00265 12.587 7.09483 12.8114 7.2589 12.9769C7.42297 13.1423 7.64551 13.2353 7.87754 13.2353H11.3771C11.6091 13.2353 11.8317 13.1423 11.9957 12.9769C12.1598 12.8114 12.252 12.587 12.252 12.3529C12.252 12.1189 12.1598 11.8945 11.9957 11.729C11.8317 11.5636 11.6091 11.4706 11.3771 11.4706H7.87754ZM10.5022 6.00181e-07C8.68078 -0.000617824 6.89052 0.476691 5.30734 1.38503C3.72417 2.29336 2.40255 3.60147 1.47234 5.18082C0.542139 6.76018 0.0353537 8.55643 0.00178367 10.3931C-0.0317863 12.2297 0.409014 14.0436 1.28087 15.6565L0.0385303 20.0506C-0.00518393 20.2049 -0.00634853 20.3683 0.035162 20.5232C0.0766726 20.6781 0.159286 20.8187 0.274112 20.9298C0.388938 21.0408 0.531628 21.1182 0.686824 21.1536C0.842021 21.189 1.00385 21.1811 1.15489 21.1306L5.24587 19.7559C6.6402 20.5685 8.2012 21.0467 9.8081 21.1535C11.415 21.2604 13.0247 20.993 14.5128 20.372C16.0008 19.751 17.3272 18.7931 18.3895 17.5725C19.4517 16.3518 20.2213 14.901 20.6387 13.3323C21.056 11.7637 21.11 10.1193 20.7964 8.52624C20.4828 6.93321 19.81 5.43429 18.8301 4.14544C17.8502 2.85659 16.5894 1.81236 15.1454 1.09353C13.7013 0.374702 12.1126 0.00054344 10.5022 6.00181e-07ZM1.75331 10.5882C1.7536 8.63048 2.39948 6.72841 3.58926 5.18149C4.77905 3.63456 6.44517 2.53064 8.32531 2.04351C10.2055 1.55638 12.1929 1.71372 13.9746 2.49074C15.7564 3.26777 17.2313 4.62036 18.1672 6.33556C19.1031 8.05077 19.4468 10.0312 19.1442 11.965C18.8415 13.8988 17.9098 15.6762 16.4957 17.0174C15.0815 18.3586 13.2653 19.1873 11.3329 19.3732C9.40042 19.5591 7.46158 19.0915 5.82155 18.0441C5.71185 17.974 5.58804 17.9293 5.45911 17.9135C5.33017 17.8976 5.19935 17.9109 5.07614 17.9524L2.17501 18.9282L3.0674 15.7853C3.09991 15.6695 3.10861 15.5483 3.09297 15.429C3.07732 15.3098 3.03765 15.195 2.97641 15.0918C2.17511 13.7286 1.75262 12.1729 1.75331 10.5882ZM17.9843 24.6124L13.7813 22.4947C14.5535 22.2771 15.2902 21.99 15.9913 21.6335L18.3762 22.8371L26.2502 18.8665V17.6471C26.2502 17.179 26.0659 16.7302 25.7377 16.3992C25.4096 16.0683 24.9645 15.8824 24.5004 15.8824H21.5713C21.8396 15.3165 22.0636 14.7282 22.2432 14.1176H24.5004C25.4286 14.1176 26.3187 14.4895 26.975 15.1514C27.6313 15.8133 28 16.711 28 17.6471V26.4706C28 27.4066 27.6313 28.3044 26.975 28.9663C26.3187 29.6282 25.4286 30 24.5004 30H12.252C11.3238 30 10.4337 29.6282 9.77743 28.9663C9.12113 28.3044 8.75243 27.4066 8.75243 26.4706V22.8176C9.32403 22.9 9.90728 22.9412 10.5022 22.9412V26.4706C10.5022 26.9386 10.6866 27.3875 11.0147 27.7184C11.3429 28.0494 11.7879 28.2353 12.252 28.2353H24.5004C24.9645 28.2353 25.4096 28.0494 25.7377 27.7184C26.0659 27.3875 26.2502 26.9386 26.2502 26.4706V20.8394L18.7682 24.6124C18.6465 24.6738 18.5123 24.7059 18.3762 24.7059C18.2401 24.7059 18.1059 24.6738 17.9843 24.6124Z" fill="#FFED00"/>
</svg>
