<svg width="18" height="17" viewBox="0 0 18 17" fill="none" xmlns="http://www.w3.org/2000/svg">
<path d="M14.95 1.7H13.25V0.85C13.25 0.624566 13.1604 0.408365 13.001 0.248959C12.8416 0.0895533 12.6254 0 12.4 0C12.1746 0 11.9584 0.0895533 11.799 0.248959C11.6396 0.408365 11.55 0.624566 11.55 0.85V1.7H6.45V0.85C6.45 0.624566 6.36045 0.408365 6.20104 0.248959C6.04163 0.0895533 5.82543 0 5.6 0C5.37457 0 5.15837 0.0895533 4.99896 0.248959C4.83955 0.408365 4.75 0.624566 4.75 0.85V1.7H3.05C2.3737 1.7 1.7251 1.96866 1.24688 2.44688C0.76866 2.9251 0.5 3.5737 0.5 4.25V14.45C0.5 15.1263 0.76866 15.7749 1.24688 16.2531C1.7251 16.7313 2.3737 17 3.05 17H14.95C15.6263 17 16.2749 16.7313 16.7531 16.2531C17.2313 15.7749 17.5 15.1263 17.5 14.45V4.25C17.5 3.5737 17.2313 2.9251 16.7531 2.44688C16.2749 1.96866 15.6263 1.7 14.95 1.7ZM15.8 14.45C15.8 14.6754 15.7104 14.8916 15.551 15.051C15.3916 15.2104 15.1754 15.3 14.95 15.3H3.05C2.82457 15.3 2.60837 15.2104 2.44896 15.051C2.28955 14.8916 2.2 14.6754 2.2 14.45V8.5H15.8V14.45ZM15.8 6.8H2.2V4.25C2.2 4.02457 2.28955 3.80837 2.44896 3.64896C2.60837 3.48955 2.82457 3.4 3.05 3.4H4.75V4.25C4.75 4.47543 4.83955 4.69163 4.99896 4.85104C5.15837 5.01045 5.37457 5.1 5.6 5.1C5.82543 5.1 6.04163 5.01045 6.20104 4.85104C6.36045 4.69163 6.45 4.47543 6.45 4.25V3.4H11.55V4.25C11.55 4.47543 11.6396 4.69163 11.799 4.85104C11.9584 5.01045 12.1746 5.1 12.4 5.1C12.6254 5.1 12.8416 5.01045 13.001 4.85104C13.1604 4.69163 13.25 4.47543 13.25 4.25V3.4H14.95C15.1754 3.4 15.3916 3.48955 15.551 3.64896C15.7104 3.80837 15.8 4.02457 15.8 4.25V6.8Z" fill="#FFED00"/>
</svg>
