<svg width="32" height="32" viewBox="0 0 32 32" fill="none" xmlns="http://www.w3.org/2000/svg">
<path d="M23.3846 32H26.4615C27.9304 32 29.3392 31.4165 30.3778 30.3778C31.4165 29.3392 32 27.9304 32 26.4615V23.3846H23.3846V32ZM23.3846 20.9231H32V11.0769H23.3846V20.9231ZM20.9231 11.0769V20.9231H11.0769V11.0769H20.9231ZM23.3846 8.61538H32V5.53846C32 4.06957 31.4165 2.66084 30.3778 1.62218C29.3392 0.583515 27.9304 0 26.4615 0H23.3846V8.61538ZM20.9231 0V8.61538H11.0769V0H20.9231ZM20.9231 23.3846V32H11.0769V23.3846H20.9231ZM8.61538 20.9231V11.0769H0V20.9231H8.61538ZM8.61538 8.61538V0H5.53846C4.06957 0 2.66084 0.583515 1.62218 1.62218C0.583515 2.66084 0 4.06957 0 5.53846V8.61538H8.61538ZM8.61538 32V23.3846H0V26.4615C0 27.9304 0.583515 29.3392 1.62218 30.3778C2.66084 31.4165 4.06957 32 5.53846 32H8.61538Z" fill="#948D12"/>
</svg>
