<svg width="26" height="32" viewBox="0 0 26 32" fill="none" xmlns="http://www.w3.org/2000/svg">
<path d="M26 30.8571C26 31.1602 25.8809 31.4509 25.6689 31.6653C25.4569 31.8796 25.1694 32 24.8696 32H10.1739C9.87408 32 9.58655 31.8796 9.37455 31.6653C9.16255 31.4509 9.04345 31.1602 9.04345 30.8571C9.04345 30.554 9.16255 30.2633 9.37455 30.049C9.58655 29.8346 9.87408 29.7142 10.1739 29.7142H24.8696C25.1694 29.7142 25.4569 29.8346 25.6689 30.049C25.8809 30.2633 26 30.554 26 30.8571ZM23.7391 18.2852H14.6645L10.1739 9.14205L12.179 5.38192C12.185 5.37189 12.1902 5.36138 12.1945 5.35049C12.4625 4.80845 12.5066 4.18102 12.3171 3.60613C12.1277 3.03123 11.7202 2.55592 11.1842 2.28467L11.1178 2.25324L6.35867 0.223165C5.82429 -0.0348637 5.2111 -0.0706127 4.65093 0.123603C4.09075 0.317818 3.62831 0.726491 3.36301 1.26177L0.237352 7.54771C0.0812366 7.86559 0 8.21569 0 8.5706C0 8.92551 0.0812366 9.27561 0.237352 9.5935L8.44856 26.1655C8.63561 26.546 8.92428 26.866 9.28189 27.0892C9.6395 27.3123 10.0518 27.4299 10.472 27.4284H23.7391C24.3387 27.4284 24.9138 27.1876 25.3378 26.7589C25.7618 26.3302 26 25.7488 26 25.1426V20.571C26 19.9648 25.7618 19.3834 25.3378 18.9547C24.9138 18.5261 24.3387 18.2852 23.7391 18.2852Z" fill="#FFF034"/>
</svg>
