<svg width="46" height="51" viewBox="0 0 46 51" fill="none" xmlns="http://www.w3.org/2000/svg">
<g clip-path="url(#clip0_780_512)">
<path d="M25.5556 2.55C25.5556 1.8737 25.2863 1.2251 24.8071 0.746878C24.3278 0.26866 23.6778 0 23 0C22.3222 0 21.6722 0.26866 21.193 0.746878C20.7137 1.2251 20.4444 1.8737 20.4444 2.55V5.1H5.11111C3.75556 5.1 2.45553 5.63732 1.49701 6.59376C0.53849 7.55019 0 8.8474 0 10.2V40.8C0 42.1526 0.53849 43.4498 1.49701 44.4062C2.45553 45.3627 3.75556 45.9 5.11111 45.9H20.4444V48.45C20.4444 49.1263 20.7137 49.7749 21.193 50.2531C21.6722 50.7313 22.3222 51 23 51C23.6778 51 24.3278 50.7313 24.8071 50.2531C25.2863 49.7749 25.5556 49.1263 25.5556 48.45V2.55ZM28.1111 7.65C28.1111 6.9737 28.3804 6.3251 28.8596 5.84688C29.3389 5.36866 29.9889 5.1 30.6667 5.1H33.2222C33.9 5.1 34.55 5.36866 35.0293 5.84688C35.5085 6.3251 35.7778 6.9737 35.7778 7.65C35.7778 8.3263 35.5085 8.9749 35.0293 9.45312C34.55 9.93134 33.9 10.2 33.2222 10.2H30.6667C29.9889 10.2 29.3389 9.93134 28.8596 9.45312C28.3804 8.9749 28.1111 8.3263 28.1111 7.65ZM38.3333 7.65C38.3333 6.9737 38.6026 6.3251 39.0818 5.84688C39.5611 5.36866 40.2111 5.1 40.8889 5.1C42.2444 5.1 43.5445 5.63732 44.503 6.59376C45.4615 7.55019 46 8.8474 46 10.2C46 10.8763 45.7308 11.5249 45.2515 12.0031C44.7722 12.4813 44.1222 12.75 43.4444 12.75C42.7667 12.75 42.1167 12.4813 41.6374 12.0031C41.1581 11.5249 40.8889 10.8763 40.8889 10.2C40.2111 10.2 39.5611 9.93134 39.0818 9.45312C38.6026 8.9749 38.3333 8.3263 38.3333 7.65ZM43.4444 15.3C44.1222 15.3 44.7722 15.5687 45.2515 16.0469C45.7308 16.5251 46 17.1737 46 17.85V20.4C46 21.0763 45.7308 21.7249 45.2515 22.2031C44.7722 22.6813 44.1222 22.95 43.4444 22.95C42.7667 22.95 42.1167 22.6813 41.6374 22.2031C41.1581 21.7249 40.8889 21.0763 40.8889 20.4V17.85C40.8889 17.1737 41.1581 16.5251 41.6374 16.0469C42.1167 15.5687 42.7667 15.3 43.4444 15.3ZM43.4444 28.05C44.1222 28.05 44.7722 28.3187 45.2515 28.7969C45.7308 29.2751 46 29.9237 46 30.6V33.15C46 33.8263 45.7308 34.4749 45.2515 34.9531C44.7722 35.4313 44.1222 35.7 43.4444 35.7C42.7667 35.7 42.1167 35.4313 41.6374 34.9531C41.1581 34.4749 40.8889 33.8263 40.8889 33.15V30.6C40.8889 29.9237 41.1581 29.2751 41.6374 28.7969C42.1167 28.3187 42.7667 28.05 43.4444 28.05ZM43.4444 38.25C44.1222 38.25 44.7722 38.5187 45.2515 38.9969C45.7308 39.4751 46 40.1237 46 40.8C46 42.1526 45.4615 43.4498 44.503 44.4062C43.5445 45.3627 42.2444 45.9 40.8889 45.9C40.2111 45.9 39.5611 45.6313 39.0818 45.1531C38.6026 44.6749 38.3333 44.0263 38.3333 43.35C38.3333 42.6737 38.6026 42.0251 39.0818 41.5469C39.5611 41.0687 40.2111 40.8 40.8889 40.8C40.8889 40.1237 41.1581 39.4751 41.6374 38.9969C42.1167 38.5187 42.7667 38.25 43.4444 38.25ZM28.1111 43.35C28.1111 42.6737 28.3804 42.0251 28.8596 41.5469C29.3389 41.0687 29.9889 40.8 30.6667 40.8H33.2222C33.9 40.8 34.55 41.0687 35.0293 41.5469C35.5085 42.0251 35.7778 42.6737 35.7778 43.35C35.7778 44.0263 35.5085 44.6749 35.0293 45.1531C34.55 45.6313 33.9 45.9 33.2222 45.9H30.6667C29.9889 45.9 29.3389 45.6313 28.8596 45.1531C28.3804 44.6749 28.1111 44.0263 28.1111 43.35Z" fill="#948D12"/>
</g>
<defs>
<clipPath id="clip0_780_512">
<rect width="46" height="51" fill="white"/>
</clipPath>
</defs>
</svg>
