<svg width="32" height="32" viewBox="0 0 32 32" fill="none" xmlns="http://www.w3.org/2000/svg">
<path d="M7.11111 26.6667H12.4444V19.5556H14.2222V15.1111C14.2222 14.1333 13.8744 13.2966 13.1787 12.6009C12.483 11.9052 11.6456 11.5567 10.6667 11.5556H8.88889C7.91111 11.5556 7.07437 11.904 6.37867 12.6009C5.68296 13.2978 5.33452 14.1345 5.33333 15.1111V19.5556H7.11111V26.6667ZM9.77778 9.77778C10.4 9.77778 10.9262 9.56267 11.3564 9.13244C11.7867 8.70222 12.0012 8.17659 12 7.55555C11.9988 6.93452 11.7837 6.4083 11.3547 5.97689C10.9256 5.54548 10.4 5.33096 9.77778 5.33333C9.15555 5.3357 8.62933 5.55081 8.19911 5.97867C7.76889 6.40652 7.55437 6.93215 7.55555 7.55555C7.55674 8.17896 7.77185 8.70518 8.20089 9.13422C8.62992 9.56326 9.15555 9.77778 9.77778 9.77778ZM17.7778 14.2222H26.6667L22.2222 7.11111L17.7778 14.2222ZM22.2222 24.8889L26.6667 17.7778H17.7778L22.2222 24.8889ZM3.55556 32C2.57778 32 1.74104 31.6521 1.04533 30.9564C0.34963 30.2607 0.00118519 29.4234 0 28.4444V3.55556C0 2.57778 0.348445 1.74104 1.04533 1.04533C1.74222 0.34963 2.57896 0.00118519 3.55556 0H28.4444C29.4222 0 30.2596 0.348445 30.9564 1.04533C31.6533 1.74222 32.0012 2.57896 32 3.55556V28.4444C32 29.4222 31.6521 30.2596 30.9564 30.9564C30.2607 31.6533 29.4234 32.0012 28.4444 32H3.55556ZM3.55556 28.4444H28.4444V3.55556H3.55556V28.4444Z" fill="#FFF034"/>
</svg>
