<svg width="81" height="96" viewBox="0 0 81 96" fill="none" xmlns="http://www.w3.org/2000/svg">
<path d="M73.6357 2.19621H38.351C36.8879 2.19628 35.4846 2.77712 34.4494 3.81114L28.39 9.87519L22.3305 3.81114C21.8176 3.29643 21.2081 2.88803 20.537 2.60936C19.8659 2.3307 19.1464 2.18726 18.4197 2.18726C17.6931 2.18726 16.9736 2.3307 16.3025 2.60936C15.6314 2.88803 15.0219 3.29643 14.5089 3.81114L3.46666 14.8534C2.95194 15.3663 2.54354 15.9758 2.26488 16.6469C1.98622 17.318 1.84277 18.0376 1.84277 18.7642C1.84277 19.4909 1.98622 20.2104 2.26488 20.8815C2.54354 21.5526 2.95194 22.1621 3.46666 22.675L9.53991 28.7253L3.48046 34.7847C2.96558 35.2954 2.55728 35.9032 2.27926 36.573C2.00124 37.2428 1.85904 37.9611 1.86093 38.6863V88.694C1.86093 90.1583 2.44262 91.5626 3.47803 92.598C4.51345 93.6334 5.91777 94.2151 7.38206 94.2151H73.6357C75.1 94.2151 76.5043 93.6334 77.5397 92.598C78.5751 91.5626 79.1568 90.1583 79.1568 88.694V7.71734C79.1568 6.25305 78.5751 4.84873 77.5397 3.81331C76.5043 2.7779 75.1 2.19621 73.6357 2.19621ZM6.08 20.0617C5.90888 19.8908 5.77314 19.6878 5.68053 19.4644C5.58791 19.2409 5.54024 19.0015 5.54024 18.7596C5.54024 18.5178 5.58791 18.2783 5.68053 18.0549C5.77314 17.8314 5.90888 17.6285 6.08 17.4575L17.1223 6.41528C17.2932 6.24416 17.4962 6.10842 17.7196 6.01581C17.943 5.92319 18.1825 5.87552 18.4243 5.87552C18.6662 5.87552 18.9057 5.92319 19.1291 6.01581C19.3525 6.10842 19.5555 6.24416 19.7264 6.41528L25.7858 12.4747L12.1394 26.1211L6.08 20.0617ZM75.4761 88.694C75.4761 89.1821 75.2822 89.6502 74.937 89.9953C74.5919 90.3405 74.1238 90.5344 73.6357 90.5344H7.38206C6.89397 90.5344 6.42586 90.3405 6.08072 89.9953C5.73558 89.6502 5.54169 89.1821 5.54169 88.694V38.6863C5.54252 38.1997 5.73607 37.7331 6.08 37.3888L13.4415 30.0273L29.6874 13.7814L37.049 6.41988C37.2196 6.2482 37.4225 6.11187 37.6459 6.01871C37.8693 5.92555 38.1089 5.87738 38.351 5.87697H73.6357C74.1238 5.87697 74.5919 6.07086 74.937 6.416C75.2822 6.76114 75.4761 7.22925 75.4761 7.71734V88.694ZM64.4338 18.7596C64.4338 19.2477 64.2399 19.7158 63.8947 20.061C63.5496 20.4061 63.0815 20.6 62.5934 20.6H44.1896C43.7015 20.6 43.2334 20.4061 42.8883 20.061C42.5431 19.7158 42.3492 19.2477 42.3492 18.7596C42.3492 18.2715 42.5431 17.8034 42.8883 17.4583C43.2334 17.1131 43.7015 16.9192 44.1896 16.9192H62.5934C63.0815 16.9192 63.5496 17.1131 63.8947 17.4583C64.2399 17.8034 64.4338 18.2715 64.4338 18.7596ZM63.6976 45.9972L43.5777 61.0883L63.6976 76.1794C63.891 76.3244 64.0539 76.5061 64.177 76.714C64.3001 76.922 64.3811 77.1522 64.4153 77.3914C64.4495 77.6307 64.4362 77.8743 64.3762 78.1084C64.3162 78.3426 64.2107 78.5626 64.0657 78.7559C63.9207 78.9493 63.739 79.1122 63.5311 79.2353C63.3231 79.3584 63.0929 79.4394 62.8537 79.4736C62.6144 79.5078 62.3708 79.4945 62.1367 79.4345C61.9025 79.3745 61.6825 79.269 61.4892 79.124L40.5089 63.3888L19.5286 79.124C19.1381 79.4169 18.6473 79.5426 18.1641 79.4736C17.6809 79.4046 17.2449 79.1464 16.952 78.7559C16.6592 78.3655 16.5334 77.8746 16.6025 77.3914C16.6715 76.9082 16.9296 76.4723 17.3201 76.1794L37.44 61.0883L17.3201 45.9972C17.1268 45.8522 16.9639 45.6705 16.8407 45.4626C16.7176 45.2546 16.6366 45.0244 16.6025 44.7852C16.5683 44.5459 16.5816 44.3023 16.6415 44.0682C16.7015 43.834 16.807 43.614 16.952 43.4207C17.097 43.2273 17.2787 43.0644 17.4867 42.9413C17.6946 42.8182 17.9248 42.7372 18.1641 42.703C18.4033 42.6688 18.647 42.6821 18.8811 42.7421C19.1152 42.8021 19.3352 42.9076 19.5286 43.0526L40.5089 58.7878L61.4892 43.0526C61.6825 42.9076 61.9025 42.8021 62.1367 42.7421C62.3708 42.6821 62.6144 42.6688 62.8537 42.703C63.0929 42.7372 63.3231 42.8182 63.5311 42.9413C63.739 43.0644 63.9207 43.2273 64.0657 43.4207C64.2107 43.614 64.3162 43.834 64.3762 44.0682C64.4362 44.3023 64.4495 44.5459 64.4153 44.7852C64.3811 45.0244 64.3001 45.2546 64.177 45.4626C64.0539 45.6705 63.891 45.8522 63.6976 45.9972Z" stroke="#FFED00" stroke-opacity="0.55" stroke-width="2.56671"/>
</svg>
