<svg width="16" height="17" viewBox="0 0 16 17" fill="none" xmlns="http://www.w3.org/2000/svg">
<path d="M15.2921 3.995L15.3018 3.98556L11.6945 0.472222L10.6667 1.47333L12.7127 3.46611C11.8012 3.80611 11.1515 4.65611 11.1515 5.66667C11.1515 5.97673 11.2142 6.28376 11.336 6.57022C11.4579 6.85669 11.6364 7.11697 11.8616 7.33622C12.3162 7.77902 12.9328 8.02778 13.5758 8.02778C13.9248 8.02778 14.2448 7.95222 14.5455 7.82944V14.6389C14.5455 14.8894 14.4433 15.1296 14.2614 15.3067C14.0796 15.4838 13.8329 15.5833 13.5758 15.5833C13.3186 15.5833 13.0719 15.4838 12.8901 15.3067C12.7082 15.1296 12.6061 14.8894 12.6061 14.6389V10.3889C12.6061 9.88792 12.4017 9.40748 12.038 9.05324C11.6743 8.69901 11.181 8.5 10.6667 8.5H9.69697V1.88889C9.69697 1.38792 9.49264 0.907478 9.12893 0.553243C8.76523 0.199007 8.27194 0 7.75758 0H1.93939C1.42503 0 0.931742 0.199007 0.568035 0.553243C0.204328 0.907478 0 1.38792 0 1.88889V17H9.69697V9.91667H11.1515V14.6389C11.1515 15.2651 11.4069 15.8657 11.8616 16.3084C12.3162 16.7512 12.9328 17 13.5758 17C13.8941 17 14.2094 16.9389 14.5035 16.8203C14.7976 16.7016 15.0648 16.5277 15.29 16.3084C15.5151 16.0892 15.6936 15.8289 15.8155 15.5424C15.9373 15.256 16 14.949 16 14.6389V5.66667C16 5.015 15.7285 4.42 15.2921 3.995ZM7.75758 9.91667V15.1111H1.93939V8.5H7.75758V9.91667ZM7.75758 6.61111H1.93939V1.88889H7.75758V6.61111ZM13.5758 6.61111C13.3186 6.61111 13.0719 6.51161 12.8901 6.33449C12.7082 6.15737 12.6061 5.91715 12.6061 5.66667C12.6061 5.41618 12.7082 5.17596 12.8901 4.99884C13.0719 4.82173 13.3186 4.72222 13.5758 4.72222C13.8329 4.72222 14.0796 4.82173 14.2614 4.99884C14.4433 5.17596 14.5455 5.41618 14.5455 5.66667C14.5455 5.91715 14.4433 6.15737 14.2614 6.33449C14.0796 6.51161 13.8329 6.61111 13.5758 6.61111Z" fill="#FFED00"/>
</svg>
