<svg width="104" height="98" viewBox="0 0 104 98" fill="none" xmlns="http://www.w3.org/2000/svg">
<path d="M16.6944 58.2878L26.1971 51.5425C28.7586 49.6999 31.6368 48.3432 34.6883 47.5401C38.2481 46.5918 39.8433 44.6465 39.8433 40.4982C39.8433 29.9693 64.1593 28.8507 64.1593 40.4982C64.1593 44.6465 65.7545 46.5918 69.3143 47.5352C72.4365 48.3717 75.1502 49.6507 77.8055 51.5425L87.3082 58.283C91.6024 61.3371 93.6061 62.8106 94.7197 65.1596C95.7702 67.3675 95.7702 69.9547 95.7702 75.1292C95.7702 84.4374 95.7702 89.0915 93.1635 92.0726C90.0073 95.686 81.803 95.3796 76.7648 95.3796H27.2378C22.1996 95.3796 14.1607 95.8805 10.8391 92.0726C8.23242 89.0915 8.23242 84.4374 8.23242 75.1292C8.23242 69.9547 8.23242 67.3675 9.28288 65.1596C10.4014 62.8155 12.3953 61.3371 16.6944 58.283" stroke="#FFED00" stroke-opacity="0.55" stroke-width="5.13338" stroke-linecap="round" stroke-linejoin="round"/>
<path d="M27.4895 6.39283C21.0798 8.2214 16.4695 10.4925 12.2482 13.2354C5.57104 17.5734 2.70661 25.3886 3.49445 32.9314C3.82515 36.1217 6.38806 37.6488 9.35461 36.822C11.6111 36.1898 13.8677 35.5819 16.1096 34.9205C22.6604 32.9752 24.202 30.6117 25.1114 23.9053L27.4895 6.39283ZM27.4895 6.39283C43.3387 1.87003 60.6615 1.87003 76.5107 6.39283M76.5107 6.39283C82.9204 8.2214 87.5307 10.4925 91.752 13.2354C98.4291 17.5734 101.294 25.3886 100.506 32.9314C100.175 36.1217 97.6121 37.6488 94.6456 36.822C92.3939 36.1898 90.1325 35.5819 87.8906 34.9205C81.3398 32.9752 79.7982 30.6117 78.8888 23.9053L76.5107 6.39283ZM61.7265 71.0834C61.7265 73.663 60.7018 76.137 58.8777 77.9611C57.0536 79.7851 54.5797 80.8099 52.0001 80.8099C49.4205 80.8099 46.9465 79.7851 45.1225 77.9611C43.2984 76.137 42.2737 73.663 42.2737 71.0834C42.2737 68.5038 43.2984 66.0299 45.1225 64.2058C46.9465 62.3817 49.4205 61.357 52.0001 61.357C54.5797 61.357 57.0536 62.3817 58.8777 64.2058C60.7018 66.0299 61.7265 68.5038 61.7265 71.0834Z" stroke="#FFED00" stroke-opacity="0.55" stroke-width="5.13338" stroke-linecap="round" stroke-linejoin="round"/>
</svg>
