<svg width="32" height="32" viewBox="0 0 32 32" fill="none" xmlns="http://www.w3.org/2000/svg">
<path fill-rule="evenodd" clip-rule="evenodd" d="M16 0C24.8368 0 32 7.1632 32 16C32 24.8368 24.8368 32 16 32C7.1632 32 0 24.8368 0 16C0 7.1632 7.1632 0 16 0ZM3.528 18.896C4.08793 21.2998 5.33006 23.4908 7.10514 25.2057C8.88021 26.9206 11.1127 28.0865 13.5344 28.5632C13.2256 24.3632 11.8448 21.8432 10.1008 20.4496C8.4304 19.1136 6.1648 18.5968 3.528 18.8944V18.896ZM21.8992 20.448C20.1552 21.8448 18.7744 24.3632 18.4656 28.5632C20.8875 28.0863 23.1201 26.9202 24.8952 25.205C26.6703 23.4898 27.9123 21.2985 28.472 18.8944C25.8352 18.5968 23.5696 19.1136 21.8992 20.4496V20.448ZM16 3.2C13.0176 3.19947 10.1287 4.24038 7.83202 6.14297C5.53536 8.04556 3.97515 10.6904 3.4208 13.6208L3.352 14.0176L6.888 13.3104C7.8192 13.1248 8.704 12.6336 9.6928 11.9664L10.456 11.4352C11.7312 10.5296 13.6208 9.6 16 9.6C18.2208 9.6 20.0144 10.4096 21.28 11.2544L22.3072 11.9664C23.1712 12.5504 23.9584 12.9984 24.7648 13.2272L25.112 13.3104L28.648 14.0176C28.1754 11.0028 26.6412 8.25605 24.3221 6.27257C22.003 4.2891 19.0516 3.19942 16 3.2Z" fill="#948D12"/>
</svg>
