<svg width="28" height="32" viewBox="0 0 28 32" fill="none" xmlns="http://www.w3.org/2000/svg">
<path d="M4.93846 21.2864C7.05744 21.5475 9.15918 21.9354 11.2326 22.448C14.4193 23.2512 17.2112 24.7952 19.2754 26.2048L19.973 26.6944L20.6072 27.1664L21.1747 27.608L21.6726 28.0144L22.0959 28.376L22.4447 28.6832C23.7812 29.8848 22.8727 31.848 21.3587 31.992L21.1811 32H7.55599C4.88931 32 2.67289 30.648 1.04942 28.5984C-0.177692 27.0512 -0.282329 25.1056 0.494526 23.592C1.27772 22.0592 2.9329 21.032 4.93846 21.2864ZM25.1177 0C26.5335 0 27.1438 1.344 27.4435 2.576L27.5386 3.0048L27.5767 3.2096C27.805 4.4848 27.927 6.1568 27.9762 7.8752C28.0713 11.2752 27.8779 15.2384 27.4578 17.1472C26.7253 20.4784 25.6504 22.7936 24.363 24.1888C23.0535 25.6128 21.2841 26.2544 19.6527 25.4304C18.4018 24.8 17.6551 23.3008 17.2461 22.0224C16.6486 20.1592 16.6581 18.1518 17.273 16.2944C17.606 15.2832 18.2053 14.4672 18.8648 13.6912L19.4403 13.0336C20.141 12.2416 20.8434 11.4496 21.3222 10.4848C22.0198 9.0768 22.21 7.536 22.2687 5.9888L22.2909 5.0608L22.3051 4.1648L22.3147 3.944L22.3464 3.496C22.497 1.7712 23.082 0 25.1177 0ZM5.49811 1.952C5.82615 2.21711 6.03646 2.60281 6.08284 3.02434C6.12922 3.44587 6.00786 3.86873 5.74544 4.2L5.37603 4.6656C4.88042 5.29061 4.61517 6.06988 4.62558 6.87032C4.63599 7.67076 4.92141 8.44273 5.43311 9.0544L5.62812 9.2688C6.77572 10.427 7.45987 11.9716 7.54967 13.6069C7.63947 15.2423 7.12861 16.8537 6.11484 18.1328L5.74544 18.6C5.48264 18.9314 5.10015 19.1439 4.68211 19.1907C4.26407 19.2375 3.84473 19.1148 3.51634 18.8496C3.18794 18.5844 2.97739 18.1984 2.93101 17.7765C2.88463 17.3546 3.00621 16.9314 3.26901 16.6L3.63841 16.1344C4.13403 15.5094 4.39928 14.7301 4.38887 13.9297C4.37846 13.1292 4.09303 12.3573 3.58134 11.7456L3.38633 11.5312C2.23873 10.373 1.55458 8.82845 1.46478 7.19305C1.37498 5.55766 1.88584 3.94627 2.89961 2.6672L3.26901 2.2C3.3991 2.03585 3.55996 1.89917 3.74241 1.79778C3.92485 1.69639 4.12531 1.63228 4.33232 1.6091C4.53933 1.58592 4.74883 1.60413 4.94886 1.66269C5.14889 1.72126 5.33553 1.82062 5.49811 1.952ZM9.61069 2.2C9.86224 1.88097 10.225 1.6709 10.6248 1.61267C11.0247 1.55444 11.4315 1.65246 11.7621 1.8867C12.0928 2.12095 12.3224 2.47375 12.404 2.87305C12.4856 3.27235 12.4131 3.68803 12.2013 4.0352L12.0871 4.2L11.7177 4.6656C11.2221 5.29061 10.9569 6.06988 10.9673 6.87032C10.9777 7.67076 11.2631 8.44273 11.7748 9.0544L11.9698 9.2688C13.0757 10.3845 13.7528 11.8605 13.8803 13.4334C14.0078 15.0063 13.5773 16.5737 12.6658 17.856L12.4565 18.1328L12.0871 18.6C11.8356 18.919 11.4728 19.1291 11.073 19.1873C10.6731 19.2456 10.2663 19.1475 9.93567 18.9133C9.60501 18.6791 9.37543 18.3263 9.29382 17.927C9.2122 17.5277 9.28471 17.112 9.49654 16.7648L9.61069 16.6L9.98009 16.1344C10.4757 15.5094 10.741 14.7301 10.7305 13.9297C10.7201 13.1292 10.4347 12.3573 9.92302 11.7456L9.72801 11.5312C8.6221 10.4155 7.94498 8.93946 7.8175 7.36658C7.69002 5.7937 8.12046 4.22627 9.03201 2.944L9.24129 2.6672L9.61069 2.2Z" fill="#948D12"/>
</svg>
