<svg width="32" height="32" viewBox="0 0 32 32" fill="none" xmlns="http://www.w3.org/2000/svg">
<path fill-rule="evenodd" clip-rule="evenodd" d="M12.6274 0.196298C13.3225 -0.0121928 14.0566 -0.0553226 14.7712 0.0703519C15.4859 0.196026 16.1612 0.487025 16.7434 0.920118C17.3256 1.35321 17.7985 1.91641 18.1243 2.56475C18.4501 3.21309 18.6199 3.92862 18.62 4.65423V27.3458C18.6199 28.0714 18.4501 28.7869 18.1243 29.4352C17.7985 30.0836 17.3256 30.6468 16.7434 31.0799C16.1612 31.513 15.4859 31.804 14.7712 31.9296C14.0566 32.0553 13.3225 32.0122 12.6274 31.8037L3.31746 29.0107C2.35869 28.7231 1.51816 28.1341 0.920574 27.3311C0.322985 26.528 0.000164149 25.5538 0 24.5528V7.44723C0.000164149 6.44624 0.322985 5.47198 0.920574 4.66895C1.51816 3.86592 2.35869 3.27691 3.31746 2.98929L12.6274 0.196298ZM20.1716 3.58668C20.1716 3.17516 20.3351 2.78049 20.6261 2.48949C20.9171 2.1985 21.3118 2.03502 21.7233 2.03502H26.3783C27.6129 2.03502 28.7969 2.52546 29.6699 3.39844C30.5429 4.27142 31.0333 5.45543 31.0333 6.69001V8.24168C31.0333 8.6532 30.8698 9.04788 30.5788 9.33887C30.2878 9.62986 29.8931 9.79334 29.4816 9.79334C29.0701 9.79334 28.6754 9.62986 28.3844 9.33887C28.0934 9.04788 27.93 8.6532 27.93 8.24168V6.69001C27.93 6.27849 27.7665 5.88381 27.4755 5.59282C27.1845 5.30183 26.7898 5.13835 26.3783 5.13835H21.7233C21.3118 5.13835 20.9171 4.97487 20.6261 4.68388C20.3351 4.39288 20.1716 3.99821 20.1716 3.58668ZM29.4816 22.2067C29.8931 22.2067 30.2878 22.3701 30.5788 22.6611C30.8698 22.9521 31.0333 23.3468 31.0333 23.7583V25.31C31.0333 26.5446 30.5429 27.7286 29.6699 28.6016C28.7969 29.4745 27.6129 29.965 26.3783 29.965H21.7233C21.3118 29.965 20.9171 29.8015 20.6261 29.5105C20.3351 29.2195 20.1716 28.8248 20.1716 28.4133C20.1716 28.0018 20.3351 27.6071 20.6261 27.3161C20.9171 27.0251 21.3118 26.8617 21.7233 26.8617H26.3783C26.7898 26.8617 27.1845 26.6982 27.4755 26.4072C27.7665 26.1162 27.93 25.7215 27.93 25.31V23.7583C27.93 23.3468 28.0934 22.9521 28.3844 22.6611C28.6754 22.3701 29.0701 22.2067 29.4816 22.2067ZM10.8617 14.4483C10.4501 14.4483 10.0555 14.6118 9.76446 14.9028C9.47346 15.1938 9.30999 15.5885 9.30999 16C9.30999 16.4115 9.47346 16.8062 9.76446 17.0972C10.0555 17.3882 10.4501 17.5517 10.8617 17.5517H10.8632C11.2747 17.5517 11.6694 17.3882 11.9604 17.0972C12.2514 16.8062 12.4149 16.4115 12.4149 16C12.4149 15.5885 12.2514 15.1938 11.9604 14.9028C11.6694 14.6118 11.2747 14.4483 10.8632 14.4483H10.8617Z" fill="#FFF034"/>
<path d="M29.481 16.0001H21.7227M21.7227 16.0001L24.826 12.8967M21.7227 16.0001L24.826 19.1034" stroke="#FFF034" stroke-width="2" stroke-linecap="round" stroke-linejoin="round"/>
</svg>
