<svg width="17" height="17" viewBox="0 0 17 17" fill="none" xmlns="http://www.w3.org/2000/svg">
<path d="M4.22662 0.905928C4.25561 0.696645 4.19993 0.484464 4.07181 0.316064C3.9437 0.147663 3.75364 0.0368368 3.54346 0.0079653C3.33328 -0.0209062 3.1202 0.0345423 2.95107 0.162113C2.78195 0.289683 2.67065 0.478925 2.64166 0.688208L0.508461 16.0879C0.493133 16.192 0.49867 16.2981 0.524753 16.4001C0.550835 16.502 0.596946 16.5978 0.660421 16.682C0.723897 16.7661 0.803479 16.8368 0.894573 16.8902C0.985667 16.9435 1.08647 16.9783 1.19115 16.9926C1.29583 17.0069 1.40233 17.0004 1.50448 16.9735C1.60664 16.9466 1.70243 16.8998 1.78632 16.8359C1.87021 16.7719 1.94054 16.692 1.99325 16.6008C2.04597 16.5096 2.08001 16.4089 2.09342 16.3046L4.22662 0.905928ZM14.3593 0.688208C14.3303 0.478925 14.219 0.289683 14.0499 0.162113C13.8808 0.0345424 13.6677 -0.0209062 13.4575 0.0079653C13.2473 0.0368368 13.0573 0.147663 12.9291 0.316064C12.801 0.484464 12.7453 0.696645 12.7743 0.905928L14.9075 16.3056C14.9365 16.5149 15.0478 16.7042 15.2169 16.8317C15.3861 16.9593 15.5992 17.0148 15.8093 16.9859C16.0195 16.957 16.2096 16.8462 16.3377 16.6778C16.4658 16.5094 16.5215 16.2972 16.4925 16.0879L14.3593 0.688208ZM9.30042 0.796537C9.30042 0.585282 9.21614 0.38268 9.06612 0.2333C8.9161 0.0839205 8.71264 0 8.50048 0C8.28832 0 8.08485 0.0839205 7.93483 0.2333C7.78481 0.38268 7.70053 0.585282 7.70053 0.796537V3.45166C7.70053 3.66291 7.78481 3.86552 7.93483 4.0149C8.08485 4.16428 8.28832 4.2482 8.50048 4.2482C8.71264 4.2482 8.9161 4.16428 9.06612 4.0149C9.21614 3.86552 9.30042 3.66291 9.30042 3.45166V0.796537ZM7.70053 9.82395C7.70053 10.0352 7.78481 10.2378 7.93483 10.3872C8.08485 10.5366 8.28832 10.6205 8.50048 10.6205C8.71264 10.6205 8.9161 10.5366 9.06612 10.3872C9.21614 10.2378 9.30042 10.0352 9.30042 9.82395V7.16883C9.30042 6.95758 9.21614 6.75498 9.06612 6.6056C8.9161 6.45622 8.71264 6.37229 8.50048 6.37229C8.28832 6.37229 8.08485 6.45622 7.93483 6.6056C7.78481 6.75498 7.70053 6.95758 7.70053 7.16883V9.82395ZM7.70053 13.5411C7.70053 13.3299 7.78481 13.1273 7.93483 12.9779C8.08485 12.8285 8.28832 12.7446 8.50048 12.7446C8.71264 12.7446 8.9161 12.8285 9.06612 12.9779C9.21614 13.1273 9.30042 13.3299 9.30042 13.5411V16.1962C9.30042 16.4075 9.21614 16.6101 9.06612 16.7595C8.9161 16.9089 8.71264 16.9928 8.50048 16.9928C8.28832 16.9928 8.08485 16.9089 7.93483 16.7595C7.78481 16.6101 7.70053 16.4075 7.70053 16.1962V13.5411Z" fill="#FFED00"/>
</svg>
