<svg width="36" height="36" viewBox="0 0 36 36" fill="none" xmlns="http://www.w3.org/2000/svg">
<path d="M31.4737 2H4.52632C3.13107 2 2 3.13107 2 4.52632V31.4737C2 32.8689 3.13107 34 4.52632 34H31.4737C32.8689 34 34 32.8689 34 31.4737V4.52632C34 3.13107 32.8689 2 31.4737 2Z" stroke="#948D12" stroke-width="4" stroke-linecap="round" stroke-linejoin="round"/>
<path d="M12.9479 18V10.9701C12.9479 9.9453 13.9584 7.89478 18.0005 7.89478C22.0426 7.89478 23.0531 9.9453 23.0531 10.9701V18M11.2637 18V23.0527H24.7374V18" stroke="#948D12" stroke-width="4" stroke-linecap="round" stroke-linejoin="round"/>
<path d="M7.89453 14.6316V18H28.1051V14.6316M12.9472 28.1053H23.0524M17.9998 23.0526V28.1053" stroke="#948D12" stroke-width="4" stroke-linecap="round" stroke-linejoin="round"/>
</svg>
