<svg width="18" height="18" viewBox="0 0 18 18" fill="none" xmlns="http://www.w3.org/2000/svg">
<path d="M8.8742 18.0042C8.39132 18.0037 7.928 17.8133 7.5842 17.4742L1.1742 11.0542C1.00972 10.8907 0.907198 10.675 0.884203 10.4442L0.00420295 1.0942C-0.00926809 0.947735 0.00973728 0.800099 0.0598642 0.661818C0.109991 0.523537 0.190005 0.398016 0.294203 0.294203C0.398016 0.190005 0.523537 0.109991 0.661818 0.0598642C0.800099 0.00973728 0.947735 -0.00926809 1.0942 0.00420295L10.4442 0.884203C10.675 0.907198 10.8907 1.00972 11.0542 1.1742L17.4742 7.5842C17.8143 7.92536 18.0053 8.38746 18.0053 8.8692C18.0053 9.35095 17.8143 9.81304 17.4742 10.1542L10.1542 17.4742C9.81409 17.8127 9.35405 18.0032 8.8742 18.0042ZM2.8742 9.8942L8.8742 15.8942L15.9242 8.8442L9.9242 2.8442L2.1142 2.1142L2.8742 9.8942Z" fill="#FFED00"/>
</svg>
