<svg width="36" height="32" viewBox="0 0 36 32" fill="none" xmlns="http://www.w3.org/2000/svg">
<path d="M30.1599 31.5356L18.6883 19.9261C17.7984 21.4459 16.5886 22.6634 15.0591 23.5787C13.5295 24.4939 11.847 24.951 10.0116 24.9499C7.23059 24.9499 4.86674 23.9648 2.92005 21.9947C0.973349 20.0246 0 17.6324 0 14.8179C0 12.9604 0.45219 11.2577 1.35657 9.70976C2.26095 8.16183 3.46345 6.93756 4.96408 6.03694L1.83546 2.87071C1.52955 2.56113 1.37659 2.17386 1.37659 1.70892C1.37659 1.24398 1.52955 0.843202 1.83546 0.506597C2.16918 0.168866 2.56575 0 3.02517 0C3.48459 0 3.8806 0.168866 4.21321 0.506597L32.4959 29.1715C32.8019 29.4811 32.9615 29.8684 32.9748 30.3333C32.9882 30.7982 32.8286 31.199 32.4959 31.5356C32.19 31.8452 31.8007 32 31.3279 32C30.8552 32 30.4658 31.8452 30.1599 31.5356ZM36 14.7757C36 15.0009 35.9655 15.212 35.8965 15.409C35.8276 15.606 35.7091 15.7889 35.5411 15.9578L31.2028 20.3483C31.0359 20.5171 30.8624 20.6438 30.6822 20.7282C30.502 20.8127 30.2862 20.8549 30.0348 20.8549C29.7834 20.8549 29.5681 20.82 29.389 20.7502C29.2099 20.6804 29.0358 20.5605 28.8667 20.3905L26.6976 18.1953L26.5724 18.3641L19.7312 11.4406H32.7045C32.927 11.4406 33.1428 11.4828 33.3519 11.5673C33.5611 11.6517 33.7346 11.7643 33.8725 11.905L35.4994 13.5515C35.6663 13.7203 35.7914 13.91 35.8749 14.1205C35.9583 14.331 36 14.5494 36 14.7757ZM10.0116 19.8839C11.2074 19.8839 12.2503 19.5107 13.1402 18.7643C14.0301 18.0179 14.6002 17.1111 14.8505 16.0439L13.9128 15.0949L11.827 12.9841L9.74127 10.8732L8.80185 9.92253C7.63384 10.1758 6.70943 10.7742 6.02864 11.7176C5.34786 12.661 5.00691 13.6944 5.00579 14.8179C5.00579 16.2252 5.49247 17.4213 6.46582 18.4063C7.43917 19.3914 8.62109 19.8839 10.0116 19.8839Z" fill="#FFF034"/>
</svg>
