<svg width="41" height="32" viewBox="0 0 41 32" fill="none" xmlns="http://www.w3.org/2000/svg">
<path fill-rule="evenodd" clip-rule="evenodd" d="M9.34888 0.112809C5.02845 -0.629023 0.795886 2.36158 0.397527 6.91439C-0.132509 12.9598 -0.132509 19.0395 0.397527 25.0849C0.795886 29.6377 5.02552 32.6283 9.34888 31.8865C13.0483 31.2494 17.5094 30.6181 20.5 30.6181C23.4906 30.6181 27.9517 31.2494 31.654 31.8865C35.9716 32.6312 40.207 29.6377 40.6025 25.0849C41.1325 19.0395 41.1325 12.9598 40.6025 6.91439C40.2041 2.36158 35.9745 -0.629023 31.654 0.112809C27.9517 0.749911 23.4906 1.3841 20.5 1.3841C17.5094 1.3841 13.0483 0.749911 9.34888 0.112809ZM4.04427 7.22857C4.2493 4.89253 6.4227 3.30123 8.72205 3.69687C10.4473 3.99361 12.3981 4.29907 14.3313 4.54343V27.4558C12.3981 27.7002 10.4473 28.0086 8.72205 28.3024C8.17829 28.4003 7.61995 28.3848 7.08254 28.2569C6.54514 28.1289 6.04041 27.8913 5.60046 27.5592C5.16051 27.227 4.79496 26.8076 4.52705 26.3275C4.25914 25.8475 4.09472 25.3173 4.04427 24.7707C3.52876 18.9345 3.52876 13.0647 4.04427 7.22857ZM26.6687 27.4558C28.6019 27.7002 30.5527 28.0086 32.2779 28.3024C32.8217 28.4003 33.3801 28.3848 33.9175 28.2569C34.4549 28.1289 34.9596 27.8913 35.3995 27.5592C35.8395 27.227 36.205 26.8076 36.473 26.3275C36.7409 25.8475 36.9053 25.3173 36.9557 24.7707C37.4712 18.9345 37.4712 13.0647 36.9557 7.22857C36.9053 6.682 36.7409 6.15183 36.473 5.67177C36.205 5.19171 35.8395 4.77227 35.3995 4.44011C34.9596 4.10795 34.4549 3.87034 33.9175 3.74239C33.3801 3.61443 32.8217 3.59893 32.2779 3.69687C30.5527 3.99361 28.6019 4.29907 26.6687 4.54343V27.4558Z" fill="#948D12"/>
</svg>
