<svg width="34" height="32" viewBox="0 0 34 32" fill="none" xmlns="http://www.w3.org/2000/svg">
<path d="M8.30281 32V28.6316H0V13.4737H8.63492L6.89133 8.42105H0V5.05263H9.21612L13.2845 16.8421V32H8.30281ZM5.81197 23.5789C6.50387 23.5789 7.09226 23.3336 7.57714 22.8429C8.06203 22.3523 8.30392 21.7555 8.30281 21.0526C8.3017 20.3498 8.05981 19.7535 7.57714 19.264C7.09447 18.7745 6.50608 18.5286 5.81197 18.5263C5.11785 18.5241 4.53001 18.77 4.04845 19.264C3.56689 19.758 3.32444 20.3542 3.32112 21.0526C3.3178 21.751 3.56024 22.3478 4.04845 22.8429C4.53665 23.3381 5.12449 23.5834 5.81197 23.5789ZM21.1722 9.26316H23.663C23.663 8.92632 23.7875 8.63158 24.0366 8.37895C24.2857 8.12632 24.5763 8 24.9084 8C25.2405 8 25.5311 8.12632 25.7802 8.37895C26.0293 8.63158 26.1538 8.92632 26.1538 9.26316H28.6447C28.6447 8.19649 28.2849 7.29825 27.5653 6.56842C26.8457 5.8386 25.9601 5.47368 24.9084 5.47368C23.8567 5.47368 22.9711 5.8386 22.2515 6.56842C21.5319 7.29825 21.1722 8.19649 21.1722 9.26316ZM21.5873 14.3158H28.2295V11.7895H21.5873V14.3158ZM23.2479 32V20.2105H18.2662L16.1074 11.4526C16.0244 11.0596 15.9552 10.6807 15.8999 10.3158C15.8445 9.95088 15.8168 9.57193 15.8168 9.17895C15.8168 6.70877 16.6814 4.5614 18.4106 2.73684C20.1398 0.912281 22.3058 0 24.9084 0C27.5111 0 29.677 0.912281 31.4062 2.73684C33.1354 4.5614 34 6.70877 34 9.17895C34 9.57193 33.9723 9.95088 33.917 10.3158C33.8616 10.6807 33.7924 11.0596 33.7094 11.4526L31.5507 20.2105H26.569V32H23.2479Z" fill="#FFF034"/>
</svg>
