<svg width="25" height="32" viewBox="0 0 25 32" fill="none" xmlns="http://www.w3.org/2000/svg">
<path d="M12.5 31.9982C8.9119 30.9307 5.93155 28.7534 3.55893 25.4662C1.18631 22.179 0 18.4749 0 14.354V4.67852L12.5 0L25 4.67852V14.354C25 18.4737 23.8137 22.1772 21.4411 25.4644C19.0685 28.7516 16.0881 30.9283 12.5 31.9982ZM12.5 30.1C15.3869 29.2054 17.7976 27.439 19.7321 24.8006C21.6667 22.1623 22.7976 19.2168 23.125 15.9642H12.5V1.90898L1.78571 5.90048V15.1251C1.78571 15.3565 1.81548 15.6362 1.875 15.9642H12.5V30.1Z" fill="#948D12"/>
</svg>
