<svg width="32" height="32" viewBox="0 0 32 32" fill="none" xmlns="http://www.w3.org/2000/svg">
<path d="M28.8 16H3.2L0 32H32L28.8 16ZM26.176 19.2L26.816 22.4H17.6V19.2H26.176ZM14.4 19.2V22.4H5.184L5.824 19.2H14.4ZM4.544 25.6H14.4V28.8H3.904L4.544 25.6ZM17.6 28.8V25.6H27.456L28.096 28.8H17.6ZM14.4 9.6H17.6V14.4H14.4V9.6ZM22.016 8.336L24.288 6.064L27.68 9.456L25.424 11.728L22.016 8.336ZM4.336 9.456L7.728 6.064L9.984 8.336L6.592 11.728L4.336 9.456ZM1.6 0H6.4V3.2H1.6V0ZM25.6 0H30.4V3.2H25.6V0ZM16 8C20.416 8 24 4.416 24 0H20.8C20.8 2.64 18.64 4.8 16 4.8C13.36 4.8 11.2 2.64 11.2 0H8C8 4.416 11.584 8 16 8Z" fill="#FFF034"/>
</svg>
