<svg width="48" height="39" viewBox="0 0 48 39" fill="none" xmlns="http://www.w3.org/2000/svg">
<g clip-path="url(#clip0_780_514)">
<path d="M44.1486 10.9439L41.1715 15.4095C42.5957 18.2499 43.2929 21.3992 43.2007 24.5753C43.1085 27.7513 42.2298 30.8549 40.6434 33.6079H7.36763C5.30571 30.0309 4.45131 25.8847 4.93111 21.7839C5.41091 17.6831 7.19936 13.8461 10.0313 10.8417C12.8633 7.8373 16.588 5.82542 20.6533 5.10434C24.7186 4.38325 28.908 4.99135 32.6005 6.83848L37.0661 3.86143C32.3353 0.795349 26.6765 -0.508199 21.0811 0.179187C15.4857 0.866573 10.3106 3.50105 6.46265 7.62102C2.61467 11.741 0.339227 17.0836 0.0350034 22.7129C-0.26922 28.3421 1.41718 33.8989 4.79873 38.4096H43.2123C46.1571 34.4752 47.8236 29.7319 47.9868 24.8202C48.1499 19.9085 46.8018 15.0651 44.1246 10.9439H44.1486Z" fill="#948D12"/>
<path d="M20.6241 27.3861C21.07 27.8326 21.5996 28.1867 22.1825 28.4284C22.7654 28.67 23.3903 28.7944 24.0213 28.7944C24.6523 28.7944 25.2771 28.67 25.8601 28.4284C26.443 28.1867 26.9725 27.8326 27.4185 27.3861L41.0073 7.00293L20.6241 20.5917C20.1776 21.0377 19.8235 21.5672 19.5818 22.1502C19.3402 22.7331 19.2158 23.3579 19.2158 23.9889C19.2158 24.6199 19.3402 25.2448 19.5818 25.8277C19.8235 26.4106 20.1776 26.9402 20.6241 27.3861Z" fill="#948D12"/>
</g>
<defs>
<clipPath id="clip0_780_514">
<rect width="48" height="39" fill="white"/>
</clipPath>
</defs>
</svg>
