<svg width="27" height="32" viewBox="0 0 27 32" fill="none" xmlns="http://www.w3.org/2000/svg">
<path fill-rule="evenodd" clip-rule="evenodd" d="M13.5534 6.16829L10.2138 2.14549L12.7786 0L16.1182 4.0228L13.5534 6.16829ZM0.862953 3.48642L4.20255 7.50922L6.76737 5.36373L3.42777 1.34093L0.862953 3.48642ZM1.67114 14.9112C5.2651 12.8211 9.34649 11.7241 13.5 11.7318C17.8121 11.7318 21.849 12.889 25.3289 14.9098L27 12.0067C22.8977 9.62313 18.2399 8.37213 13.5 8.38082C8.58411 8.38082 3.97279 9.70164 0 12.008L1.67114 14.9112ZM6.15288 15.2384H4.48308V32H22.5169V15.2384H6.15288ZM7.82268 28.6477V18.5907H19.1773V28.6477H7.82268ZM16.8396 26.6363H13.5V23.2839H16.8396V26.6363ZM20.2326 3.48642L23.5722 7.50922L26.137 5.36373L22.7974 1.34093L20.2326 3.48642Z" fill="#948D12"/>
</svg>
