<svg width="27" height="32" viewBox="0 0 27 32" fill="none" xmlns="http://www.w3.org/2000/svg">
<path d="M6.8805 1.26352C7.0425 1.1878 7.2075 1.1151 7.3755 1.04543L7.893 0.840968C10.3575 -0.0783535 13.611 -0.488792 19.113 0.900034C21.5715 1.52099 23.418 3.45051 24.615 5.62538C26.118 8.35759 27 12.0288 27 15.9999C27 19.9725 26.118 23.6423 24.615 26.3745C23.4165 28.5493 21.57 30.4789 19.113 31.0998C13.611 32.4886 10.3575 32.0782 7.893 31.1604L7.377 30.9544C7.21084 30.885 7.04582 30.8128 6.882 30.7378C4.7865 29.7791 3.075 27.7482 1.899 25.228C0.7095 22.679 0 19.497 0 15.9999C0 12.5029 0.7095 9.32084 1.899 6.77188C3.075 4.2517 4.785 2.22071 6.8805 1.26352ZM18 3.88366C16.7205 3.88366 15.2475 4.84388 14.0085 7.0975C12.795 9.29963 12 12.4438 12 15.9999C12 19.556 12.795 22.7002 14.0085 24.9023C15.2475 27.156 16.7205 28.1162 18 28.1162C19.2795 28.1162 20.7525 27.156 21.9915 24.9023C23.205 22.7002 24 19.556 24 15.9999C24 12.4438 23.205 9.29963 21.9915 7.0975C20.7525 4.84388 19.2795 3.88366 18 3.88366ZM18 10.6991C19.059 10.6991 19.815 11.5457 20.262 12.4483C20.7315 13.3964 21 14.6535 21 15.9999C21 17.3463 20.73 18.6034 20.262 19.5515C19.815 20.4542 19.059 21.3008 18 21.3008C16.941 21.3008 16.185 20.4542 15.738 19.5515C15.27 18.6034 15 17.3463 15 15.9999C15 14.6535 15.27 13.3964 15.738 12.4483C16.185 11.5472 16.941 10.6991 18 10.6991Z" fill="#948D12"/>
</svg>
