<svg width="61" height="66" viewBox="0 0 61 66" fill="none" xmlns="http://www.w3.org/2000/svg">
<path d="M15.2558 19.2422C15.2558 18.7351 15.4566 18.2489 15.814 17.8903C16.1715 17.5318 16.6563 17.3304 17.1618 17.3304H28.5978C29.1033 17.3304 29.5882 17.5318 29.9456 17.8903C30.303 18.2489 30.5039 18.7351 30.5039 19.2422C30.5039 19.7492 30.303 20.2355 29.9456 20.594C29.5882 20.9525 29.1033 21.1539 28.5978 21.1539H17.1618C16.6563 21.1539 16.1715 20.9525 15.814 20.594C15.4566 20.2355 15.2558 19.7492 15.2558 19.2422ZM17.1618 24.9775C16.6563 24.9775 16.1715 25.1789 15.814 25.5374C15.4566 25.8959 15.2558 26.3822 15.2558 26.8892C15.2558 27.3963 15.4566 27.8825 15.814 28.241C16.1715 28.5996 16.6563 28.801 17.1618 28.801H24.7858C25.2913 28.801 25.7761 28.5996 26.1336 28.241C26.491 27.8825 26.6918 27.3963 26.6918 26.8892C26.6918 26.3822 26.491 25.8959 26.1336 25.5374C25.7761 25.1789 25.2913 24.9775 24.7858 24.9775H17.1618ZM22.8798 0.124513C18.9117 0.123173 15.0115 1.15734 11.5624 3.1254C8.11337 5.09346 5.23413 7.9277 3.20761 11.3496C1.18109 14.7716 0.0770205 18.6634 0.00388585 22.6429C-0.0692488 26.6223 0.891067 30.5523 2.79047 34.0469L0.0839411 43.5675C-0.0112936 43.9018 -0.0138307 44.2558 0.076603 44.5914C0.167037 44.9271 0.347017 45.2316 0.597173 45.4723C0.847329 45.713 1.15819 45.8807 1.4963 45.9574C1.8344 46.0341 2.18696 46.0168 2.51601 45.9075L11.4285 42.9289C14.4662 44.6896 17.8669 45.7257 21.3676 45.9572C24.8684 46.1887 28.3753 45.6093 31.6171 44.2638C34.8589 42.9184 37.7486 40.843 40.0628 38.1982C42.377 35.5533 44.0536 32.41 44.9628 29.0113C45.8721 25.6125 45.9896 22.0496 45.3064 18.598C44.6231 15.1465 43.1574 11.8988 41.0227 9.10629C38.8879 6.31379 36.1412 4.05129 32.9952 2.49383C29.8492 0.936366 26.3882 0.125689 22.8798 0.124513ZM3.81972 23.0657C3.82035 18.8239 5.22744 14.7027 7.81947 11.3511C10.4115 7.9994 14.0413 5.60757 18.1373 4.55212C22.2333 3.49668 26.563 3.83757 30.4447 5.52112C34.3264 7.20468 37.5396 10.1353 39.5785 13.8516C41.6174 17.5678 42.3661 21.8587 41.7069 26.0487C41.0477 30.2386 39.0178 34.0897 35.937 36.9956C32.8562 39.9014 28.8994 41.6971 24.6894 42.0998C20.4795 42.5025 16.2556 41.4895 12.6827 39.2201C12.4437 39.0681 12.1739 38.9714 11.8931 38.937C11.6122 38.9027 11.3272 38.9314 11.0587 39.0213L4.73842 41.1357L6.68255 34.326C6.75338 34.0752 6.77234 33.8125 6.73825 33.5541C6.70416 33.2957 6.61775 33.047 6.48432 32.8233C4.73863 29.8698 3.8182 26.4992 3.81972 23.0657ZM39.18 53.4513L30.0235 48.863C31.7059 48.3915 33.3108 47.7695 34.8381 46.9972L40.0339 49.6048L57.188 41.0019V38.3598C57.188 37.3457 56.7864 36.3732 56.0715 35.6562C55.3566 34.9391 54.387 34.5363 53.376 34.5363H46.9946C47.5792 33.3102 48.0671 32.0357 48.4585 30.7127H53.376C55.398 30.7127 57.3372 31.5184 58.767 32.9525C60.1968 34.3866 61 36.3317 61 38.3598V57.4775C61 59.5056 60.1968 61.4506 58.767 62.8847C57.3372 64.3188 55.398 65.1245 53.376 65.1245H26.6918C24.6698 65.1245 22.7306 64.3188 21.3008 62.8847C19.871 61.4506 19.0678 59.5056 19.0678 57.4775V49.5627C20.3131 49.7412 21.5837 49.8304 22.8798 49.8304V57.4775C22.8798 58.4915 23.2814 59.4641 23.9963 60.1811C24.7112 60.8982 25.6808 61.301 26.6918 61.301H53.376C54.387 61.301 55.3566 60.8982 56.0715 60.1811C56.7864 59.4641 57.188 58.4915 57.188 57.4775V45.2766L40.8878 53.4513C40.6227 53.5845 40.3304 53.6539 40.0339 53.6539C39.7374 53.6539 39.4451 53.5845 39.18 53.4513Z" fill="#1D1D1B"/>
</svg>
