<svg width="83" height="93" viewBox="0 0 83 93" fill="none" xmlns="http://www.w3.org/2000/svg">
<path d="M25.6669 45.2133C24.606 45.2133 23.682 44.8198 22.8949 44.0327C22.1078 43.2455 21.7142 42.3215 21.7142 41.2606C21.7142 40.1997 22.1078 39.2757 22.8949 38.4886C23.682 37.7015 24.606 37.3079 25.6669 37.3079C26.7278 37.3079 27.6518 37.7015 28.4389 38.4886C29.226 39.2757 29.6196 40.1997 29.6196 41.2606C29.6196 42.3215 29.226 43.2455 28.4389 44.0327C27.6518 44.8198 26.7278 45.2133 25.6669 45.2133ZM56.4672 45.2133C55.4063 45.2133 54.4823 44.8198 53.6951 44.0327C52.908 43.2455 52.5145 42.3215 52.5145 41.2606C52.5145 40.1997 52.908 39.2757 53.6951 38.4886C54.4823 37.7015 55.4063 37.3079 56.4672 37.3079C57.5281 37.3079 58.4521 37.7015 59.2392 38.4886C60.0263 39.2757 60.4199 40.1997 60.4199 41.2606C60.4199 42.3215 60.0263 43.2455 59.2392 44.0327C58.4521 44.8198 57.5281 45.2133 56.4672 45.2133ZM8.29554 92.5944C5.99579 92.5944 4.03826 91.7868 2.42296 90.1715C0.807652 88.5562 0 86.6003 0 84.304V63.9656C0 62.7815 0.357626 61.7428 1.07288 60.8496C1.78471 59.9598 2.74294 59.3952 3.94757 59.1556H5.13338V36.1273C5.13338 31.1376 6.07108 26.4697 7.94647 22.1234C9.82187 17.7771 12.3903 13.9733 15.6517 10.7119C18.9131 7.45049 22.734 4.88209 27.1145 3.0067C31.495 1.1313 36.1458 0.193604 41.067 0.193604C46.0567 0.193604 50.7246 1.1313 55.0709 3.0067C59.4172 4.88209 63.221 7.45049 66.4824 10.7119C69.7438 13.9733 72.3122 17.7771 74.1876 22.1234C76.063 26.4697 77.0007 31.1376 77.0007 36.1273V59.1607H78.089C79.2936 59.3969 80.2689 59.9615 81.015 60.8547C81.761 61.7445 82.1341 62.7815 82.1341 63.9656V84.304C82.1341 86.5969 81.3264 88.5527 79.7111 90.1715C78.0958 91.7868 76.14 92.5944 73.8437 92.5944H8.29554ZM5.13338 63.9656V84.304C5.13338 85.2246 5.4294 85.9809 6.02145 86.573C6.6135 87.165 7.37153 87.461 8.29554 87.461H17.9668V63.9656H5.13338ZM23.1002 87.461H38.5003V63.9656H23.1002V87.461ZM10.2668 58.8322H38.5003V5.51692C31.2109 5.92417 24.683 8.97168 18.9165 14.6595C13.15 20.3507 10.2668 27.5066 10.2668 36.1273V58.8322ZM43.6337 58.8322H71.8673V36.1273C71.8673 27.5032 68.9858 20.3472 63.2227 14.6595C57.4528 8.97168 50.9231 5.92417 43.6337 5.51692V58.8322ZM43.6337 87.461H59.0339V63.9656H43.6337V87.461ZM64.1672 87.461H73.8437C74.7643 87.461 75.5206 87.165 76.1126 86.573C76.7047 85.9809 77.0007 85.2246 77.0007 84.304V63.9656H64.1672V87.461Z" fill="#FFED00" fill-opacity="0.55"/>
</svg>
