<svg width="72" height="93" viewBox="0 0 72 93" fill="none" xmlns="http://www.w3.org/2000/svg">
<path d="M16.4365 25.6676V12.2438H21.5699V25.6676H16.4365ZM16.4365 67.3301V45.0153H21.5699V67.3301H16.4365ZM8.34632 92.4016C6.04657 92.4016 4.08904 91.5939 2.47374 89.9786C0.858434 88.3633 0.0507812 86.4075 0.0507812 84.1111V8.29114C0.0507812 5.99823 0.858434 4.04241 2.47374 2.42369C4.08904 0.808383 6.04657 0.000732422 8.34632 0.000732422H63.6277C65.9206 0.000732422 67.8764 0.808383 69.4951 2.42369C71.1105 4.03899 71.9181 5.99652 71.9181 8.29627V84.1111C71.9181 86.4041 71.1105 88.3599 69.4951 89.9786C67.8798 91.5939 65.924 92.4016 63.6277 92.4016H8.34632ZM8.34632 87.2682H63.6277C64.5483 87.2682 65.3046 86.9721 65.8966 86.3801C66.4887 85.788 66.7847 85.0317 66.7847 84.1111V37.9107H5.18416V84.1111C5.18416 85.0317 5.48019 85.788 6.07224 86.3801C6.66429 86.9721 7.42232 87.2682 8.34632 87.2682ZM5.18416 32.7774H66.7847V8.29114C66.7847 7.37055 66.4887 6.61423 65.8966 6.02219C65.3046 5.43014 64.5483 5.13411 63.6277 5.13411H8.34119C7.4206 5.13411 6.66429 5.43014 6.07224 6.02219C5.48019 6.61423 5.18416 7.37227 5.18416 8.29627V32.7774Z" fill="#FFED00" fill-opacity="0.55"/>
</svg>
