<svg width="91" height="99" viewBox="0 0 91 99" fill="none" xmlns="http://www.w3.org/2000/svg">
<path d="M45.422 27.2543V29.267M45.422 27.2543C45.422 20.8487 47.9666 14.7055 52.496 10.176C57.0255 5.64655 63.1687 3.10193 69.5744 3.10193H71.5871V29.267C71.5871 36.2064 68.8304 42.8616 63.9235 47.7685C59.0166 52.6754 52.3614 55.4321 45.422 55.4321M45.422 27.2543C45.422 20.8487 42.8773 14.7055 38.3479 10.176C33.8184 5.64655 27.6752 3.10193 21.2696 3.10193H19.2569V29.267C19.2569 36.2064 22.0135 42.8616 26.9204 47.7685C31.8274 52.6754 38.4826 55.4321 45.422 55.4321M45.422 55.4321V93.6734M45.422 55.4321V91.6607M45.422 95.6861H27.3077C20.9021 95.6861 14.7588 93.1415 10.2293 88.612C5.69989 84.0826 3.15527 77.9393 3.15527 71.5337H21.2696C27.6752 71.5337 33.8184 74.0783 38.3479 78.6078C42.8773 83.1372 45.422 89.2805 45.422 95.6861ZM45.422 95.6861H63.5363C69.9419 95.6861 76.0851 93.1415 80.6146 88.612C85.144 84.0826 87.6887 77.9393 87.6887 71.5337H69.5744C63.1687 71.5337 57.0255 74.0783 52.496 78.6078C47.9666 83.1372 45.422 89.2805 45.422 95.6861Z" stroke="#FFED00" stroke-opacity="0.55" stroke-width="5.13339"/>
</svg>
