<svg width="44" height="30" viewBox="0 0 44 30" fill="none" xmlns="http://www.w3.org/2000/svg">
<path d="M0.745117 27.7111V17.0659C0.745117 16.1078 0.940279 15.2385 1.3306 14.4578C1.72093 13.6772 2.23545 12.9852 2.87416 12.382V6.42069C2.87416 4.64649 3.49513 3.13842 4.73707 1.89648C5.97901 0.65454 7.48708 0.0335693 9.26128 0.0335693H17.7774C18.5936 0.0335693 19.3565 0.184731 20.0662 0.487055C20.7758 0.789379 21.4323 1.20596 22.0355 1.7368C22.6388 1.20454 23.2952 0.787959 24.0049 0.487055C24.7146 0.18615 25.4775 0.0349887 26.2936 0.0335693H34.8098C36.584 0.0335693 38.092 0.65454 39.334 1.89648C40.5759 3.13842 41.1969 4.64649 41.1969 6.42069V12.382C41.8356 12.9852 42.3501 13.6772 42.7405 14.4578C43.1308 15.2385 43.3259 16.1078 43.3259 17.0659V27.7111C43.3259 28.3143 43.1216 28.8203 42.7128 29.2291C42.304 29.6379 41.7987 29.8416 41.1969 29.8401C40.5951 29.8387 40.0898 29.6343 39.681 29.227C39.2722 28.8196 39.0679 28.3143 39.0679 27.7111V25.5821H5.0032V27.7111C5.0032 28.3143 4.79881 28.8203 4.39004 29.2291C3.98126 29.6379 3.47597 29.8416 2.87416 29.8401C2.27235 29.8387 1.76706 29.6343 1.35828 29.227C0.949505 28.8196 0.745117 28.3143 0.745117 27.7111ZM24.1646 10.6788H36.9388V6.42069C36.9388 5.81746 36.7344 5.31217 36.3257 4.90482C35.9169 4.49746 35.4116 4.29307 34.8098 4.29165H26.2936C25.6904 4.29165 25.1851 4.49604 24.7777 4.90482C24.3704 5.31359 24.166 5.81888 24.1646 6.42069V10.6788ZM7.13224 10.6788H19.9065V6.42069C19.9065 5.81746 19.7021 5.31217 19.2933 4.90482C18.8845 4.49746 18.3793 4.29307 17.7774 4.29165H9.26128C8.65805 4.29165 8.15276 4.49604 7.7454 4.90482C7.33805 5.31359 7.13366 5.81888 7.13224 6.42069V10.6788ZM5.0032 21.324H39.0679V17.0659C39.0679 16.4627 38.8635 15.9574 38.4547 15.55C38.0459 15.1427 37.5406 14.9383 36.9388 14.9369H7.13224C6.52901 14.9369 6.02372 15.1412 5.61636 15.55C5.20901 15.9588 5.00462 16.4641 5.0032 17.0659V21.324Z" fill="black"/>
</svg>
