<svg width="30" height="30" viewBox="0 0 30 30" fill="none" xmlns="http://www.w3.org/2000/svg">
<path d="M28.0044 16.4486H4.40325V5.38559C4.40212 4.96897 4.48363 4.55626 4.64307 4.17134C4.80251 3.78643 5.03671 3.43697 5.33212 3.14318L5.3567 3.11859C5.81966 2.6563 6.41406 2.34821 7.05869 2.23643C7.70333 2.12464 8.36675 2.2146 8.95834 2.49402C8.39963 3.42294 8.16741 4.51194 8.29857 5.58797C8.42973 6.664 8.91674 7.66533 9.68223 8.43285L10.3553 9.10591L9.11641 10.3448L10.507 11.7355L11.7459 10.4966L18.6105 3.63216L19.8493 2.39329L18.4587 1.0026L17.2197 2.24148L16.5467 1.56841C15.7408 0.764826 14.6786 0.269465 13.545 0.168652C12.4114 0.0678402 11.2784 0.367969 10.3434 1.01674C9.35748 0.394081 8.18907 0.125275 7.03014 0.254479C5.87121 0.383683 4.79069 0.903213 3.96608 1.72772L3.94149 1.75231C3.46285 2.22831 3.08337 2.79453 2.82504 3.41819C2.5667 4.04185 2.43464 4.71055 2.43649 5.38559V16.4486H0.469727V18.4154H2.43649V20.3023C2.4365 20.4608 2.46207 20.6183 2.51221 20.7687L4.34179 26.2572C4.43944 26.551 4.62718 26.8066 4.87836 26.9877C5.12954 27.1688 5.43138 27.2661 5.74102 27.2658H6.53387L5.81686 29.7243H7.86555L8.58262 27.2658H21.3727L22.1103 29.7243H24.1631L23.4255 27.2658H24.6996C25.0093 27.2661 25.3112 27.1688 25.5624 26.9878C25.8137 26.8067 26.0014 26.5511 26.0991 26.2572L27.9286 20.7687C27.9787 20.6183 28.0044 20.4608 28.0044 20.3023V18.4154H29.9712V16.4486H28.0044ZM11.073 2.9591C11.6149 2.41844 12.3491 2.1148 13.1145 2.1148C13.8799 2.1148 14.6141 2.41844 15.156 2.9591L15.8289 3.63216L11.7461 7.71498L11.073 7.04204C10.5324 6.50018 10.2288 5.766 10.2288 5.00057C10.2288 4.23513 10.5324 3.50096 11.073 2.9591ZM26.0376 20.2224L24.3455 25.2991H6.09541L4.40325 20.2224V18.4154H26.0376V20.2224Z" fill="black"/>
</svg>
