<svg width="24" height="30" viewBox="0 0 24 30" fill="none" xmlns="http://www.w3.org/2000/svg">
<path d="M12.0501 0C5.47785 0 0.100586 5.37727 0.100586 11.9495C0.100586 20.0154 10.5564 29.1269 11.0045 29.575C11.3032 29.7243 11.7513 29.8737 12.0501 29.8737C12.3488 29.8737 12.7969 29.7243 13.0956 29.575C13.5438 29.1269 23.9996 20.0154 23.9996 11.9495C23.9996 5.37727 18.6223 0 12.0501 0ZM12.0501 26.4382C8.91333 23.4509 3.08796 17.028 3.08796 11.9495C3.08796 7.02032 7.12091 2.98737 12.0501 2.98737C16.9792 2.98737 21.0122 7.02032 21.0122 11.9495C21.0122 16.8786 15.1868 23.4509 12.0501 26.4382ZM12.0501 5.97474C8.76396 5.97474 6.07533 8.66338 6.07533 11.9495C6.07533 15.2356 8.76396 17.9242 12.0501 17.9242C15.3362 17.9242 18.0248 15.2356 18.0248 11.9495C18.0248 8.66338 15.3362 5.97474 12.0501 5.97474ZM12.0501 14.9369C10.407 14.9369 9.0627 13.5925 9.0627 11.9495C9.0627 10.3064 10.407 8.96211 12.0501 8.96211C13.6931 8.96211 15.0374 10.3064 15.0374 11.9495C15.0374 13.5925 13.6931 14.9369 12.0501 14.9369Z" fill="black"/>
</svg>
