<svg width="29" height="30" viewBox="0 0 29 30" fill="none" xmlns="http://www.w3.org/2000/svg">
<path d="M13.7903 30.007C12.9855 30.0061 12.2133 29.6888 11.6403 29.1237L0.957005 18.4237C0.682859 18.1511 0.511996 17.7917 0.473672 17.407L-0.992995 1.82367C-1.01545 1.57956 -0.983771 1.3335 -0.900226 1.10303C-0.816682 0.872561 -0.683325 0.66336 -0.509662 0.490338C-0.33664 0.316675 -0.127439 0.183318 0.103029 0.0997736C0.333498 0.0162288 0.579558 -0.0154468 0.823672 0.00700492L16.407 1.47367C16.7917 1.512 17.1511 1.68286 17.4237 1.95701L28.1237 12.6403C28.6906 13.2089 29.0089 13.9791 29.0089 14.782C29.0089 15.5849 28.6906 16.3551 28.1237 16.9237L15.9237 29.1237C15.3568 29.6878 14.5901 30.0053 13.7903 30.007ZM3.79034 16.4903L13.7903 26.4903L25.5403 14.7403L15.5403 4.74034L2.52367 3.52367L3.79034 16.4903Z" fill="#1D1D1B"/>
</svg>
