<svg width="109" height="98" viewBox="0 0 109 98" fill="none" xmlns="http://www.w3.org/2000/svg">
<path d="M3.16699 90.2662C4.33313 91.8908 5.87723 93.2072 7.66594 94.1015C9.45466 94.9959 11.4342 95.4414 13.4336 95.3995C15.433 95.4414 17.4125 94.9959 19.2013 94.1015C20.99 93.2072 22.5341 91.8908 23.7002 90.2662C24.8663 88.6415 26.4105 87.3252 28.1992 86.4308C29.9879 85.5365 31.9674 85.091 33.9668 85.1329C35.9662 85.091 37.9458 85.5365 39.7345 86.4308C41.5232 87.3252 43.0673 88.6415 44.2334 90.2662C45.3996 91.8908 46.9437 93.2072 48.7324 94.1015C50.5211 94.9959 52.5006 95.4414 54.5 95.3995C56.4994 95.4414 58.479 94.9959 60.2677 94.1015C62.0564 93.2072 63.6005 91.8908 64.7666 90.2662C65.9328 88.6415 67.4769 87.3252 69.2656 86.4308C71.0543 85.5365 73.0339 85.091 75.0333 85.1329C77.0327 85.091 79.0122 85.5365 80.8009 86.4308C82.5896 87.3252 84.1337 88.6415 85.2999 90.2662C86.466 91.8908 88.0101 93.2072 89.7988 94.1015C91.5875 94.9959 93.5671 95.4414 95.5665 95.3995C97.5659 95.4414 99.5454 94.9959 101.334 94.1015C103.123 93.2072 104.667 91.8908 105.833 90.2662M3.16699 69.733C4.33313 71.3576 5.87723 72.674 7.66594 73.5683C9.45466 74.4627 11.4342 74.9081 13.4336 74.8663C15.433 74.9081 17.4125 74.4627 19.2013 73.5683C20.99 72.674 22.5341 71.3576 23.7002 69.733C24.8663 68.1083 26.4105 66.792 28.1992 65.8976C29.9879 65.0032 31.9674 64.5578 33.9668 64.5997C35.9662 64.5578 37.9458 65.0032 39.7345 65.8976C41.5232 66.792 43.0673 68.1083 44.2334 69.733C45.3996 71.3576 46.9437 72.674 48.7324 73.5683C50.5211 74.4627 52.5006 74.9081 54.5 74.8663C56.4994 74.9081 58.479 74.4627 60.2677 73.5683C62.0564 72.674 63.6005 71.3576 64.7666 69.733C65.9328 68.1083 67.4769 66.792 69.2656 65.8976C71.0543 65.0032 73.0339 64.5578 75.0333 64.5997C77.0327 64.5578 79.0122 65.0032 80.8009 65.8976C82.5896 66.792 84.1337 68.1083 85.2999 69.733C86.466 71.3576 88.0101 72.674 89.7988 73.5683C91.5875 74.4627 93.5671 74.9081 95.5665 74.8663C97.5659 74.9081 99.5454 74.4627 101.334 73.5683C103.123 72.674 104.667 71.3576 105.833 69.733M69.9 49.1997V10.7C69.9 8.6578 70.7112 6.69929 72.1552 5.25527C73.5992 3.81124 75.5578 3 77.5999 3C79.6421 3 81.6006 3.81124 83.0446 5.25527C84.4886 6.69929 85.2999 8.6578 85.2999 10.7M39.1001 49.1997V10.7C39.1001 8.6578 38.2889 6.69929 36.8449 5.25527C35.4008 3.81124 33.4423 3 31.4002 3C29.358 3 27.3995 3.81124 25.9555 5.25527C24.5115 6.69929 23.7002 8.6578 23.7002 10.7M69.9 13.2666H39.1001M39.1001 38.9331H69.9" stroke="#FFED00" stroke-opacity="0.55" stroke-width="5.13338" stroke-linecap="round" stroke-linejoin="round"/>
</svg>
