<svg width="119" height="97" viewBox="0 0 119 97" fill="none" xmlns="http://www.w3.org/2000/svg">
<path d="M115.3 61.3852C114.807 61.3852 114.336 61.5807 113.988 61.9286C113.64 62.2765 113.444 62.7484 113.444 63.2404V72.5165H90.8617C90.3711 72.5157 89.9008 72.3206 89.5538 71.9739L79.7304 62.1551L104.395 37.4947C104.914 36.9776 105.326 36.3632 105.607 35.6867C105.888 35.0102 106.032 34.2849 106.032 33.5523C106.032 32.8198 105.888 32.0945 105.607 31.418C105.326 30.7415 104.914 30.1271 104.395 29.61L78.4225 3.63698C77.9054 3.11811 77.291 2.70642 76.6145 2.42551C75.938 2.1446 75.2126 2 74.4801 2C73.7476 2 73.0223 2.1446 72.3458 2.42551C71.6693 2.70642 71.0549 3.11811 70.5378 3.63698L2.94764 71.4776C2.55895 71.8668 2.2943 72.3624 2.18713 72.9019C2.07995 73.4414 2.13506 74.0005 2.34548 74.5087C2.55591 75.0169 2.91221 75.4514 3.36939 75.7572C3.82658 76.063 4.36413 76.2265 4.91417 76.2269H23.9301L40.8497 93.1512C41.3668 93.67 41.9812 94.0817 42.6577 94.3626C43.3342 94.6435 44.0595 94.7881 44.792 94.7881C45.5246 94.7881 46.2499 94.6435 46.9264 94.3626C47.6029 94.0817 48.2173 93.67 48.7344 93.1512L77.1099 64.7756L86.9286 74.5944C87.4434 75.1134 88.0562 75.525 88.7314 75.8052C89.4065 76.0855 90.1307 76.2289 90.8617 76.2269H113.444V85.503C113.444 85.9951 113.64 86.4669 113.988 86.8149C114.336 87.1628 114.807 87.3582 115.3 87.3582C115.792 87.3582 116.263 87.1628 116.611 86.8149C116.959 86.4669 117.155 85.9951 117.155 85.503V63.2404C117.155 62.7484 116.959 62.2765 116.611 61.9286C116.263 61.5807 115.792 61.3852 115.3 61.3852ZM73.1722 6.27139C73.5259 5.93398 73.9959 5.74574 74.4848 5.74574C74.9736 5.74574 75.4436 5.93398 75.7973 6.27139L82.9909 13.4696L23.9301 72.5165H7.1497L73.1722 6.27139ZM46.1139 90.526C45.7602 90.8634 45.2901 91.0517 44.8013 91.0517C44.3125 91.0517 43.8424 90.8634 43.4887 90.526L27.3345 74.3717L85.6161 16.0901L101.77 32.2444C101.943 32.4167 102.08 32.6213 102.173 32.8465C102.266 33.0718 102.314 33.3132 102.314 33.557C102.314 33.8008 102.266 34.0422 102.173 34.2674C102.08 34.4926 101.943 34.6972 101.77 34.8695L46.1139 90.526Z" fill="#FFED00" fill-opacity="0.55" stroke="#FFED00" stroke-opacity="0.55" stroke-width="2.56671"/>
</svg>
