<svg width="99" height="99" viewBox="0 0 99 99" fill="none" xmlns="http://www.w3.org/2000/svg">
<path d="M37.4479 77.516V51.4027M37.4479 51.4027V23.2807H55.5264C57.3729 23.2807 59.2013 23.6444 60.9073 24.3511C62.6132 25.0577 64.1633 26.0934 65.469 27.3991C66.7747 28.7048 67.8104 30.2549 68.517 31.9608C69.2236 33.6668 69.5873 35.4952 69.5873 37.3417C69.5873 39.1882 69.2236 41.0167 68.517 42.7226C67.8104 44.4286 66.7747 45.9787 65.469 47.2844C64.1633 48.59 62.6132 49.6258 60.9073 50.3324C59.2013 51.039 57.3729 51.4027 55.5264 51.4027H37.4479ZM49.5002 95.5944C23.9855 95.5944 3.2998 74.9087 3.2998 49.394C3.2998 23.8793 23.9855 3.1936 49.5002 3.1936C75.0149 3.1936 95.7006 23.8793 95.7006 49.394C95.7006 74.9087 75.0149 95.5944 49.5002 95.5944Z" stroke="#FFED00" stroke-opacity="0.55" stroke-width="5.13338"/>
</svg>
