<svg width="50" height="50" viewBox="0 0 50 50" fill="none" xmlns="http://www.w3.org/2000/svg">
<path d="M44.9491 1.17294C42.875 0.71468 33.4273 0.010298 25.1054 0C16.6533 0.010298 7.11573 0.71468 5.05204 1.17294C4.05015 1.39435 0.996957 2.07092 1.00006 5.60416C0.996957 10.1497 1.11574 32.9896 3.45727 36.1799C7.51339 41.7192 23.9279 48.8341 24.6344 49.1348C24.8565 49.2347 25.1198 49.2357 25.3657 49.1348C26.0773 48.8372 43.125 41.7079 46.5686 36.1274C48.811 32.4943 48.9917 5.86882 49 5.60313C48.9938 2.07092 45.9406 1.39435 44.9491 1.17294ZM25.3667 47.416C25.3667 47.4232 25.3667 47.4232 25.3667 47.416V47.416Z" fill="white"/>
<path d="M44.9757 35.1636C42.1043 39.8069 27.5056 46.1937 25.0009 47.2585C22.5488 46.1783 8.41285 39.7863 4.97439 35.0853C3.4385 32.9979 2.86732 15.894 2.85596 5.60422C2.86732 4.11822 3.56968 3.41075 5.47017 2.9978C7.2302 2.59927 16.5209 1.87429 25.1052 1.87635C33.5552 1.87429 42.7602 2.59927 44.5316 2.9978C46.4218 3.41075 47.1241 4.11822 47.12 5.60422C47.1241 10.9108 46.5633 32.5839 44.9757 35.1636Z" fill="#1E1E1E"/>
<path d="M25.7593 12.9807C26.0145 12.1023 27.9428 10.8346 28.2434 11.1044C28.2321 10.78 29.6347 9.49892 30.1522 9.72239C30.0272 9.33415 31.9504 8.13444 32.4007 8.47118C32.5123 7.98409 35.299 7.61645 35.8516 8.07986C36.1697 7.72458 38.6414 8.32186 38.7013 8.94077C39.1568 8.5443 41.6781 11.2012 41.6822 12.5379C41.6822 13.06 39.3107 10.952 37.813 11.4164C35.3445 12.1661 32.1962 14.79 29.4725 18.7414C28.7113 19.8154 26.7623 20.2078 26.3347 18.4551C26.3347 18.4561 25.4939 13.8642 25.7593 12.9807Z" fill="white"/>
<path d="M25.5506 37.4836C25.1539 36.8276 25.2769 36.0419 25.6022 35.7371C26.0629 35.2953 27.3819 35.6516 27.4852 35.2417C27.7454 34.3036 27.0761 33.972 27.198 32.6611C27.2311 32.2069 28.0997 28.891 28.3218 28.5944C28.5056 28.3513 29.616 27.9652 29.9165 27.8395C30.0994 27.6325 30.2285 27.3823 30.2305 26.9529C28.7886 26.5018 28.3992 27.8478 28.1916 27.788C27.983 27.7448 28.298 26.3226 28.4788 26.1723C28.6606 26.0127 30.3628 25.6358 30.5445 25.3371C30.7563 25.021 31.5413 21.9954 30.5445 21.9491C30.6334 21.9614 30.5032 21.7442 30.5704 21.7658C32.6196 22.2374 33.9985 12.5048 39.0152 12.5388C44.0081 12.5831 43.7478 19.7844 43.4597 20.046C42.8874 20.5516 42.0611 20.3673 42.0219 20.8276C41.774 25.2321 37.8263 29.9455 36.6365 29.5346C35.9176 29.2833 36.529 27.0456 36.872 27.0054C36.5549 26.8633 36.8668 24.5596 37.2376 24.503C36.9443 24.3001 37.2035 22.1767 37.5774 22.1571C37.3905 21.9903 37.4101 20.5362 37.029 19.8112C36.749 19.2572 35.5127 18.9585 35.4342 20.3066C36.1913 19.9492 36.2429 22.3847 35.931 22.809C35.6201 23.2137 33.6205 24.1456 33.0028 24.6595C33.0482 25.6986 32.0618 29.686 31.3295 30.8383C30.6075 31.9659 29.8804 32.6394 29.4734 33.6795C29.0489 34.7104 29.3154 36.4765 28.3755 37.2766C27.9551 37.6267 25.721 37.7833 25.5506 37.4836Z" fill="white"/>
<path d="M42.6746 21.1666C42.9163 20.7701 43.8748 20.6125 44.2177 20.802C44.6268 21.0306 44.9273 24.1973 44.5049 24.2951C44.8746 24.4846 44.414 26.8871 43.9554 26.9015C44.319 27.0457 43.566 29.4019 43.1188 29.3257C43.3832 29.6871 42.1633 31.6026 41.838 31.4903C41.7223 33.4675 35.7698 34.4077 35.9031 32.7415C35.9681 31.9424 36.8585 33.1194 40.8712 26.9026C42.6312 24.1427 42.3338 21.7608 42.6746 21.1666ZM24.2687 13.0075C23.8576 12.093 22.1513 10.8768 21.8631 11.1569C21.8631 10.8222 20.4605 9.54118 19.9544 9.77494C20.068 9.37538 18.1437 8.17567 17.68 8.52374C17.5829 8.02635 14.7962 7.65871 14.255 8.13242C13.9255 7.76684 11.4538 8.36412 11.4052 8.9923C10.9384 8.58553 8.41713 11.2424 8.42436 12.5904C8.413 13.1022 10.7845 10.9932 12.2677 11.4432C14.7507 12.2073 17.899 14.8323 20.634 18.7682C21.3839 19.8587 23.2906 20.2501 23.7192 18.4809C23.7203 18.4809 24.6891 13.9055 24.2687 13.0075Z" fill="white"/>
<path d="M24.4775 37.5104C24.8627 36.8184 24.7925 36.0574 24.4516 35.7381C24.0065 35.3118 22.7133 35.6938 22.5955 35.2953C22.3497 34.3458 23.0201 34.0142 22.9095 32.7146C22.8651 32.2492 21.9965 28.9342 21.7858 28.648C21.5895 28.3936 20.4802 28.0074 20.191 27.8921C19.9968 27.6748 19.8687 27.4235 19.8512 26.9797C21.3086 26.5431 21.698 27.89 21.9169 27.8406C22.1132 27.786 21.7992 26.3639 21.6298 26.1981C21.4356 26.0529 19.7593 25.6512 19.5382 25.3897C19.31 25.0849 18.556 22.0377 19.5382 21.9759C19.4639 22.0037 19.594 21.7854 19.5124 21.7926C17.4776 22.2797 16.0987 12.546 11.0676 12.5913C6.08911 12.6243 6.3494 19.8257 6.64893 20.0986C7.20875 20.5939 8.03609 20.4096 8.06088 20.8802C8.3222 25.2743 12.2709 29.9877 13.4732 29.5604C14.1807 29.3245 13.5692 27.0878 13.2377 27.0322C13.5434 26.9066 13.2325 24.6019 12.872 24.5566C13.154 24.3424 12.8937 22.2189 12.5312 22.1839C12.7057 22.0325 12.6871 20.5774 13.0538 19.8638C13.3472 19.2984 14.5845 18.9998 14.6486 20.3591C13.907 19.9915 13.8543 22.4259 14.1786 22.8348C14.4782 23.2539 16.4778 24.1858 17.1058 24.711C17.049 25.7398 18.0354 29.7272 18.7532 30.8631C19.4897 32.0061 20.2168 32.6807 20.6351 33.7053C21.0514 34.7608 21.2456 36.8277 21.7589 37.3024C22.2196 37.7205 24.306 37.8307 24.4775 37.5104ZM25.0538 39.5175C23.49 39.5463 22.1225 38.4393 22.3869 38.1355C22.9333 37.5712 23.866 38.4074 24.9753 37.9275C26.0743 38.3816 26.9832 37.5732 27.6938 38.1098C28.1018 38.4022 26.6062 39.4959 25.0538 39.5175Z" fill="white"/>
<path d="M7.4062 21.2179C7.17896 20.8101 6.22148 20.7576 5.86307 20.9574C5.46851 21.1737 5.16795 24.2373 5.57593 24.3454C5.22062 24.5246 5.68129 26.9271 6.15125 26.9271C5.77735 27.0857 6.53031 29.4419 6.96206 29.377C6.7121 29.7272 7.93193 31.6436 8.26968 31.5406C8.37504 33.5086 14.3265 34.4478 14.2046 32.7929C14.1282 31.9824 13.2378 33.1595 9.23749 26.9282C7.46404 24.1838 7.76254 21.8029 7.4062 21.2179Z" fill="white"/>
</svg>
