<svg width="50" height="50" viewBox="0 0 50 50" fill="none" xmlns="http://www.w3.org/2000/svg">
<path d="M25.1692 2C12.2974 2 2 12.4329 2 25.1692C2 37.9055 12.2974 48.4739 25.1692 48.4739C38.041 48.4739 48.4739 38.041 48.4739 25.1692C48.4739 12.2974 38.041 2 25.1692 2ZM25.1692 42.9187C15.4138 42.9187 7.4197 34.9247 7.4197 25.1692C7.4197 15.4138 15.4138 7.4197 25.1692 7.4197C34.9247 7.4197 42.9187 15.4138 42.9187 25.1692C42.9187 35.0602 34.9247 42.9187 25.1692 42.9187Z" fill="url(#paint0_radial_130_144)" stroke="black" stroke-width="1.33352" stroke-miterlimit="10"/>
<path d="M25.3047 42.7833C35.0327 42.7833 42.9187 34.8972 42.9187 25.1693C42.9187 15.4413 35.0327 7.55524 25.3047 7.55524C15.5767 7.55524 7.69067 15.4413 7.69067 25.1693C7.69067 34.8972 15.5767 42.7833 25.3047 42.7833Z" fill="url(#paint1_radial_130_144)"/>
<path d="M23.9499 24.7629H22.7305L17.0398 12.0266L17.5818 10.6716L23.9499 24.7629Z" fill="#BFBBB9"/>
<path d="M25.3049 6.33582C14.872 6.33582 6.47144 14.7364 6.47144 25.1693C6.47144 35.6022 14.872 44.0027 25.3049 44.0027C35.7378 44.0027 44.1384 35.6022 44.1384 25.1693C44.1384 14.8718 35.7378 6.33582 25.3049 6.33582ZM29.7762 9.31665L25.3049 19.6141L20.6982 9.31665C22.1886 8.91017 23.8145 8.63919 25.3049 8.63919C26.7953 8.77468 28.2857 8.91017 29.7762 9.31665ZM17.5818 10.6716L23.95 24.7628H26.3888L32.8925 10.5361C35.3313 11.7555 37.3637 13.6524 38.9896 15.9558L30.5891 34.6538L26.3888 25.5758H23.8145L19.8852 34.5183L11.6202 15.9558C13.1106 13.7879 15.143 11.891 17.5818 10.6716ZM8.77481 25.3048C8.77481 23.2724 9.18129 21.3755 9.72326 19.7496L19.0722 40.6154C12.9751 38.1766 8.77481 32.2149 8.77481 25.3048ZM20.4272 41.0219L25.1694 30.589L29.9116 41.0219C28.4212 41.4284 26.7953 41.6994 25.1694 41.6994C23.5435 41.8349 21.9176 41.5639 20.4272 41.0219ZM31.4021 40.6154L40.751 19.4786C41.4285 21.24 41.835 23.2724 41.835 25.3048C41.835 32.2149 37.4992 38.1766 31.4021 40.6154Z" fill="url(#paint2_linear_130_144)"/>
<path d="M17.0398 12.0266L17.4463 10.6716C15.1429 11.8911 13.1105 13.788 11.6201 15.9558H12.8396C13.9235 14.3299 15.4139 13.1105 17.0398 12.0266Z" fill="#544E4E"/>
<mask id="mask0_130_144" style="mask-type:luminance" maskUnits="userSpaceOnUse" x="11" y="10" width="7" height="6">
<path d="M17.0398 12.0267L17.4463 10.6718C15.1429 11.8912 13.1105 13.7881 11.6201 15.956H12.8396C13.9235 14.3301 15.4139 13.1106 17.0398 12.0267V12.0267Z" fill="white"/>
</mask>
<g mask="url(#mask0_130_144)">
<path d="M17.7172 10.9425C14.7364 12.7039 13.6525 13.5168 11.7556 16.2267L10.8071 16.0912V15.6847L12.704 13.5168L14.7364 11.4844L16.4978 10.536L17.5818 10.265L17.9882 10.536L17.7172 10.9425Z" fill="#352D2B"/>
</g>
<path d="M23.8145 25.5758H22.5951L19.8853 31.8085V34.6538L23.8145 25.5758Z" fill="url(#paint3_linear_130_144)"/>
<path d="M19.8852 31.8084L12.7041 15.9558H11.4846L19.7497 34.6538L19.8852 31.8084Z" fill="white"/>
<mask id="mask1_130_144" style="mask-type:luminance" maskUnits="userSpaceOnUse" x="11" y="15" width="9" height="20">
<path d="M19.8852 31.8083L12.7041 15.9557H11.4846L19.7497 34.6537L19.8852 31.8083Z" fill="white"/>
</mask>
<g mask="url(#mask1_130_144)">
<path d="M20.0206 34.6539L11.8911 15.6849L11.2136 15.8204L10.8071 20.0207L12.433 28.4212L14.0589 30.7246L16.2268 32.6215L19.6141 34.5184L20.0206 34.6539Z" fill="#979190"/>
</g>
<path d="M25.3047 40.7508C26.7952 40.7508 28.1501 40.4798 29.505 40.2088L29.9115 41.1573C28.4211 41.5637 26.7952 41.8347 25.1693 41.8347C23.5433 41.8347 21.9174 41.5637 20.2915 41.1573L20.698 40.2088C22.1884 40.4798 23.6788 40.7508 25.3047 40.7508ZM18.9366 40.6153L18.2591 38.9894C13.2459 36.415 9.7231 31.2663 9.7231 25.1691C9.7231 23.8142 9.85859 22.3238 10.2651 21.1044L9.58761 19.6139C8.91015 21.3754 8.63916 23.2722 8.63916 25.1691C8.77465 32.2148 12.9749 38.1764 18.9366 40.6153ZM41.8348 25.3046C41.8348 23.2722 41.4284 21.2399 40.7509 19.4785L40.0734 20.9689C40.4799 22.3238 40.6154 23.8142 40.6154 25.3046C40.6154 31.4018 37.0926 36.5505 32.0794 39.1249L31.4019 40.6153C37.4991 38.1764 41.8348 32.2148 41.8348 25.3046Z" fill="url(#paint4_linear_130_144)"/>
<mask id="mask2_130_144" style="mask-type:luminance" maskUnits="userSpaceOnUse" x="8" y="19" width="34" height="23">
<path d="M25.3047 40.7504C26.7952 40.7504 28.1501 40.4794 29.505 40.2084L29.9115 41.1569C28.4211 41.5634 26.7952 41.8344 25.1693 41.8344C23.5433 41.8344 21.9174 41.5634 20.2915 41.1569L20.698 40.2084C22.1884 40.4794 23.6788 40.7504 25.3047 40.7504V40.7504ZM18.9366 40.6149L18.2591 38.989C13.2459 36.4147 9.7231 31.2659 9.7231 25.1688C9.7231 23.8138 9.85859 22.3234 10.2651 21.104L9.58761 19.6136C8.91015 21.375 8.63916 23.2719 8.63916 25.1688C8.77465 32.2144 12.9749 38.1761 18.9366 40.6149ZM41.8348 25.3043C41.8348 23.2719 41.4284 21.2395 40.7509 19.4781L40.0734 20.9685C40.4799 22.3234 40.6154 23.8138 40.6154 25.3043C40.6154 31.4014 37.0926 36.5501 32.0794 39.1245L31.4019 40.6149C37.4991 38.1761 41.8348 32.2144 41.8348 25.3043V25.3043Z" fill="white"/>
</mask>
<g mask="url(#mask2_130_144)">
<path d="M41.8348 25.3045C41.8348 32.2146 37.4991 38.1762 31.5374 40.6151L31.6729 40.2086C37.4991 37.7698 41.5639 31.9436 41.5639 25.3045C41.5639 23.4076 41.2929 21.5107 40.6154 19.8847L40.7509 19.4783C41.4284 21.2397 41.8348 23.2721 41.8348 25.3045ZM9.04564 25.3045C9.04564 23.4076 9.31663 21.6462 9.8586 20.0202L9.72311 19.6138C9.04564 21.3752 8.77466 23.2721 8.77466 25.169C8.77466 32.0791 12.9749 38.0408 19.0721 40.4796L18.8011 40.2086C12.9749 37.7698 9.04564 31.9436 9.04564 25.3045ZM25.3047 41.8345C23.6788 41.8345 22.0529 41.5636 20.427 41.1571L20.5625 40.8861C22.0529 41.2926 23.6788 41.5636 25.3047 41.5636C26.9307 41.5636 28.4211 41.2926 29.9115 40.8861L30.047 41.1571C28.4211 41.5636 26.9307 41.8345 25.3047 41.8345Z" fill="url(#paint5_linear_130_144)"/>
</g>
<path d="M25.3049 44.1382C35.7063 44.1382 44.1384 35.7062 44.1384 25.3048C44.1384 14.9033 35.7063 6.47131 25.3049 6.47131C14.9035 6.47131 6.47144 14.9033 6.47144 25.3048C6.47144 35.7062 14.9035 44.1382 25.3049 44.1382Z" stroke="black" stroke-width="1.21577" stroke-miterlimit="10"/>
<path d="M37.6346 15.8204L38.854 15.9559C37.3636 13.788 35.1957 11.8911 32.8923 10.6717L33.0278 10.9427L33.4343 12.0266C35.0602 12.9751 36.4151 14.33 37.6346 15.8204Z" fill="#5F585A"/>
<mask id="mask3_130_144" style="mask-type:luminance" maskUnits="userSpaceOnUse" x="32" y="10" width="7" height="6">
<path d="M37.6346 15.8205L38.854 15.956C37.3636 13.7881 35.1957 11.8912 32.8923 10.6718L33.0278 10.9428L33.4343 12.0267C35.0602 12.9752 36.4151 14.3301 37.6346 15.8205V15.8205Z" fill="white"/>
</mask>
<g mask="url(#mask3_130_144)">
<path d="M38.7185 16.0912C37.3636 14.0588 34.2472 11.349 32.3503 10.807L32.7568 9.72308L35.1957 10.2651L38.1765 13.5169L39.8024 15.4138V16.3622L38.7185 16.0912Z" fill="#282423"/>
</g>
<path d="M20.5625 9.4523L20.969 10.2653C22.3239 9.85878 23.8143 9.72329 25.3047 9.72329C26.6597 9.72329 28.1501 9.85878 29.3695 10.2653L29.776 9.4523C28.2856 9.04583 26.7952 8.77484 25.3047 8.77484C23.6788 8.77484 22.0529 9.04583 20.5625 9.4523Z" fill="#544D4F"/>
<mask id="mask4_130_144" style="mask-type:luminance" maskUnits="userSpaceOnUse" x="20" y="8" width="10" height="3">
<path d="M20.5625 9.4523L20.969 10.2653C22.3239 9.85878 23.8143 9.72329 25.3047 9.72329C26.6597 9.72329 28.1501 9.85878 29.3695 10.2653L29.776 9.4523C28.2856 9.04583 26.7952 8.77484 25.3047 8.77484C23.6788 8.77484 22.0529 9.04583 20.5625 9.4523Z" fill="white"/>
</mask>
<g mask="url(#mask4_130_144)">
<path d="M29.776 9.58778C26.9306 8.63933 22.4594 8.91032 20.427 9.72327L20.156 9.1813L20.969 8.50384C20.969 8.50384 22.4594 8.36835 22.5949 8.36835H26.6596L28.5565 8.50384L30.047 8.91032L30.3179 9.31679L29.776 9.58778Z" fill="#352D2B"/>
</g>
<path d="M26.3887 25.5758H27.7436L30.4534 31.673L37.6346 15.8204L38.9895 15.9559L30.5889 34.6538L26.3887 25.5758Z" fill="white"/>
<mask id="mask5_130_144" style="mask-type:luminance" maskUnits="userSpaceOnUse" x="26" y="15" width="13" height="20">
<path d="M26.3887 25.576H27.7436L30.4534 31.6731L37.6346 15.8205L38.9895 15.956L30.5889 34.654L26.3887 25.576Z" fill="white"/>
</mask>
<g mask="url(#mask5_130_144)">
<path d="M30.4534 31.1309L30.5889 34.9247L26.5242 29.6405L26.1177 25.9822L26.2532 25.0338L27.7436 25.1692L28.8275 25.8467L30.4534 31.1309Z" fill="url(#paint6_linear_130_144)"/>
</g>
<mask id="mask6_130_144" style="mask-type:luminance" maskUnits="userSpaceOnUse" x="26" y="15" width="13" height="20">
<path d="M26.3887 25.576H27.7436L30.4534 31.6732L37.6346 15.8206L38.9895 15.956L30.5889 34.654L26.3887 25.576Z" fill="white"/>
</mask>
<g mask="url(#mask6_130_144)">
<path d="M26.5242 25.5758L30.4534 34.2473L38.854 15.6848L38.9895 16.2268L35.8731 24.0854L30.9954 35.3312L29.776 34.9248L26.2532 25.8468L26.1177 25.3048L26.5242 25.5758Z" fill="url(#paint7_linear_130_144)"/>
</g>
<path d="M26.3887 24.7628L32.8923 10.5361L33.4343 11.8911L27.7436 24.7628H26.3887Z" fill="#ADA6A5"/>
<path d="M25.1692 2.1355C12.4329 2.1355 2.1355 12.4329 2.1355 25.1692C2.1355 37.9055 12.4329 48.203 25.1692 48.203C37.9055 48.203 48.203 37.9055 48.203 25.1692C48.203 12.4329 37.9055 2.1355 25.1692 2.1355ZM25.1692 47.5255C12.8394 47.5255 2.81296 37.4991 2.81296 25.1692C2.81296 12.8394 12.8394 2.81296 25.1692 2.81296C37.4991 2.81296 47.5255 12.8394 47.5255 25.1692C47.5255 37.4991 37.4991 47.5255 25.1692 47.5255Z" fill="black"/>
<path d="M25.1692 2C12.2974 2 2 12.4329 2 25.1692C2 37.9055 12.2974 48.4739 25.1692 48.4739C38.041 48.4739 48.4739 38.041 48.4739 25.1692C48.4739 12.2974 38.041 2 25.1692 2ZM25.1692 47.7965C12.7039 47.7965 2.67746 37.6345 2.67746 25.1692C2.67746 12.7039 12.7039 2.67746 25.1692 2.67746C37.6345 2.67746 47.661 12.7039 47.661 25.1692C47.661 37.6345 37.6345 47.7965 25.1692 47.7965Z" fill="url(#paint8_linear_130_144)"/>
<defs>
<radialGradient id="paint0_radial_130_144" cx="0" cy="0" r="1" gradientUnits="userSpaceOnUse" gradientTransform="translate(15.9801 15.0479) scale(30.3571)">
<stop stop-color="#386EAC"/>
<stop offset="0.213" stop-color="#366CAA"/>
<stop offset="0.349" stop-color="#3166A3"/>
<stop offset="0.464" stop-color="#295B98"/>
<stop offset="0.567" stop-color="#1D4D88"/>
<stop offset="0.661" stop-color="#0F3C75"/>
<stop offset="0.749" stop-color="#002A60"/>
<stop offset="0.788" stop-color="#002256"/>
</radialGradient>
<radialGradient id="paint1_radial_130_144" cx="0" cy="0" r="1" gradientUnits="userSpaceOnUse" gradientTransform="translate(17.9312 17.3039) scale(22.2601)">
<stop stop-color="#6895C7"/>
<stop offset="0.136" stop-color="#6490C3"/>
<stop offset="0.285" stop-color="#5882B6"/>
<stop offset="0.439" stop-color="#446CA2"/>
<stop offset="0.598" stop-color="#2C5087"/>
<stop offset="0.758" stop-color="#0F3469"/>
<stop offset="0.861" stop-color="#002256"/>
</radialGradient>
<linearGradient id="paint2_linear_130_144" x1="25.3875" y1="6.40627" x2="25.3564" y2="44.1789" gradientUnits="userSpaceOnUse">
<stop stop-color="#F8F8F7"/>
<stop offset="0.192" stop-color="#F5F5F4"/>
<stop offset="0.315" stop-color="#ECECEB"/>
<stop offset="0.418" stop-color="#DDDBDB"/>
<stop offset="0.511" stop-color="#C8C6C5"/>
<stop offset="0.596" stop-color="#AEABAB"/>
<stop offset="0.633" stop-color="#A09D9E"/>
<stop offset="0.704" stop-color="#B4B1B1"/>
<stop offset="0.807" stop-color="#CAC7C8"/>
<stop offset="0.907" stop-color="#D8D5D6"/>
<stop offset="1" stop-color="#DDDADB"/>
</linearGradient>
<linearGradient id="paint3_linear_130_144" x1="21.0126" y1="29.7192" x2="21.7821" y2="30.0335" gradientUnits="userSpaceOnUse">
<stop offset="0.76" stop-color="white"/>
<stop offset="0.84" stop-color="#FDFDFD"/>
<stop offset="0.878" stop-color="#F8F8F8"/>
<stop offset="0.906" stop-color="#EFEFF0"/>
<stop offset="0.93" stop-color="#E1E2E3"/>
<stop offset="0.952" stop-color="#CFD0D1"/>
<stop offset="0.971" stop-color="#B8B9BB"/>
<stop offset="0.988" stop-color="#9C9D9F"/>
<stop offset="1" stop-color="#848687"/>
</linearGradient>
<linearGradient id="paint4_linear_130_144" x1="8.70555" y1="30.6295" x2="41.7657" y2="30.6295" gradientUnits="userSpaceOnUse">
<stop stop-color="#7C7571"/>
<stop offset="0.021" stop-color="#8F8885"/>
<stop offset="0.061" stop-color="#AFAAA7"/>
<stop offset="0.107" stop-color="#CBC7C5"/>
<stop offset="0.16" stop-color="#E2E0DE"/>
<stop offset="0.223" stop-color="#F3F1F1"/>
<stop offset="0.308" stop-color="#FCFCFC"/>
<stop offset="0.511" stop-color="white"/>
<stop offset="0.727" stop-color="#FCFCFC"/>
<stop offset="0.805" stop-color="#F3F2F1"/>
<stop offset="0.861" stop-color="#E4E1E0"/>
<stop offset="0.906" stop-color="#CECAC8"/>
<stop offset="0.945" stop-color="#B3ADAA"/>
<stop offset="0.978" stop-color="#948D8A"/>
<stop offset="1" stop-color="#7C7571"/>
</linearGradient>
<linearGradient id="paint5_linear_130_144" x1="8.78414" y1="30.6293" x2="41.8443" y2="30.6293" gradientUnits="userSpaceOnUse">
<stop stop-color="#191515"/>
<stop offset="0.068" stop-color="#342D2D"/>
<stop offset="0.167" stop-color="#5B5352"/>
<stop offset="0.261" stop-color="#7F7676"/>
<stop offset="0.349" stop-color="#9B9393"/>
<stop offset="0.427" stop-color="#AEA6A6"/>
<stop offset="0.489" stop-color="#B4ADAC"/>
<stop offset="0.56" stop-color="#AAA2A2"/>
<stop offset="0.669" stop-color="#8F8686"/>
<stop offset="0.803" stop-color="#675E5F"/>
<stop offset="0.955" stop-color="#393233"/>
<stop offset="1" stop-color="#2C2628"/>
</linearGradient>
<linearGradient id="paint6_linear_130_144" x1="28.5186" y1="29.9386" x2="29.9548" y2="29.2963" gradientUnits="userSpaceOnUse">
<stop stop-color="#8A817F"/>
<stop offset="0.349" stop-color="#B5AFAE"/>
<stop offset="0.776" stop-color="#EAE7E7"/>
<stop offset="1" stop-color="white"/>
</linearGradient>
<linearGradient id="paint7_linear_130_144" x1="25.867" y1="25.4809" x2="38.8242" y2="25.4809" gradientUnits="userSpaceOnUse">
<stop stop-color="#332726"/>
<stop offset="0.084" stop-color="#3C302E"/>
<stop offset="0.343" stop-color="#564A47"/>
<stop offset="0.588" stop-color="#6A605D"/>
<stop offset="0.814" stop-color="#786F6C"/>
<stop offset="1" stop-color="#7C7571"/>
</linearGradient>
<linearGradient id="paint8_linear_130_144" x1="8.12426" y1="10.8002" x2="43.752" y2="40.6492" gradientUnits="userSpaceOnUse">
<stop stop-color="#EEEFEE"/>
<stop offset="0.089" stop-color="#D7D7D6"/>
<stop offset="0.223" stop-color="#BFBFBF"/>
<stop offset="0.381" stop-color="#AFAEAE"/>
<stop offset="0.586" stop-color="#A6A5A5"/>
<stop offset="1" stop-color="#A3A2A3"/>
</linearGradient>
</defs>
</svg>
