<svg width="84" height="84" viewBox="0 0 84 84" fill="none" xmlns="http://www.w3.org/2000/svg">
<path d="M83.92 41.918C83.92 18.7771 65.1219 0 41.96 0C18.7981 0 0 18.7771 0 41.918C0 54.6634 5.79048 66.1499 14.8538 73.8601C14.9378 73.944 15.0217 73.944 15.0217 74.0279C15.777 74.6154 16.5322 75.2028 17.3714 75.7903C17.791 76.042 18.1267 76.3725 18.5463 76.7081C25.4834 81.4037 33.6671 83.9155 42.0439 83.92C50.4207 83.9155 58.6045 81.4037 65.5415 76.7081C65.9611 76.4564 66.2968 76.1259 66.7164 75.8689C67.4717 75.2867 68.3109 74.6993 69.0662 74.1119C69.1501 74.0279 69.234 74.0279 69.234 73.944C78.1295 66.1447 83.92 54.6634 83.92 41.918ZM41.96 78.6383C34.0715 78.6383 26.8544 76.1207 20.8961 71.9299C20.98 71.2586 21.1478 70.5925 21.3157 69.9211C21.8174 68.1022 22.5507 66.3553 23.4976 64.7233C24.4207 63.1288 25.5117 61.7022 26.8544 60.4434C28.1132 59.1846 29.6238 58.015 31.1343 57.0918C32.7288 56.1687 34.4072 55.4973 36.2534 54.9938C38.1146 54.4953 40.0332 54.2432 41.96 54.2438C47.681 54.2005 53.1923 56.3952 57.3174 60.3595C59.2475 62.2896 60.7581 64.5537 61.849 67.1517C62.4365 68.6623 62.8561 70.255 63.1078 71.9299C56.9144 76.2841 49.5308 78.6263 41.96 78.6383ZM29.1202 39.8253C28.3823 38.1318 28.0106 36.3016 28.0293 34.4544C28.0293 32.6134 28.365 30.7672 29.1202 29.0888C29.8755 27.4104 30.8826 25.9051 32.1414 24.6463C33.4002 23.3875 34.9107 22.3857 36.5891 21.6304C38.2675 20.8751 40.1138 20.5394 41.96 20.5394C43.8902 20.5394 45.6525 20.8751 47.3309 21.6304C49.0093 22.3857 50.5198 23.3927 51.7786 24.6463C53.0374 25.9051 54.0445 27.4156 54.7998 29.0888C55.555 30.7672 55.8907 32.6134 55.8907 34.4544C55.8907 36.3846 55.555 38.1469 54.7998 39.82C54.075 41.4759 53.0508 42.9838 51.7786 44.2678C50.4942 45.5381 48.9863 46.5605 47.3309 47.2837C43.8625 48.706 39.9736 48.706 36.5052 47.2837C34.8497 46.5605 33.3419 45.5381 32.0574 44.2678C30.7842 43.0019 29.7845 41.4933 29.1202 39.8253ZM68.0591 67.6553C68.0591 67.4874 67.9752 67.4035 67.9752 67.2357C67.1513 64.6095 65.9347 62.1232 64.3666 59.8612C62.7973 57.5826 60.8703 55.5724 58.6601 53.9081C56.9715 52.6374 55.141 51.5672 53.2053 50.7192C54.0818 50.1328 54.8971 49.4598 55.639 48.7103C56.8901 47.4751 57.9889 46.0946 58.9118 44.5982C60.7768 41.5474 61.7372 38.0297 61.6812 34.4544C61.7086 31.8082 61.1946 29.1844 60.1706 26.7443C59.161 24.3927 57.7079 22.2575 55.8907 20.4555C54.0718 18.6777 51.9373 17.2547 49.5967 16.2595C47.1529 15.236 44.5254 14.7237 41.8761 14.7542C39.2264 14.7253 36.5989 15.2394 34.1554 16.2647C31.7891 17.2478 29.6477 18.7022 27.8614 20.5394C26.0744 22.3488 24.6501 24.4834 23.6654 26.8282C22.6415 29.2684 22.1275 31.8922 22.1549 34.5383C22.1549 36.3846 22.4066 38.1451 22.9102 39.82C23.4137 41.5824 24.085 43.1768 25.0082 44.6822C25.8474 46.1927 27.0222 47.5354 28.281 48.7942C29.0363 49.5495 29.8755 50.2191 30.7986 50.8031C28.8543 51.6686 27.0226 52.7677 25.3438 54.076C23.1619 55.7544 21.2318 57.7632 19.6373 59.9451C18.0547 62.1986 16.837 64.6872 16.0287 67.3196C15.9448 67.4874 15.9448 67.6553 15.9448 67.7392C9.31512 61.0308 5.20304 51.978 5.20304 41.918C5.20304 21.7143 21.7353 5.1978 41.96 5.1978C62.1847 5.1978 78.717 21.7143 78.717 41.918C78.706 51.5686 74.874 60.8222 68.0591 67.6553Z" fill="#FFED00"/>
</svg>
