<svg width="21" height="21" viewBox="0 0 21 21" fill="none" xmlns="http://www.w3.org/2000/svg">
<path d="M8.0313 15.2228C5.90402 15.2228 4.10383 14.4858 2.63074 13.0119C1.15764 11.5381 0.420703 9.73788 0.419922 7.61138C0.419142 5.48488 1.15608 3.68469 2.63074 2.21081C4.10539 0.736938 5.90558 0 8.0313 0C10.157 0 11.9576 0.736938 13.433 2.21081C14.9085 3.68469 15.645 5.48488 15.6427 7.61138C15.6427 8.4701 15.5061 9.28003 15.2328 10.0412C14.9596 10.8023 14.5888 11.4756 14.1204 12.0611L20.6779 18.6186C20.8926 18.8333 20.9999 19.1065 20.9999 19.4383C20.9999 19.7701 20.8926 20.0433 20.6779 20.258C20.4632 20.4727 20.19 20.58 19.8582 20.58C19.5264 20.58 19.2532 20.4727 19.0385 20.258L12.481 13.7005C11.8955 14.1689 11.2222 14.5397 10.4611 14.8129C9.69995 15.0861 8.89002 15.2228 8.0313 15.2228ZM8.0313 12.8808C9.49503 12.8808 10.7394 12.3687 11.7644 11.3445C12.7894 10.3202 13.3015 9.07589 13.3007 7.61138C13.2999 6.14687 12.7878 4.9029 11.7644 3.87946C10.741 2.85602 9.49659 2.34352 8.0313 2.34196C6.56601 2.3404 5.32204 2.8529 4.29938 3.87946C3.27673 4.90602 2.76423 6.14999 2.76189 7.61138C2.75954 9.07276 3.27204 10.3171 4.29938 11.3445C5.32673 12.3718 6.5707 12.8839 8.0313 12.8808Z" fill="#1D1D1B"/>
</svg>
