<svg width="8" height="8" viewBox="0 0 8 8" fill="none" xmlns="http://www.w3.org/2000/svg">
<path d="M6.81883 4.03639H0.974119V1.29668C0.973838 1.19351 0.994024 1.0913 1.03351 0.995981C1.07299 0.90066 1.13099 0.814117 1.20415 0.741361L1.21024 0.735272C1.32489 0.620788 1.47209 0.544492 1.63173 0.516808C1.79137 0.489124 1.95566 0.511403 2.10216 0.580601C1.9638 0.810643 1.90629 1.08033 1.93878 1.3468C1.97126 1.61328 2.09186 1.86125 2.28143 2.05132L2.44811 2.218L2.14131 2.52482L2.48569 2.8692L2.79249 2.5624L4.49247 0.862456L4.79927 0.555654L4.45487 0.211257L4.14806 0.518059L3.98138 0.351378C3.78181 0.152374 3.51875 0.0296997 3.23803 0.00473407C2.95731 -0.0202316 2.67672 0.0540937 2.44518 0.214758C2.20101 0.0605603 1.91166 -0.00600805 1.62466 0.0259887C1.33765 0.0579854 1.07007 0.186644 0.865855 0.39083L0.859766 0.396918C0.741232 0.514799 0.647257 0.655021 0.583282 0.809467C0.519306 0.963912 0.486601 1.12951 0.487059 1.29668V4.03639H0V4.52345H0.487059V4.99073C0.487062 5.02999 0.493394 5.06899 0.505811 5.10623L0.958898 6.46543C0.983079 6.5382 1.02957 6.6015 1.09178 6.64634C1.15398 6.69118 1.22873 6.71528 1.30541 6.71522H1.50176L1.32419 7.32404H1.83154L2.00912 6.71522H5.17653L5.35918 7.32404H5.86754L5.6849 6.71522H6.00042C6.07711 6.71529 6.15187 6.6912 6.21409 6.64636C6.27631 6.60152 6.32281 6.53821 6.34699 6.46543L6.80005 5.10623C6.81248 5.06899 6.81882 5.02999 6.81883 4.99073V4.52345H7.30589V4.03639H6.81883ZM2.62586 0.695775C2.76004 0.561883 2.94186 0.486687 3.13142 0.486687C3.32098 0.486687 3.5028 0.561883 3.63698 0.695775L3.80363 0.862456L2.79254 1.87355L2.62586 1.70689C2.49197 1.57271 2.41678 1.39089 2.41678 1.20133C2.41678 1.01178 2.49197 0.829963 2.62586 0.695775ZM6.33177 4.97094L5.91272 6.22816H1.39317L0.974119 4.97094V4.52345H6.33177V4.97094Z" fill="#FFED00"/>
</svg>
