<svg width="11" height="8" viewBox="0 0 11 8" fill="none" xmlns="http://www.w3.org/2000/svg">
<path d="M0 6.85421V4.21797C0 3.98071 0.048331 3.76542 0.144993 3.5721C0.241655 3.37877 0.369073 3.20742 0.527247 3.05803V1.58174C0.527247 1.14237 0.681027 0.768902 0.988588 0.461341C1.29615 0.15378 1.66961 0 2.10899 0H4.21797C4.42009 0 4.60902 0.0374344 4.78476 0.112303C4.96051 0.187173 5.12308 0.290337 5.27247 0.421798C5.42185 0.289986 5.58442 0.186821 5.76017 0.112303C5.93592 0.0377859 6.12485 0.000351498 6.32696 0H8.43595C8.87532 0 9.24879 0.15378 9.55635 0.461341C9.86391 0.768902 10.0177 1.14237 10.0177 1.58174V3.05803C10.1759 3.20742 10.3033 3.37877 10.3999 3.5721C10.4966 3.76542 10.5449 3.98071 10.5449 4.21797V6.85421C10.5449 7.0036 10.4943 7.1289 10.3931 7.23014C10.2919 7.33137 10.1667 7.38181 10.0177 7.38146C9.86865 7.3811 9.74352 7.33049 9.64229 7.22961C9.54106 7.12873 9.49044 7.0036 9.49044 6.85421V6.32696H1.05449V6.85421C1.05449 7.0036 1.00388 7.1289 0.902647 7.23014C0.801415 7.33137 0.676282 7.38181 0.527247 7.38146C0.378212 7.3811 0.253079 7.33049 0.151847 7.22961C0.0506158 7.12873 0 7.0036 0 6.85421ZM5.79972 2.63623H8.9632V1.58174C8.9632 1.43235 8.91258 1.30722 8.81135 1.20634C8.71012 1.10546 8.58498 1.05485 8.43595 1.05449H6.32696C6.17758 1.05449 6.05244 1.10511 5.95156 1.20634C5.85068 1.30757 5.80007 1.43271 5.79972 1.58174V2.63623ZM1.58174 2.63623H4.74522V1.58174C4.74522 1.43235 4.69461 1.30722 4.59337 1.20634C4.49214 1.10546 4.36701 1.05485 4.21797 1.05449H2.10899C1.9596 1.05449 1.83447 1.10511 1.73359 1.20634C1.63271 1.30757 1.58209 1.43271 1.58174 1.58174V2.63623ZM1.05449 5.27247H9.49044V4.21797C9.49044 4.06859 9.43983 3.94345 9.3386 3.84257C9.23736 3.7417 9.11223 3.69108 8.9632 3.69073H1.58174C1.43235 3.69073 1.30722 3.74134 1.20634 3.84257C1.10546 3.94381 1.05485 4.06894 1.05449 4.21797V5.27247Z" fill="#FFED00"/>
</svg>
