<svg width="6" height="8" viewBox="0 0 6 8" fill="none" xmlns="http://www.w3.org/2000/svg">
<path d="M2.95923 0C1.33165 0 0 1.33165 0 2.95923C0 4.95671 2.58933 7.21313 2.7003 7.3241C2.77428 7.36109 2.88525 7.39808 2.95923 7.39808C3.03321 7.39808 3.14418 7.36109 3.21817 7.3241C3.32914 7.21313 5.91847 4.95671 5.91847 2.95923C5.91847 1.33165 4.58681 0 2.95923 0ZM2.95923 6.5473C2.18243 5.80749 0.739808 4.21691 0.739808 2.95923C0.739808 1.73855 1.73855 0.739808 2.95923 0.739808C4.17992 0.739808 5.17866 1.73855 5.17866 2.95923C5.17866 4.17992 3.73603 5.80749 2.95923 6.5473ZM2.95923 1.47962C2.14544 1.47962 1.47962 2.14544 1.47962 2.95923C1.47962 3.77302 2.14544 4.43885 2.95923 4.43885C3.77302 4.43885 4.43885 3.77302 4.43885 2.95923C4.43885 2.14544 3.77302 1.47962 2.95923 1.47962ZM2.95923 3.69904C2.55234 3.69904 2.21942 3.36613 2.21942 2.95923C2.21942 2.55234 2.55234 2.21942 2.95923 2.21942C3.36613 2.21942 3.69904 2.55234 3.69904 2.95923C3.69904 3.36613 3.36613 3.69904 2.95923 3.69904Z" fill="#FFED00"/>
</svg>
