<svg width="79" height="21" viewBox="0 0 79 21" fill="none" xmlns="http://www.w3.org/2000/svg">
<path d="M10.5893 17.8475L11.6741 18.5674C11.6741 18.5674 12.7755 17.9775 13.3786 18.0004C13.9816 18.0233 21.5456 18.213 21.5456 18.213L23.0785 18.3249L25.4957 15.2341L25.3424 10.0629L19.1834 7.84619L13.655 8.27341L11.0417 10.5258L9.35791 14.0028L10.5893 17.8475Z" fill="black"/>
<path d="M76.4032 13.866L76.3441 14.1318C76.3441 14.1318 75.1327 15.8258 73.5569 16.1114C71.981 16.3971 72.0992 16.4562 72.0992 16.4562C72.0992 16.4562 69.5286 17.0668 68.5929 16.5447C67.6573 16.0228 59.8371 17.185 59.8371 17.185L58.7832 17.6184L57.6605 17.835C57.6605 17.835 55.4542 15.7471 55.4542 15.7176C55.4542 15.6881 55.3755 13.6592 55.3755 13.6592L57.4733 7.92738L61.8561 5.34701L64.0328 5.01221C64.0328 5.01221 70.5824 7.23802 70.5824 7.28726C70.5824 7.33643 71.3901 9.35551 71.3901 9.35551L73.2417 12.0933L74.7683 12.8517L76.4032 13.866Z" fill="#070707"/>
<path d="M77.2698 12.3394C77.2698 12.3394 77.5061 13.7477 77.3682 14.0628C77.3682 14.0628 75.0327 14.4319 74.7281 14.3705C74.4233 14.3091 73.8379 13.4128 73.8379 13.4128L77.2698 12.3394Z" fill="#332C2B"/>
<path d="M76.0722 8.28599C76.0963 8.23563 76.1198 8.17927 76.1387 8.11771C76.2076 7.89387 75.9828 7.68713 75.9828 7.68713L73.411 7.49854C73.411 7.49854 71.5602 10.0125 71.5257 10.0727C71.4913 10.133 72.5546 11.4934 72.5546 11.4934H73.6055L74.5215 8.23827L76.0722 8.28599Z" fill="#473D3C"/>
<path d="M76.535 10.9499L75.9839 10.3553L75.9407 8.50456C75.9407 8.50456 76.0082 8.41798 76.0716 8.28551L74.5209 8.23779L73.605 11.493H75.6487L76.535 10.9499Z" fill="#332C2B"/>
<path d="M77.1208 5.29331C77.1208 5.29331 77.1896 5.85286 76.8539 6.27456C76.5182 6.69635 76.1985 7.46188 76.1985 7.46188L73.8582 7.53999L73.7549 6.21435L75.0548 5.17285L77.1208 5.29331Z" fill="#3D000D"/>
<path d="M19.1998 6.73272L18.5492 6.87614L17.9868 6.80451C17.9868 6.80451 23.9088 3.79948 32.5216 1.86963L32.6966 3.46844L19.871 7.64152L19.1998 6.73272Z" fill="#636363"/>
<path d="M3.30321 17.051L1.49121 18.1335C1.79541 18.3247 2.60599 18.4448 4.10859 18.4695C5.82889 18.4979 11.6734 18.5675 11.6734 18.5675C11.6734 18.5675 11.7026 18.5384 11.6742 18.3821C11.6668 18.3411 11.4657 17.6307 11.3264 16.6086L5.68922 16.5503L3.30321 17.051Z" fill="#C92505"/>
<path d="M78.1213 11.0442C77.9276 10.2934 77.5907 10.5357 77.5907 10.5357L76.1869 10.4872L75.9458 10.027L75.9215 10.7051L76.3091 10.9958L74.5652 11.0928L73.1603 10.3661L73.9112 7.79862L76.0185 7.82284L76.2607 7.33845L74.0323 7.36267L74.4683 6.05472C74.4683 6.05472 76.7936 5.35233 77.0358 5.425C77.2779 5.49767 77.4476 5.25544 77.3506 5.18277C77.2538 5.1101 57.3917 1.71918 50.8274 1.30739C44.2633 0.895672 35.9793 0.508014 31.8615 2.00977L32.0069 2.30046C32.0069 2.30046 21.6248 4.87825 18.6847 6.75718C18.6847 6.75718 12.169 6.46643 4.73274 10.8748C4.73274 10.8748 2.45593 11.5773 0.833008 13.6602C0.833008 13.6602 1.94339 15.6416 2.63565 16.0194C2.63565 16.0194 1.2058 17.8047 1.39064 18.0463C1.41406 18.0769 1.44756 18.106 1.49169 18.1337L3.30369 17.0512L5.68978 16.5504L11.327 16.6087C10.9336 13.7204 11.0347 8.34264 17.4007 8.54985C25.5877 8.81631 22.9719 18.4078 22.9719 18.4078L57.755 17.8748L56.6893 14.5322C56.6893 14.5322 56.659 7.33837 63.1263 7.09614C69.5937 6.85399 70.1932 12.2311 70.1932 12.2311V15.3072L72.0765 14.0718C72.0765 14.0718 74.2655 14.5079 74.9437 14.3383C75.6218 14.1688 78.315 11.7952 78.1213 11.0442Z" fill="#D52A00"/>
<path d="M1.31445 13.6375C1.31445 13.6375 4.35955 12.2041 9.86869 11.7075C9.86869 11.7075 3.67553 12.9254 3.66617 13.2253C3.65682 13.5251 5.68987 16.6168 5.68987 16.6168C5.68987 16.6168 1.3613 15.3801 1.31445 13.6375Z" fill="#BC2304"/>
<path d="M53.4256 4.2051L55.3688 4.4626C55.3688 4.4626 50.5364 2.22823 49.5554 2.11919C48.5744 2.01015 36.0573 1.02564 31.733 2.76946C27.4088 4.51336 40.7991 4.0002 40.7991 4.0002L53.4256 4.2051Z" fill="#7F0619"/>
<path d="M47.242 2.49427C47.242 2.49427 38.2556 1.13786 31.9578 2.71228C25.6601 4.28662 20.3555 7.02367 20.3555 7.02367C20.5772 7.07683 20.7933 7.12687 21.0048 7.1746C22.1819 6.67127 27.8748 4.24489 28.591 4.09292C29.3903 3.92344 36.2209 1.86463 43.536 2.39746C43.536 2.39746 47.1452 2.54272 47.6053 3.82654C47.7582 4.2532 47.7154 4.63405 47.5906 4.95279C48.5506 4.80937 49.1312 4.72271 49.1312 4.72271L47.242 2.49427Z" fill="#484949"/>
<path d="M47.6057 3.82592C47.3736 3.17837 46.3407 2.8207 45.3735 2.625L45.5546 5.2566C46.3367 5.13964 47.0289 5.03619 47.591 4.95217C47.7157 4.63343 47.7586 4.25258 47.6057 3.82592Z" fill="#636363"/>
<path d="M43.5366 2.39788C36.2216 1.86505 29.3909 3.92386 28.5915 4.09334C27.8754 4.24523 22.1824 6.67169 21.0054 7.17502C26.775 8.47651 28.7494 7.81698 29.7541 7.64182C30.4066 7.52798 37.8437 6.41171 43.3103 5.59349L43.7005 2.40723C43.5962 2.40028 43.5366 2.39788 43.5366 2.39788Z" fill="#636363"/>
<path d="M43.7003 2.40674L43.3101 5.59299C44.1094 5.47332 44.8668 5.36004 45.5545 5.25715L45.3734 2.62555C44.6688 2.48293 43.9994 2.4264 43.7003 2.40674Z" fill="#484949"/>
<path d="M54.436 4.23827L49.4946 2.20361L48.2594 2.30961L47.5327 2.78489L49.0632 4.73281C49.0632 4.73281 52.1591 4.04448 54.436 4.23827Z" fill="#484949"/>
<path d="M48.2839 2.40674L50.1731 3.94143L49.3981 4.56291L47.8237 2.76081L48.2839 2.40674Z" fill="#050505"/>
<path d="M9.12792 9.09277C9.12792 9.09277 6.34521 9.74863 5.23963 10.4794C4.13404 11.2103 3.5625 11.9597 3.5625 11.9597C3.5625 11.9597 4.33071 11.941 4.54633 11.7723C4.76187 11.6037 7.2634 9.81419 9.12792 9.09277Z" fill="#221411"/>
<path d="M3.73151 13.6371L2.53223 14.2086C2.53223 14.2086 3.00064 14.4615 3.08498 14.6864C3.16941 14.9112 3.40357 15.3047 3.35672 15.5483C3.30987 15.7919 3.05692 17.1504 3.05692 17.1504L4.53721 17.3471L5.68965 16.5508C5.68965 16.5508 4.12509 13.3653 3.73151 13.6371Z" fill="#221411"/>
<path d="M11.5403 12.1846C11.5403 12.1846 9.08174 12.3627 9.12859 12.7936C9.17544 13.2245 11.3929 12.7561 11.3929 12.7561L11.5403 12.1846Z" fill="#FDD8C5"/>
<path d="M58.897 5.01172C58.897 5.01172 42.7455 6.86722 38.4666 7.54019C34.1878 8.21332 22.6235 10.0635 22.6235 10.0635C22.6235 10.0635 55.1192 5.93468 58.897 5.01172Z" fill="#BC2304"/>
<path d="M45.8295 6.6333C45.8295 6.6333 51.0334 6.68462 53.115 7.64187C53.115 7.64187 50.0697 12.9526 49.4723 13.3585C48.8748 13.7643 43.8435 15.075 43.1212 15.1905C42.3988 15.3062 23.7031 16.2314 23.7031 16.2314L42.7071 14.9593C42.7071 14.9593 45.9758 14.4968 46.5387 14.0342C47.1016 13.5717 50.7251 10.4109 49.8384 9.21589C48.9518 8.02089 45.8295 6.6333 45.8295 6.6333Z" fill="#BC2304"/>
<path d="M50.4477 7.0459L51.1323 7.84893C51.1323 7.84893 48.8417 13.2989 46.7354 14.1413C46.7354 14.1413 48.6184 13.9112 49.1316 13.5195C49.6447 13.1278 53.1148 7.81952 53.1148 7.73046C53.1148 7.6414 51.3034 7.08531 50.4477 7.0459Z" fill="#121117"/>
<path d="M25.0495 16.1038C24.8845 16.1038 24.8131 16.1015 24.8086 16.1013L24.728 16.0982L24.7395 16.0185C24.8924 14.9481 23.6451 9.74195 23.6324 9.68951L23.6206 9.64065L26.2119 7.88539L26.2935 8.0058L23.7855 9.70453C23.9178 10.2589 24.9815 14.7636 24.8921 15.9577C25.4566 15.9647 29.2932 15.9558 43.0683 14.828L45.8021 7.13759L45.8114 7.12705C46.0693 6.8347 46.2784 6.52803 46.274 6.44944C46.1881 6.34823 45.4178 5.73833 44.9441 5.37131L45.0331 5.25635C45.1621 5.35636 46.2969 6.23735 46.3939 6.36686C46.4996 6.50788 46.2022 6.90224 45.9296 7.21258L43.1736 14.9652L43.1269 14.969C30.2392 16.0246 26.0214 16.1037 25.0495 16.1038Z" fill="#0F0503"/>
<path d="M25.4956 16.6343L27.4455 18.0008L41.6018 17.8165L27.6298 17.7397L25.4956 16.6343Z" fill="#0F0503"/>
<path d="M23.0778 14.7637C23.0778 17.8967 20.5381 20.4363 17.4051 20.4363C14.2721 20.4363 11.7324 17.8967 11.7324 14.7637C11.7324 11.6309 14.2722 9.09131 17.4051 9.09131C20.5382 9.09131 23.0778 11.6309 23.0778 14.7637Z" fill="#27262C"/>
<path d="M13.1333 14.7639C13.1333 17.1306 15.0519 19.0491 17.4188 19.0491C19.7854 19.0491 21.7037 17.1306 21.7037 14.7639C21.7037 12.3975 19.7854 10.479 17.4188 10.479C15.0519 10.479 13.1333 12.3975 13.1333 14.7639Z" fill="#C3BFBE"/>
<path d="M15.9319 11.8912L16.9235 13.0182C16.9235 13.0182 17.0948 13.2887 17.3291 13.2887C17.5638 13.2887 17.735 13.0993 17.735 13.0993L18.7717 11.8913C18.7717 11.8913 18.9161 11.7198 18.7717 11.6028C18.6276 11.4855 18.1215 11.3145 17.419 11.3145C16.7161 11.3143 15.6792 11.5035 15.9319 11.8912Z" fill="#27262C"/>
<path d="M15.9318 17.6367L16.9233 16.5096C16.9233 16.5096 17.0948 16.2393 17.3291 16.2393C17.5636 16.2393 17.7351 16.4285 17.7351 16.4285L18.7717 17.6366C18.7717 17.6366 18.9162 17.8079 18.7717 17.925C18.6275 18.0422 18.1215 18.2135 17.4189 18.2135C16.7161 18.2136 15.6794 18.0243 15.9318 17.6367Z" fill="#27262C"/>
<path d="M20.3272 13.3308L19.2004 14.3224C19.2004 14.3224 18.9297 14.4937 18.9297 14.7279C18.9297 14.9627 19.1191 15.1337 19.1191 15.1337L20.3271 16.1706C20.3271 16.1706 20.4986 16.315 20.6154 16.1706C20.7329 16.0264 20.9042 15.5204 20.9042 14.8177C20.9044 14.1149 20.7149 13.0783 20.3272 13.3308Z" fill="#27262C"/>
<path d="M14.5807 13.3308L15.7076 14.3224C15.7076 14.3224 15.978 14.4937 15.978 14.728C15.978 14.9625 15.7887 15.1336 15.7887 15.1336L14.5808 16.1706C14.5808 16.1706 14.4092 16.315 14.2919 16.1706C14.1748 16.0262 14.0034 15.5204 14.0034 14.8176C14.0033 14.115 14.1928 13.0782 14.5807 13.3308Z" fill="#27262C"/>
<path d="M69.3847 13.7285C69.3847 16.9118 66.8042 19.4923 63.6207 19.4923C60.4375 19.4923 57.8569 16.9119 57.8569 13.7285C57.8569 10.5453 60.4374 7.96484 63.6207 7.96484C66.8042 7.96484 69.3847 10.5452 69.3847 13.7285Z" fill="#27262C"/>
<path d="M59.2812 13.7274C59.2812 16.132 61.2308 18.0814 63.6357 18.0814C66.0403 18.0814 67.9894 16.132 67.9894 13.7274C67.9894 11.3228 66.0403 9.37354 63.6357 9.37354C61.2308 9.37354 59.2812 11.3228 59.2812 13.7274Z" fill="#C3BFBE"/>
<path d="M62.1239 10.8088L63.1314 11.9539C63.1314 11.9539 63.3056 12.2287 63.5437 12.2287C63.782 12.2287 63.956 12.0363 63.956 12.0363L65.0095 10.8088C65.0095 10.8088 65.156 10.6347 65.0095 10.5157C64.863 10.3966 64.3488 10.2227 63.635 10.2227C62.9208 10.2227 61.8673 10.415 62.1239 10.8088Z" fill="#27262C"/>
<path d="M62.1234 16.647L63.1307 15.5019C63.1307 15.5019 63.3052 15.2271 63.5431 15.2271C63.7813 15.2271 63.9556 15.4194 63.9556 15.4194L65.0089 16.6469C65.0089 16.6469 65.1556 16.821 65.0089 16.9399C64.8624 17.0591 64.3482 17.2332 63.6345 17.2332C62.9202 17.2333 61.8668 17.0408 62.1234 16.647Z" fill="#27262C"/>
<path d="M66.5893 12.2723L65.4444 13.2799C65.4444 13.2799 65.1694 13.454 65.1694 13.692C65.1694 13.9303 65.3619 14.1043 65.3619 14.1043L66.5894 15.1579C66.5894 15.1579 66.7637 15.3046 66.8824 15.1579C67.0017 15.0113 67.1759 14.4971 67.1759 13.7833C67.1758 13.0691 66.9833 12.0158 66.5893 12.2723Z" fill="#27262C"/>
<path d="M60.7512 12.2723L61.8963 13.28C61.8963 13.28 62.171 13.454 62.171 13.6921C62.171 13.9304 61.9786 14.1043 61.9786 14.1043L60.7512 15.1579C60.7512 15.1579 60.5769 15.3046 60.4576 15.1579C60.3388 15.0112 60.1646 14.4972 60.1646 13.7833C60.1646 13.0691 60.357 12.0156 60.7512 12.2723Z" fill="#27262C"/>
<path d="M57.3535 10.5938L56.3935 10.9379L54.4888 14.0312L55.7534 16.9568L57.2164 17.0788L56.0888 16.6672L55.2354 14.1414L56.5458 11.0902L57.3535 10.5938Z" fill="#030400"/>
<path d="M68.2334 8.23757L70.636 7.44043C70.636 7.44043 70.8922 7.74191 70.7895 7.83896C70.6867 7.93601 68.5687 8.6675 68.5687 8.6675C68.5687 8.6675 68.3248 8.29513 68.2334 8.23757Z" fill="#FFD5BE"/>
</svg>
