<svg width="69" height="29" viewBox="0 0 69 29" fill="none" xmlns="http://www.w3.org/2000/svg">
<path d="M54.5884 2.08976C54.5884 2.08976 55.1947 0.85647 56.8878 0.940104C56.8878 0.940104 57.4104 1.56722 56.8042 2.23608C56.1981 2.90495 54.5884 2.08976 54.5884 2.08976Z" fill="#100607"/>
<path d="M68.6828 16.2081C68.6404 16.0915 68.5905 16.0023 68.5324 15.9495C68.01 15.4757 67.9329 15.0285 67.9329 15.0285V12.5548C67.9329 11.8875 66.4 11.9358 64.7365 11.4523C63.073 10.9688 62.3138 9.67277 62.3427 9.23759C62.3718 8.80241 63.2519 8.53155 65.3989 8.66698C67.5459 8.80241 67.217 8.46387 67.217 8.46387C66.0274 7.78693 66.3951 8.31881 64.161 7.40973C61.9269 6.50064 59.925 4.44064 59.925 4.44064C59.925 4.44064 62.8842 3.20272 62.4877 2.79657C62.0911 2.39034 53.5029 1.65527 45.6005 1.65527C37.698 1.65527 34.8268 1.94539 32.9988 2.20656C31.1709 2.46765 25.0004 4.89522 22.5633 6.81979C20.126 8.74436 17.2343 9.63419 16.8088 9.8179C16.3832 10.0017 12.8725 10.4078 8.42373 11.2106C3.97506 12.0133 2.19537 13.4348 2.19537 13.4348C2.19537 13.4348 0.938302 14.5956 0.387077 17.4583C0.312226 17.8464 0.267094 18.1995 0.244041 18.5223C0.0967294 20.5801 0.875116 21.3703 1.02559 21.6462C1.19968 21.9655 0.755425 22.3043 0.755425 22.3043C0.271952 22.5945 0.292464 22.8179 0.292464 22.8179C0.263437 23.7463 6.30106 24.5315 6.30106 24.5315C6.30106 24.5315 5.35513 15.3799 12.8813 15.5889C20.4071 15.798 19.7606 24.2268 19.7606 24.2268L20.6383 24.2135C20.9296 24 21.4771 23.7752 22.5095 23.6675C24.7848 23.4302 46.644 22.7665 47.5559 22.9678C47.967 23.0585 48.1696 23.4216 48.2686 23.7931L49.2077 23.7788C49.2077 23.7788 48.7597 14.043 56.2556 14.6702C63.7518 15.2973 62.7684 22.6808 62.7684 22.6808C63.2906 22.3617 65.4762 21.8587 66.192 21.6847C66.9077 21.5106 68.1456 20.1469 68.5324 19.9825C68.876 19.8363 69.0214 17.1396 68.6828 16.2081Z" fill="#353544"/>
<path d="M47.7526 22.3582C47.7876 22.4755 49.2084 23.7779 49.2084 23.7779C49.2084 23.7779 50.729 23.8123 51.1379 23.5624C51.5466 23.3125 61.2253 22.6309 61.2253 22.6309C61.2253 22.6309 62.6065 22.8781 62.9609 22.584C63.3155 22.2901 64.7013 16.1332 64.7013 16.1332L54.7729 11.8848C54.7729 11.8848 46.1622 17.042 47.7526 22.3582Z" fill="#040402"/>
<path d="M62.0198 2.93277C62.0198 2.93277 62.4428 2.72369 62.5151 2.93277C62.5871 3.14179 62.0198 3.94812 64.5284 5.76987C67.0371 7.59162 66.7383 8.51743 66.7383 8.51743L59.5111 6.63601C59.5111 6.63601 57.9283 3.38067 62.0198 2.93277Z" fill="#7C82A2"/>
<path d="M66.2606 8.36841C66.2606 8.36841 67.5447 8.36841 67.7837 9.05526C68.0227 9.74211 67.9629 12.5493 67.7837 12.7584C67.6044 12.9675 60.5264 10.22 60.5264 10.22C60.5264 10.22 62.0198 7.68148 66.2606 8.36841Z" fill="#AE222F"/>
<path d="M5.31201 22.3363C5.31201 22.3363 5.9506 24.4771 6.30159 24.5313C6.65258 24.5854 7.67484 24.3128 7.99301 24.2674C8.31103 24.222 17.1716 25.8428 17.1716 25.8428C17.1716 25.8428 19.2846 25.1089 20.0342 23.9611C20.784 22.8134 21.4656 16.043 21.4656 16.043L13.3888 14.6572L9.60605 15.3387L6.81162 17.8833L5.31201 22.3363Z" fill="#040402"/>
<path d="M46.7863 23.0184L46.7188 22.9156C46.7308 22.9077 47.9351 22.1101 48.1863 21.3938C48.2082 21.3316 48.2389 21.2233 48.2776 21.0861C48.4894 20.3391 48.9849 18.5899 50.0858 17.0081C51.4625 15.03 53.3015 13.9825 55.5521 13.8949C58.5407 13.778 60.4174 15.0199 61.4648 16.0819C62.4829 17.1142 62.9368 18.1833 63.0226 18.4011C65.299 18.4495 68.6912 18.3214 68.8149 17.7696L68.9349 17.7965C68.9044 17.9324 68.8118 18.3459 65.8628 18.486C64.426 18.5542 62.9929 18.5235 62.9786 18.5231L62.9361 18.5221L62.9219 18.4822C62.9177 18.4705 62.4908 17.2958 61.3735 16.1644C60.3437 15.1218 58.4978 13.9034 55.5569 14.0177C52.1025 14.1523 49.6931 16.5417 48.3959 21.1196C48.355 21.2642 48.3255 21.3687 48.3023 21.4343C48.0373 22.19 46.8372 22.9849 46.7863 23.0184Z" fill="#080705"/>
<path d="M5.99479 17.8002C5.99479 17.8002 7.91492 13.2494 12.5233 13.8447C17.1317 14.44 21.3559 17.8002 21.3559 17.8002C21.3559 17.8002 21.3559 20.0083 31.4368 19.3363C41.5175 18.6642 46.2218 18.1842 46.2218 18.1842C46.2218 18.1842 47.6619 17.6081 42.9577 17.7041C38.2533 17.8001 25.2923 17.7041 25.2923 17.7041C25.2923 17.7041 21.3559 16.8778 21.6441 14.7468C21.9321 12.6158 31.2447 14.6553 37.2931 14.0196C43.3418 13.384 50.6382 14.7236 50.6382 14.7236C50.6382 14.7236 53.8064 11.6766 56.9746 12.6263C60.1428 13.5759 63.4436 16.6481 63.8575 16.6481C64.1958 16.6481 67.5305 17.0114 68.683 16.2081C68.6405 16.0914 68.5906 16.0023 68.5325 15.9495C68.0101 15.4756 67.933 15.0285 67.933 15.0285V12.5548C67.933 11.8875 66.4001 11.9358 64.7366 11.4523C63.0732 10.9688 62.3139 9.67277 62.3428 9.23759C62.3719 8.80241 63.252 8.53155 65.399 8.66698C67.5461 8.80241 67.2171 8.46387 67.2171 8.46387C66.0275 7.78693 66.3952 8.31881 64.1611 7.40973C61.9271 6.50065 59.9251 4.44064 59.9251 4.44064C59.9251 4.44064 62.8843 3.20272 62.4878 2.79656C62.0912 2.39034 53.5031 1.65527 45.6006 1.65527C37.6982 1.65527 34.8269 1.94539 32.9989 2.20656C31.171 2.46765 25.0005 4.89522 22.5634 6.81979C20.1261 8.74436 17.2344 9.63419 16.8089 9.8179C16.3833 10.0017 12.8726 10.4078 8.42383 11.2106C3.97516 12.0133 2.19547 13.4348 2.19547 13.4348C2.19547 13.4348 0.938402 14.5956 0.387176 17.4583C0.312326 17.8464 0.267193 18.1995 0.244141 18.5223C1.41455 18.0777 4.09415 17.2154 5.99479 17.8002Z" fill="#3A394B"/>
<path d="M63.8575 16.6476C63.4436 16.6476 60.1427 13.5754 56.9746 12.6258C53.8064 11.6762 50.6382 14.7232 50.6382 14.7232C50.6382 14.7232 43.3417 13.3834 37.293 14.0191C31.2446 14.6549 21.932 12.6153 21.6441 14.7463C21.3559 16.8772 25.2923 17.7037 25.2923 17.7037C25.2923 17.7037 38.2532 17.7997 42.9576 17.7037C47.6619 17.6077 46.2218 18.1837 46.2218 18.1837C46.2218 18.1837 41.5173 18.6638 31.4368 19.3359C21.3559 20.0078 21.3559 17.7997 21.3559 17.7997C21.3559 17.7997 17.1317 14.4395 12.5232 13.8443C7.91496 13.2489 5.99476 17.7997 5.99476 17.7997C4.09411 17.2149 1.4146 18.0771 0.244041 18.5219C0.0967294 20.5797 0.875116 21.3699 1.02559 21.6459C1.19968 21.9651 0.755425 22.3039 0.755425 22.3039C0.271952 22.5941 0.292464 22.8175 0.292464 22.8175C0.263437 23.7459 6.30106 24.5311 6.30106 24.5311C6.30106 24.5311 5.35513 15.3795 12.8813 15.5885C20.4071 15.7976 19.7606 24.2264 19.7606 24.2264L20.6383 24.2131C20.9296 23.9996 21.4771 23.7748 22.5095 23.6671C24.7848 23.4299 46.644 22.7661 47.5559 22.9674C47.967 23.0581 48.1696 23.4212 48.2686 23.7927L49.2076 23.7785C49.2076 23.7785 48.7597 14.0427 56.2556 14.6698C63.7518 15.2969 62.7684 22.6804 62.7684 22.6804C63.2906 22.3613 65.4762 21.8583 66.192 21.6843C66.9077 21.5102 68.1456 20.1466 68.5324 19.9822C68.8761 19.836 69.0214 17.1392 68.6829 16.2079C67.5304 17.011 64.1957 16.6476 63.8575 16.6476Z" fill="#353544"/>
<path d="M47.5558 22.9672C46.6439 22.7659 24.7847 23.4296 22.5095 23.6669C21.4771 23.7746 20.9295 23.9994 20.6382 24.2128L48.2685 23.7925C48.1695 23.421 47.9669 23.0579 47.5558 22.9672Z" fill="#040402"/>
<path d="M1.28824 16.0112C1.28824 16.0112 1.22653 14.6865 2.43623 13.7946C3.64601 12.9028 8.61779 11.5339 8.9711 11.949C9.32426 12.3641 7.8673 12.938 7.461 13.3178C7.05484 13.6976 4.90004 15.9053 3.80504 16.0112C2.7099 16.1171 1.19083 16.7727 1.28761 16.0466" fill="#D2CCCE"/>
<path d="M0.634383 19.1199C0.537323 19.0317 0.457701 18.8638 0.846363 18.7932C1.23495 18.7226 2.32123 18.6431 2.32123 18.6431C2.32123 18.6431 2.78025 18.6079 3.13363 19.1199C3.48694 19.6321 3.89316 20.6123 3.89316 20.6123C3.89316 20.6123 4.35232 21.3718 3.63698 21.3806C2.92165 21.3895 1.12904 21.3806 1.12904 21.3806C1.12904 21.3806 1.52641 21.1686 1.44692 20.7801C1.36729 20.3916 1.03183 19.3318 1.03183 19.3318C1.03183 19.3318 0.731443 19.2083 0.634383 19.1199Z" fill="#D2CCCE"/>
<path d="M1.15537 19.076L1.90598 20.8333C1.90598 20.8333 2.00318 21.0806 2.42713 21.0452C2.851 21.0099 3.52213 21.0982 3.52213 21.0982C3.52213 21.0982 3.7606 21.1776 3.52213 20.7273C3.28366 20.2769 2.56839 19.023 2.56839 19.023C2.56839 19.023 2.55947 18.97 2.14438 18.9347C1.72937 18.8994 1.03174 19.0319 1.03174 19.0319C1.03174 19.0319 1.05831 19.1025 1.15537 19.076Z" fill="#1B1A20"/>
<path d="M19.3299 10.2963C19.3299 10.2963 23.6744 7.00067 26.2077 5.72051C28.7412 4.44041 30.1617 3.73114 33.635 3.13136C37.1084 2.53158 40.8383 2.70841 40.8383 2.70841H48.6696C48.6696 2.70841 54.4993 2.80069 55.8421 3.65116C57.1848 4.50155 58.0712 5.36088 57.9369 5.77265C57.8026 6.18443 55.7885 7.68837 54.2934 7.90315C52.7985 8.118 42.0917 9.23701 42.0917 9.23701L31.4837 10.2038L20.2485 11.0631C20.2485 11.0631 19.2733 11.2359 19.1431 10.7874C19.0624 10.51 19.3299 10.2963 19.3299 10.2963Z" fill="#7C82A2"/>
<path d="M21.2091 11.0407L21.8361 9.02483C21.8361 9.02483 26.2265 5.9868 27.4807 5.48998C28.7351 4.9931 31.9931 3.24599 38.5397 3.38036C38.5397 3.38036 44.0412 2.9669 50.6762 3.13937L52.3883 8.08405L52.9706 7.99451L50.8652 2.83948C50.8652 2.83948 34.6036 2.08129 30.0341 4.00755C25.4649 5.93381 18.6107 10.0999 19.2379 10.9062L21.2091 11.0407Z" fill="#282C38"/>
<path d="M37.4039 3.12615L35.8247 9.73529L39.2631 9.42865V3.1123L37.4039 3.12615Z" fill="#292C3B"/>
<path d="M49.0105 8.52541L48.7422 8.5089L49.0739 3.10346L49.3422 3.00879L49.0105 8.52541Z" fill="#292C3B"/>
<path d="M50.877 3.10063C50.877 3.10063 51.6047 3.08587 52.2406 3.13928C52.8766 3.19269 54.5081 3.18433 56.0893 4.26363C57.6705 5.34286 57.51 6.18272 57.4398 6.31921C57.3695 6.45555 57.7124 6.22138 57.7124 6.22138L57.7879 5.64409L56.5913 4.07957L54.7198 3.25679L50.6855 2.78809L50.877 3.10063Z" fill="#292C3B"/>
<path d="M53.542 3.14115C53.542 3.14115 55.4334 3.26618 56.8631 4.79725C58.0001 6.01473 57.6061 6.27434 56.8631 6.78451C56.1202 7.29475 54.822 7.84083 54.822 7.84083C54.822 7.84083 57.9195 6.86512 58.1613 5.92519C58.4029 4.98525 56.5679 3.07853 53.542 3.14115Z" fill="#D8D6E1"/>
<path d="M18.895 22.1182C18.895 25.4157 16.2221 28.0887 12.9245 28.0887C9.62717 28.0887 6.9541 25.4157 6.9541 22.1182C6.9541 18.8209 9.62717 16.1479 12.9245 16.1479C16.2221 16.1479 18.895 18.8209 18.895 22.1182Z" fill="#27262C"/>
<path d="M8.4292 22.1188C8.4292 24.6096 10.4487 26.6289 12.9398 26.6289C15.4305 26.6289 17.4495 24.6096 17.4495 22.1188C17.4495 19.6281 15.4305 17.6089 12.9398 17.6089C10.4487 17.6089 8.4292 19.6281 8.4292 22.1188Z" fill="#C3BFBE"/>
<path d="M11.3739 19.0949L12.4174 20.2811C12.4174 20.2811 12.5978 20.5657 12.8444 20.5657C13.0913 20.5657 13.2715 20.3665 13.2715 20.3665L14.3628 19.0949C14.3628 19.0949 14.5146 18.9146 14.3628 18.7913C14.211 18.668 13.6785 18.4878 12.939 18.4878C12.1991 18.4877 11.108 18.687 11.3739 19.0949Z" fill="#27262C"/>
<path d="M11.3733 25.1422L12.4168 23.956C12.4168 23.956 12.5975 23.6714 12.844 23.6714C13.0909 23.6714 13.2712 23.8706 13.2712 23.8706L14.3623 25.1422C14.3623 25.1422 14.5143 25.3225 14.3623 25.4458C14.2105 25.5691 13.6779 25.7494 12.9385 25.7494C12.1988 25.7494 11.1077 25.5501 11.3733 25.1422Z" fill="#27262C"/>
<path d="M15.9997 20.6106L14.8135 21.6543C14.8135 21.6543 14.5288 21.8347 14.5288 22.0812C14.5288 22.3282 14.7281 22.5082 14.7281 22.5082L15.9997 23.5996C15.9997 23.5996 16.1802 23.7515 16.303 23.5996C16.4267 23.4477 16.607 22.9152 16.607 22.1757C16.607 21.436 16.4076 20.3448 15.9997 20.6106Z" fill="#27262C"/>
<path d="M9.95175 20.6102L11.1379 21.6538C11.1379 21.6538 11.4226 21.8342 11.4226 22.0808C11.4226 22.3277 11.2232 22.5077 11.2232 22.5077L9.95175 23.5991C9.95175 23.5991 9.7714 23.7511 9.64785 23.5991C9.52457 23.4473 9.34424 22.9148 9.34424 22.1752C9.34417 21.4356 9.54362 20.3444 9.95175 20.6102Z" fill="#27262C"/>
<path d="M61.9721 21.4136C61.9721 24.7109 59.299 27.384 56.0015 27.384C52.7043 27.384 50.0312 24.7109 50.0312 21.4136C50.0312 18.1162 52.7043 15.4434 56.0015 15.4434C59.299 15.4433 61.9721 18.1162 61.9721 21.4136Z" fill="#27262C"/>
<path d="M51.5059 21.4137C51.5059 23.9046 53.5252 25.9239 56.0164 25.9239C58.5071 25.9239 60.5262 23.9046 60.5262 21.4137C60.5262 18.923 58.507 16.9038 56.0164 16.9038C53.5252 16.9038 51.5059 18.923 51.5059 21.4137Z" fill="#C3BFBE"/>
<path d="M54.452 18.3903L55.4958 19.5765C55.4958 19.5765 55.6759 19.8611 55.9226 19.8611C56.1695 19.8611 56.3499 19.6619 56.3499 19.6619L57.441 18.3903C57.441 18.3903 57.5928 18.2101 57.441 18.0867C57.2892 17.9633 56.7566 17.7832 56.0172 17.7832C55.2774 17.7831 54.1861 17.9824 54.452 18.3903Z" fill="#27262C"/>
<path d="M54.452 24.4375L55.4954 23.2514C55.4954 23.2514 55.6759 22.9668 55.9224 22.9668C56.1693 22.9668 56.3499 23.166 56.3499 23.166L57.4409 24.4375C57.4409 24.4375 57.5928 24.6178 57.4409 24.7411C57.2889 24.8645 56.7565 25.0448 56.0171 25.0448C55.2772 25.0448 54.1861 24.8454 54.452 24.4375Z" fill="#27262C"/>
<path d="M59.077 19.906L57.8908 20.9497C57.8908 20.9497 57.606 21.13 57.606 21.3767C57.606 21.6236 57.8054 21.8037 57.8054 21.8037L59.077 22.8951C59.077 22.8951 59.2573 23.047 59.3803 22.8951C59.5039 22.7432 59.6843 22.2106 59.6843 21.4711C59.6843 20.7315 59.4849 19.6403 59.077 19.906Z" fill="#27262C"/>
<path d="M53.0294 19.9061L54.2154 20.9497C54.2154 20.9497 54.5001 21.1301 54.5001 21.3767C54.5001 21.6236 54.3009 21.8036 54.3009 21.8036L53.0294 22.895C53.0294 22.895 52.8489 23.0469 52.7255 22.895C52.6021 22.7431 52.4219 22.2106 52.4219 21.4711C52.4218 20.7315 52.6211 19.6403 53.0294 19.9061Z" fill="#27262C"/>
<path d="M22.0071 24.0329C20.7999 21.5291 20.1322 19.419 20.0615 15.4449C19.9878 11.3026 21.6169 8.52176 21.6335 8.49414L21.7391 8.55711C21.7228 8.58438 20.1115 11.3374 20.1845 15.4427C20.2548 19.3941 20.9182 21.4915 22.1178 23.9794L22.0071 24.0329Z" fill="#080705"/>
<path d="M37.4834 23.183C37.4793 23.1662 37.0437 21.4939 36.8265 20.5837C36.6096 19.675 36.8015 17.964 36.8015 17.8485V11.2709C36.8015 10.7958 37.3918 9.83782 37.4637 9.71862L38.4686 2.79688L38.5962 2.8143L37.6021 9.76093L37.5971 9.77161C37.5908 9.78195 36.9707 10.8088 36.9707 11.2708L36.9704 17.8596C36.9684 17.8775 36.7547 19.6559 36.9695 20.555C37.1864 21.4649 37.5984 23.1366 37.6027 23.1534L37.4834 23.183Z" fill="#080705"/>
<path d="M53.0195 14.6944L52.9224 14.6189C53.2257 14.2287 53.405 10.5544 53.3997 9.73525C53.3953 9.04818 52.6786 8.11064 52.6713 8.10122L52.6624 8.08534L50.7632 3.03053L50.8784 2.9873L52.7745 8.03361C52.8488 8.1313 53.5182 9.03181 53.5227 9.73448C53.5258 10.2301 53.3805 14.2301 53.0195 14.6944Z" fill="#080705"/>
<path d="M19.8448 11.1603C19.413 11.1603 19.1493 11.0377 19.0819 10.8058C18.9904 10.4908 19.2778 10.2566 19.2903 10.2468C19.335 10.2129 23.6699 6.93194 26.1793 5.66386C28.718 4.3811 30.1164 3.67449 33.6244 3.06874C35.7697 2.69829 38.0049 2.6543 39.5022 2.6543C40.3175 2.6543 40.8365 2.71263 40.8419 2.71263H48.67C48.9097 2.71263 54.5341 2.78108 55.8767 3.63134C57.0136 4.3513 58.1681 5.28934 57.9983 5.80983C57.8576 6.24129 55.8073 7.75928 54.3031 7.97547C52.824 8.188 42.206 9.29415 42.0989 9.30525L31.4898 10.2701L20.2538 11.1284C20.2522 11.129 20.0672 11.1603 19.8448 11.1603ZM39.5022 2.71839C38.01 2.71839 35.7826 2.81088 33.6462 3.17979C30.157 3.7823 28.7647 4.49333 26.237 5.77048C23.7378 7.03335 19.4123 10.311 19.3689 10.3439C19.3681 10.3448 19.1375 10.536 19.205 10.7681C19.268 10.9849 19.5877 11.0314 19.8449 11.0314C20.0556 11.0314 20.2359 11.0004 20.2377 11.0001L31.4791 10.1403L42.0864 9.17369C42.1926 9.16258 52.8082 8.05257 54.2848 7.84032C55.7862 7.62449 57.7629 6.10171 57.8765 5.7534C57.9939 5.39342 57.1433 4.52124 55.8084 3.67569C54.4957 2.84427 48.7272 2.71263 48.6689 2.71263H40.8387C40.8306 2.71263 40.3142 2.71839 39.5022 2.71839Z" fill="#D8D6E1"/>
<path d="M5.73861 21.7588H1.00193C0.96791 21.7588 0.94043 21.7225 0.94043 21.6886C0.94043 21.6547 0.96791 21.6183 1.00193 21.6183H5.68359C5.72034 21.2669 5.93984 19.7887 6.84093 18.3084C7.76943 16.7832 9.63035 14.9523 13.2233 14.9521C16.2683 14.9521 17.9985 16.6203 18.9139 18.0252C19.9036 19.5439 20.1786 21.0812 20.1812 21.0966C20.1869 21.1301 20.1647 21.1603 20.1312 21.1661C20.0977 21.1718 20.0658 21.1487 20.0601 21.1152C20.0573 21.1 19.7857 19.5808 18.8087 18.0829C17.9099 16.7051 16.2113 15.0625 13.2233 15.0626C9.68743 15.0627 7.85805 16.8487 6.94592 18.3471C5.95635 19.9731 5.80138 21.6522 5.79984 21.6687C5.7971 21.7004 5.77045 21.7588 5.73861 21.7588Z" fill="#080705"/>
<path d="M22.0729 10.8691C22.0729 10.8691 22.4169 8.66001 23.8381 8.38071C25.2593 8.10155 25.5237 9.41299 25.5386 9.49768C25.5536 9.58251 25.8078 10.6945 24.6958 10.8691C23.5838 11.0437 22.0579 11.4275 22.0729 10.8691Z" fill="#3A394B"/>
<path d="M31.2511 12.0672C31.239 11.6956 32.0782 11.4319 33.0492 11.324C34.0202 11.2161 34.9915 11.2881 35.0752 11.5757C35.1592 11.8635 34.3199 12.5587 33.1631 12.5347C32.0064 12.5108 31.2631 12.4389 31.2511 12.0672Z" fill="#100607"/>
<path d="M31.5706 12.091C31.5706 12.091 31.6744 11.7674 33.0289 11.5995C34.3836 11.4317 34.7312 11.4317 34.7312 11.5995C34.7312 11.7674 34.132 12.079 33.7842 12.091C33.4366 12.103 31.5266 12.4147 31.5706 12.091Z" fill="#BEC0CC"/>
<path d="M47.7008 10.3392C47.6889 9.96756 48.528 9.70387 49.4991 9.59599C50.4701 9.48804 51.4412 9.56001 51.5251 9.84774C51.6089 10.1354 50.7697 10.8307 49.613 10.8067C48.456 10.7828 47.7129 10.7108 47.7008 10.3392Z" fill="#100607"/>
<path d="M48.0203 10.363C48.0203 10.363 48.1241 10.0393 49.4786 9.87148C50.8333 9.70365 51.1809 9.70365 51.1809 9.87148C51.1809 10.0393 50.5815 10.351 50.2339 10.363C49.8863 10.375 47.9765 10.6867 48.0203 10.363Z" fill="#BEC0CC"/>
</svg>
