<svg width="87" height="31" viewBox="0 0 87 31" fill="none" xmlns="http://www.w3.org/2000/svg">
<path d="M38.5853 1.97852C38.5853 1.97852 34.1015 3.21511 24.655 9.67615L24.1753 12.2224L33.2344 11.3368C33.2344 11.3368 39.9502 4.19646 39.9502 4.08574C39.9503 3.97502 38.5853 1.97852 38.5853 1.97852Z" fill="#C5D6E2"/>
<path d="M22.3485 9.9531L23.6954 9.67639C23.6954 9.67639 24.4519 8.82768 24.8024 8.90153C25.153 8.97528 25.5774 9.03063 25.3744 9.25198C25.1715 9.47342 24.9685 10.5251 24.2673 10.8388C23.5663 11.1524 21.8873 10.894 22.3485 9.9531Z" fill="#000308"/>
<path d="M7.86914 24.7761L9.53728 26.7531C9.53728 26.7531 10.0963 26.8966 10.7265 26.2664C11.3569 25.6361 21.4841 26.9823 21.4841 26.9823C21.4841 26.9823 23.586 26.9867 24.8465 26.9791C26.1072 26.9715 57.5808 25.5852 57.5808 25.5852L62.4596 26.7531C62.4596 26.7531 64.2083 26.3763 65.0546 26.5185C65.9008 26.6606 75.3981 26.2243 75.3981 26.2243C75.3981 26.2243 78.1296 26.7118 78.5497 25.8797C78.97 25.0477 82.1195 14.248 73.6951 14.0799C65.2708 13.9118 26.9559 20.3832 26.9559 20.3832L16.9036 14.4581L8.1631 17.1721L7.86914 24.7761Z" fill="#000308"/>
<path d="M86.3158 16.5768C86.4634 15.7833 85.3194 15.3959 85.3194 15.3959C85.3194 15.3959 85.4485 14.8978 85.3194 14.1413C85.1903 13.3848 84.8765 11.0047 84.5261 10.3404C84.1755 9.67621 83.9123 9.60078 83.9123 9.60078L83.8436 10.0083C83.1539 9.65773 80.3642 9.27029 79.8291 9.17806C79.294 9.08582 78.5667 8.5323 76.9061 6.77944C75.2457 5.02666 74.5444 3.08941 74.5444 3.08941L75.6514 2.2407C75.8913 1.72415 72.9761 1.53959 72.9761 1.53959C71.9613 1.42896 59.1199 0.340322 51.6107 0.284962C44.1014 0.229602 38.271 2.00078 37.9573 2.20373C37.6437 2.4066 37.8282 3.01557 37.8282 3.01557C36.2414 3.29237 26.1677 10.2296 25.5403 10.3957C24.913 10.5617 23.3079 10.6356 22.662 10.3588C22.0163 10.0821 23.437 9.73149 23.437 9.73149C23.437 9.73149 19.8761 9.6946 10.9094 11.8532C1.94263 14.012 0.983113 16.3369 0.853998 16.8349C0.724795 17.3331 0.540409 18.1079 0.540409 18.1079C0.411206 18.7722 0.485226 20.9307 0.450914 21.1705C0.416601 21.4104 0.467097 21.5947 0.467097 21.5947C0.456485 21.6827 0.451975 21.7679 0.451709 21.8509C0.729659 21.8775 1.11276 21.9081 1.39619 21.9081C1.89461 21.9081 3.14056 22.1217 3.08131 22.8219C3.02206 23.522 3.30691 24.2221 2.29813 24.424C1.41901 24.5998 0.972589 24.6403 0.675891 24.3099C0.646796 24.3477 0.620177 24.3886 0.598511 24.4345C0.450914 24.7481 0.878141 24.905 0.878141 24.905C2.31724 25.894 9.53712 26.7532 9.53712 26.7532C8.66286 24.4023 8.64004 16.5026 16.4076 16.4473C24.1752 16.3919 24.3044 26.9824 24.3044 26.9824L62.4595 26.7532C61.9983 25.3432 61.0573 16.8163 69.7473 16.8347C78.4374 16.8531 77.7806 26.309 77.7806 26.309H77.8839C78.8802 26.309 80.8545 25.714 81.5187 25.6033C82.1829 25.4927 84.3601 24.2887 85.1349 23.8459C85.9099 23.4031 85.707 20.8569 85.707 20.5249C85.707 20.1928 85.3195 19.0304 85.3933 18.5692C85.4671 18.1082 86.1681 17.3701 86.3158 16.5768Z" fill="#3F3F3F"/>
<path d="M2.29809 24.4241C3.30686 24.2224 3.02202 23.5222 3.08127 22.822C3.14052 22.1218 1.89456 21.9082 1.39615 21.9082C1.11272 21.9082 0.729617 21.8775 0.451667 21.8511C0.449368 22.7774 1.04285 23.3928 1.07663 23.6976C1.10812 23.9811 0.845378 24.0895 0.67576 24.3101C0.972547 24.6405 1.41896 24.6 2.29809 24.4241Z" fill="#5E5E5E"/>
<path d="M75.3633 2.05957C75.3633 2.05957 75.6746 2.22433 76.1505 2.51731C76.6264 2.81021 83.1071 7.99107 84.114 9.9316C85.1209 11.8721 81.9903 10.7004 81.9903 10.7004L73.1299 5.37313C73.1299 5.37313 73.4045 2.66367 75.3633 2.05957Z" fill="#C5D6E2"/>
<path d="M26.9561 11.5743C26.9561 11.5743 33.3045 5.6686 38.1521 3.79856C42.9996 1.92843 46.7645 1.75855 55.3768 1.97884C63.9891 2.19913 67.6802 3.06031 69.2304 4.33996C70.7805 5.61952 71.5188 6.4165 71.4204 7.10072C71.322 7.78494 70.7068 9.43354 70.0424 9.53196C69.378 9.63039 52.3748 10.4917 52.0303 10.5162C51.6857 10.5408 26.9561 11.5743 26.9561 11.5743Z" fill="#151616"/>
<path d="M32.5413 7.83369L32.1968 10.7865L51.2178 10.0975L53.5801 2.51866C53.5801 2.51866 43.5159 2.0512 40.0957 3.57679C36.6753 5.10229 35.445 5.54526 32.5413 7.83369Z" fill="#C5D6E2"/>
<path d="M57.13 2.9019L55.6837 8.32073C55.6837 8.32073 55.4274 9.07128 55.6837 9.21781C55.94 9.36426 63.8303 9.03476 63.8303 9.03476C63.8303 9.03476 69.4688 8.92492 69.6703 8.74178C69.8716 8.55872 70.8419 7.42559 70.3475 6.61916C69.8532 5.81272 68.5169 4.36646 65.7525 3.78067C62.9882 3.1947 57.7524 2.79197 57.13 2.9019Z" fill="#C5D6E2"/>
<path d="M47.3663 24.8659C47.0409 24.8659 46.8211 24.8553 46.7853 24.8535L26.5023 24.6598L26.4847 24.5953C25.242 20.0593 25.5399 15.1734 25.8711 13.2237C26.1697 11.4647 27.1003 11.433 27.1399 11.4325C27.1887 11.4298 27.2288 11.471 27.2294 11.5199C27.23 11.5685 27.1912 11.6084 27.1426 11.6094C27.1078 11.6104 26.3173 11.6524 26.0455 13.2533C25.7182 15.1805 25.4236 19.9964 26.6377 24.4843L46.7908 24.6768C46.8316 24.6787 50.509 24.8533 51.0566 23.697C51.6315 22.4836 53.7543 13.6415 53.2065 10.1936L53.2038 10.1768L53.2076 10.1602L55.075 1.95355C55.0859 1.90588 55.1334 1.87625 55.1809 1.88695C55.2285 1.89783 55.2583 1.94523 55.2475 1.99281L53.3838 10.1829C53.9263 13.6706 51.7945 22.5527 51.2165 23.7729C50.7552 24.7464 48.4628 24.8659 47.3663 24.8659Z" fill="#020305"/>
<path d="M1.17041 17.8138C1.17041 17.8138 1.23461 16.8946 2.30962 16.2948C3.43708 15.6659 4.04232 15.6065 4.43391 15.8438C4.8255 16.0811 5.3714 16.8051 5.40704 17.2205C5.44259 17.6358 5.57321 18.5021 4.63563 18.5258C3.69813 18.5496 1.32473 19.0006 1.17041 17.8138Z" fill="#C6E0DB"/>
<path d="M77.3184 12.2887C77.3184 12.2887 78.3369 11.0881 80.3074 11.1047C82.2781 11.1213 84.346 11.6263 84.314 12.9511C84.282 14.2758 81.4336 13.8619 81.4336 13.8619C81.4336 13.8619 76.5815 13.4561 77.3184 12.2887Z" fill="#F42134"/>
<path d="M72.6851 17.6337C72.6442 17.6337 72.6074 17.6052 72.5986 17.5636C72.5885 17.5159 72.619 17.4689 72.6669 17.4588L78.3803 16.252C80.131 16.0599 84.7703 15.425 85.3091 14.7872C85.3406 14.75 85.3964 14.7452 85.4337 14.7768C85.471 14.8082 85.4757 14.864 85.4442 14.9014C84.7497 15.7234 78.6667 16.3981 78.4081 16.4265L72.7034 17.632C72.6974 17.6331 72.6912 17.6337 72.6851 17.6337Z" fill="#020305"/>
<path d="M30.8292 10.4361C30.8292 10.4361 30.1723 9.38233 31.8007 8.50656C33.4292 7.63079 33.4292 8.9719 33.4429 9.25923C33.4565 9.54664 33.5251 10.5866 33.0051 10.6824C32.4851 10.7783 30.9578 10.8887 30.8292 10.4361Z" fill="#3F3F3F"/>
<path d="M21.9141 15.0026C21.9141 15.0026 22.0629 15.3746 22.3108 15.4986C22.5588 15.6225 22.9556 15.5978 23.4516 15.573C23.9476 15.5482 24.8157 15.4862 24.6792 15.1018C24.5428 14.7174 22.2489 14.767 21.9141 15.0026Z" fill="#C6E0DB"/>
<path d="M76.1126 23.9493C76.1126 27.4331 73.2885 30.2571 69.8048 30.2571C66.321 30.2571 63.4971 27.4331 63.4971 23.9493C63.4971 20.4656 66.3211 17.6416 69.8048 17.6416C73.2885 17.6416 76.1126 20.4656 76.1126 23.9493Z" fill="#27262C"/>
<path d="M65.0547 23.9494C65.0547 26.581 67.1881 28.7144 69.82 28.7144C72.4514 28.7144 74.5846 26.581 74.5846 23.9494C74.5846 21.3179 72.4514 19.1846 69.82 19.1846C67.1881 19.1846 65.0547 21.3179 65.0547 23.9494Z" fill="#C3BFBE"/>
<path d="M68.1662 20.7547L69.2688 22.0079C69.2688 22.0079 69.4593 22.3087 69.72 22.3087C69.9808 22.3087 70.1712 22.0981 70.1712 22.0981L71.324 20.7547C71.324 20.7547 71.4843 20.5642 71.324 20.4339C71.1637 20.3036 70.601 20.1133 69.8198 20.1133C69.0382 20.1132 67.8853 20.3237 68.1662 20.7547Z" fill="#27262C"/>
<path d="M68.1661 27.1442L69.2686 25.891C69.2686 25.891 69.4595 25.5903 69.7199 25.5903C69.9806 25.5903 70.1713 25.8008 70.1713 25.8008L71.3239 27.1442C71.3239 27.1442 71.4844 27.3347 71.3239 27.4649C71.1635 27.5952 70.6009 27.7857 69.8198 27.7857C69.0383 27.7858 67.8855 27.5753 68.1661 27.1442Z" fill="#27262C"/>
<path d="M73.0531 22.3566L71.8001 23.4593C71.8001 23.4593 71.499 23.6498 71.499 23.9103C71.499 24.1712 71.7098 24.3616 71.7098 24.3616L73.0531 25.5146C73.0531 25.5146 73.2437 25.675 73.3737 25.5146C73.5043 25.3542 73.6949 24.7915 73.6949 24.0101C73.6949 23.2287 73.4841 22.0758 73.0531 22.3566Z" fill="#27262C"/>
<path d="M66.6646 22.3561L67.9177 23.4588C67.9177 23.4588 68.2184 23.6493 68.2184 23.9098C68.2184 24.1707 68.0077 24.3609 68.0077 24.3609L66.6645 25.514C66.6645 25.514 66.4738 25.6745 66.3432 25.514C66.213 25.3535 66.0225 24.791 66.0225 24.0096C66.0225 23.2283 66.2332 22.0753 66.6646 22.3561Z" fill="#27262C"/>
<path d="M22.6086 23.9493C22.6086 27.4331 19.7845 30.2571 16.3008 30.2571C12.8171 30.2571 9.99316 27.4331 9.99316 23.9493C9.99316 20.4656 12.8172 17.6416 16.3008 17.6416C19.7846 17.6416 22.6086 20.4656 22.6086 23.9493Z" fill="#27262C"/>
<path d="M11.5508 23.9494C11.5508 26.581 13.6843 28.7144 16.3162 28.7144C18.9476 28.7144 21.0807 26.581 21.0807 23.9494C21.0807 21.3179 18.9476 19.1846 16.3162 19.1846C13.6843 19.1846 11.5508 21.3179 11.5508 23.9494Z" fill="#C3BFBE"/>
<path d="M14.6623 20.7547L15.7649 22.0079C15.7649 22.0079 15.9554 22.3087 16.216 22.3087C16.4769 22.3087 16.6674 22.0981 16.6674 22.0981L17.8202 20.7547C17.8202 20.7547 17.9805 20.5642 17.8202 20.4339C17.6599 20.3036 17.0972 20.1133 16.316 20.1133C15.5342 20.1132 14.3814 20.3237 14.6623 20.7547Z" fill="#27262C"/>
<path d="M14.6622 27.1442L15.7647 25.891C15.7647 25.891 15.9555 25.5903 16.216 25.5903C16.4767 25.5903 16.6674 25.8008 16.6674 25.8008L17.8201 27.1442C17.8201 27.1442 17.9806 27.3347 17.8201 27.4649C17.6596 27.5952 17.097 27.7857 16.3159 27.7857C15.5343 27.7858 14.3815 27.5753 14.6622 27.1442Z" fill="#27262C"/>
<path d="M19.5495 22.3566L18.2965 23.4593C18.2965 23.4593 17.9956 23.6498 17.9956 23.9103C17.9956 24.1712 18.2063 24.3616 18.2063 24.3616L19.5496 25.5146C19.5496 25.5146 19.7402 25.675 19.8702 25.5146C20.0009 25.3542 20.1914 24.7915 20.1914 24.0101C20.1913 23.2287 19.9806 22.0758 19.5495 22.3566Z" fill="#27262C"/>
<path d="M13.1607 22.3561L14.4138 23.4588C14.4138 23.4588 14.7144 23.6493 14.7144 23.9098C14.7144 24.1707 14.5038 24.3609 14.5038 24.3609L13.1606 25.514C13.1606 25.514 12.9699 25.6745 12.8393 25.514C12.7091 25.3535 12.5186 24.791 12.5186 24.0096C12.5187 23.2283 12.7294 22.0753 13.1607 22.3561Z" fill="#27262C"/>
</svg>
