<svg width="79" height="26" viewBox="0 0 79 26" fill="none" xmlns="http://www.w3.org/2000/svg">
<path d="M6.61848 20.4744L7.9711 21.8695C7.9711 21.8695 9.15018 21.8328 9.54576 21.5427C9.94135 21.2526 18.723 22.3251 18.8021 22.2503C18.8812 22.1756 21.8611 22.0965 22.0985 21.8591C22.3358 21.6218 20.7009 12.7161 20.7009 12.7161L13.1542 11.0215C13.1542 11.0215 6.56579 14.2109 6.61848 20.4744Z" fill="#0B0001"/>
<path d="M54.0341 20.7249L55.7616 21.7893C55.7616 21.7893 57.225 22.7289 57.7525 22.8608C58.2799 22.9927 68.4329 20.7248 68.4329 20.7248C68.4329 20.7248 69.6195 20.8007 69.6195 21.1848C69.6195 21.5686 71.3864 16.9358 71.3864 16.9358L66.8769 12.207L57.4624 12.3916C57.4624 12.3916 52.9001 18.0086 54.0341 20.7249Z" fill="black"/>
<path d="M72.2686 20.5511H76.7568C76.7568 20.5511 77.231 19.9431 77.2077 19.5714C77.1845 19.1998 72.5964 19.5714 72.5964 19.5714L72.2686 20.5511Z" fill="#CECECE"/>
<path d="M34.3764 1.44126C34.3764 1.44126 34.8281 0.750554 35.9172 1.44126C37.0063 2.13196 37.272 2.74289 36.8469 3.00865C36.4219 3.27424 28.7447 7.15994 28.5055 8.28535C28.2664 9.41059 22.98 9.62319 22.98 9.62319L24.1223 7.57762C24.1223 7.57762 32.2246 2.13188 34.3764 1.44126Z" fill="#2D2D2D"/>
<path d="M33.4962 7.99503C33.6014 8.16954 33.5453 8.39624 33.3708 8.50145C33.1963 8.60665 32.9696 8.5504 32.8644 8.37597L31.4832 6.08581C31.378 5.9113 31.4342 5.6846 31.6086 5.57947C31.7831 5.47419 32.0098 5.53032 32.115 5.70483L33.4962 7.99503Z" fill="#141414"/>
<path d="M46.6631 3.35938C46.6631 3.35938 45.2612 4.11123 45.3481 5.44859C45.4351 6.78594 45.8015 7.30923 45.8015 7.30923L47.9135 7.68316C47.9135 7.68316 48.2876 5.3157 48.111 4.63702C47.9344 3.95826 47.5519 3.35881 46.6631 3.35938Z" fill="#2D2D2D"/>
<path d="M46.0957 7.32821C46.0957 7.32821 46.1991 6.24878 46.4913 6.06281C46.7835 5.87685 51.9637 5.66434 54.4608 5.79714C56.9579 5.92994 64.7149 5.133 66.5745 6.14239C68.4341 7.15194 46.8956 7.87643 46.0957 7.32821Z" fill="#2D2D2D"/>
<path d="M20.2974 7.76364C20.2974 7.76364 20.9349 7.20583 21.3334 7.25891C21.7319 7.312 23.5399 6.41506 24.4822 6.90342C25.4244 7.39177 22.9804 8.85282 22.9804 8.85282L20.2974 7.76364Z" fill="#2D2D2D"/>
<path d="M22.98 8.02879C22.98 8.02879 30.2322 2.37053 34.6952 0.936035C34.6952 0.936035 35.3062 1.28143 35.1468 1.49386C34.9874 1.70645 31.7465 2.52998 24.6536 7.68349C24.6536 7.68349 34.9077 7.36472 46.7026 6.99279C58.4975 6.62093 67.5985 5.23644 67.6969 6.38024C67.7952 7.52404 23.0862 8.85229 22.98 8.02879Z" fill="#C2C0C1"/>
<path d="M75.4994 7.47124C75.4994 7.47124 76.2433 8.56036 76.2697 9.012C76.2963 9.46373 75.8723 11.2622 75.7385 11.4294C74.5695 12.8904 71.7006 10.8715 71.7006 10.7919C71.7006 10.7123 71.5412 7.23219 75.4994 7.47124Z" fill="#9D5C62"/>
<path d="M7.97091 21.8693C7.97091 21.8693 6.66919 12.5717 14.5059 12.5717C22.3426 12.5717 21.5456 21.9756 21.5456 21.9756L55.7614 21.7896C55.7614 21.7896 55.0442 12.9968 62.695 12.9968C70.3457 12.9968 69.4425 21.4443 69.4425 21.4443L74.6227 20.5412C74.6227 20.5412 76.6416 20.5411 77.6777 18.1238C77.6777 18.1238 78.1028 18.1769 78.023 17.5924C77.9433 17.0081 77.7574 16.9549 77.7574 16.9549L77.8637 14.2985C77.8637 14.2985 76.562 13.4218 76.5088 13.1561C76.4557 12.8905 75.8713 11.0841 75.8713 11.0841C75.8713 11.0841 74.0915 11.4294 73.879 11.2435C73.6664 11.0576 72.3913 9.38397 72.5241 8.90578C72.657 8.42767 75.7386 7.97607 75.7386 7.97607C75.7386 7.97607 76.3761 7.20566 76.0839 6.88689C75.7917 6.5682 75.4197 7.52446 67.344 6.3291C67.344 6.3291 48.2968 7.31192 46.8357 7.31192C45.3747 7.31192 24.3883 8.1886 23.1397 7.89637C21.8912 7.60423 19.8722 7.25893 19.8722 7.25893C19.8722 7.25893 5.58023 8.69341 2.49876 12.253C2.49876 12.253 1.35648 13.3687 1.25022 16.5566C1.25022 16.5566 0.825108 17.0081 1.01116 17.0612C1.19721 17.1144 1.27684 17.6988 1.35648 17.991C1.43619 18.2832 1.35648 19.2661 1.35648 19.2661C1.35648 19.2661 0.453247 20.4348 0.825188 20.7537C1.19689 21.0724 3.24233 21.7364 7.97091 21.8693Z" fill="#A80E16"/>
<path d="M58.8956 6.0906C58.8956 6.0906 59.6925 4.62956 58.2846 4.44359C56.8767 4.25762 55.2827 6.3033 55.2296 6.32976C55.1764 6.35623 58.8956 6.0906 58.8956 6.0906Z" fill="#2D2D2D"/>
<path d="M2.28283 13.6457C2.28283 13.6457 2.18141 12.0926 3.93744 11.7818C5.69355 11.4712 7.54471 11.1986 7.63983 11.5664C7.73496 11.9341 5.94714 14.0007 4.56514 14.0388C3.18307 14.0769 3.62052 13.7091 3.27182 13.6838C2.92311 13.6584 2.32712 13.8487 2.28283 13.6457Z" fill="#AFB3B6"/>
<path d="M1.82622 18.1663C1.82622 18.1663 1.66776 17.5069 1.85793 17.3738C2.04817 17.2408 3.40483 17.0062 3.67746 17.4119C3.95 17.8176 4.48895 18.7496 4.48258 19.2821C4.4762 19.8146 4.45079 20.1316 3.99445 20.0872C3.53796 20.0428 2.05455 20.1887 1.9658 19.7956C1.87705 19.4025 2.08626 18.8243 2.00388 18.6379C2.00388 18.6379 1.50027 18.7115 1.44597 18.5973C1.39167 18.4832 1.36988 18.1917 1.49034 18.1789C1.61072 18.1662 1.82622 18.1663 1.82622 18.1663Z" fill="#0B0001"/>
<path d="M22.6836 11.206C22.6836 11.3078 22.601 11.3904 22.4992 11.3904H21.3924C21.2906 11.3904 21.208 11.3078 21.208 11.206C21.208 11.1041 21.2906 11.0215 21.3924 11.0215H22.4992C22.601 11.0215 22.6836 11.1041 22.6836 11.206Z" fill="#AFB3B6"/>
<path d="M46.0774 10.8066C46.0774 11.2819 45.692 11.6673 45.2166 11.6673H44.2021C43.7267 11.6673 43.3413 11.2819 43.3413 10.8066C43.3413 10.3311 43.7266 9.9458 44.2021 9.9458H45.2166C45.692 9.9458 46.0774 10.3311 46.0774 10.8066Z" fill="#960F23"/>
<path d="M46.7531 10.7757C46.7531 10.9455 46.6155 11.0831 46.4458 11.0831H43.0642C42.8944 11.0831 42.7568 10.9456 42.7568 10.7757C42.7568 10.6059 42.8945 10.4683 43.0642 10.4683H46.4458C46.6155 10.4683 46.7531 10.6059 46.7531 10.7757Z" fill="#890E20"/>
<path d="M77.7554 16.4619C77.7554 16.4619 75.5889 17.2822 74.4924 17.4338C73.3957 17.5853 73.4671 17.8082 73.6187 17.9419C73.7703 18.0756 76.1998 18.1689 77.7577 16.9543L77.7554 16.4619Z" fill="#9B0E1C"/>
<path d="M69.4375 19.4851C69.4375 19.4851 75.3929 18.5132 75.3929 19.0661C75.3929 19.6189 69.4643 20.4836 69.4643 20.4836C69.4643 20.4836 69.482 19.7614 69.4375 19.4851Z" fill="#AF1423"/>
<path d="M67.068 14.4639L67.0586 14.4032C67.1143 14.3945 72.6405 13.5408 73.3688 13.3789C74.0727 13.2224 73.9559 11.3052 73.9546 11.2858L74.016 11.2817C74.0212 11.3629 74.137 13.2711 73.3822 13.4389C72.6518 13.6012 67.1236 14.4553 67.068 14.4639Z" fill="#6D030B"/>
<path d="M8.11719 11.3898C8.11719 11.3898 8.35907 11.3503 8.81387 11.2833C9.04115 11.2492 9.32152 11.2068 9.65175 11.1616C9.98182 11.1159 10.3611 11.0611 10.7865 11.0055C11.2122 10.9512 11.6835 10.8912 12.1965 10.8258C12.4529 10.7915 12.7205 10.7623 12.9979 10.7305C13.2752 10.6988 13.5627 10.6661 13.8596 10.6321C14.1567 10.5989 14.4629 10.5619 14.7787 10.5287C15.0946 10.4968 15.4197 10.4641 15.7532 10.4304C16.0868 10.3971 16.4291 10.363 16.7794 10.328C16.9546 10.3112 17.1316 10.2919 17.311 10.2764C17.4904 10.2612 17.6718 10.246 17.8551 10.2305C18.5883 10.169 19.3521 10.105 20.1426 10.0387C20.9342 9.98653 21.7526 9.93249 22.5939 9.8769C22.8044 9.86342 23.0157 9.84831 23.2294 9.83589C23.4426 9.82435 23.6571 9.81272 23.873 9.80102C24.305 9.77924 24.7423 9.75738 25.1844 9.73519C26.0683 9.69227 26.9717 9.65372 27.8903 9.61532C28.8089 9.57845 29.7429 9.54084 30.6884 9.50292C31.1612 9.48477 31.6367 9.46672 32.1148 9.44832C32.5928 9.4313 33.0733 9.4141 33.5556 9.39683C35.4851 9.32939 37.4453 9.26493 39.4055 9.20305C41.3659 9.14408 43.3264 9.08903 45.2564 9.0374C47.1862 8.98407 49.0859 8.94302 50.9241 8.90228C52.7624 8.86073 54.5395 8.8298 56.2249 8.80261C57.9101 8.77389 59.5036 8.75632 60.9746 8.74269C62.4456 8.72897 63.7941 8.72419 64.9894 8.72524C66.1847 8.72693 67.2268 8.73463 68.0848 8.75069C68.2993 8.75472 68.5023 8.75695 68.6934 8.76195C68.8845 8.76736 69.0635 8.77252 69.23 8.77712C69.3134 8.77946 69.3935 8.7818 69.4705 8.78397C69.5476 8.78712 69.6213 8.79021 69.6919 8.79311C69.8331 8.79908 69.9613 8.80454 70.0761 8.8093C70.1909 8.81326 70.2923 8.8202 70.3798 8.82601C70.4672 8.83166 70.5408 8.83644 70.6001 8.84031C70.7186 8.84797 70.7797 8.85193 70.7797 8.85193C70.7797 8.85193 70.7185 8.84933 70.5999 8.84409C70.5406 8.84151 70.4669 8.83835 70.3794 8.83456C70.2919 8.8306 70.1905 8.82593 70.0756 8.82431C69.6162 8.81294 68.9422 8.80407 68.0843 8.80576C67.2264 8.80471 66.1848 8.81665 64.99 8.83109C64.3926 8.84069 63.7569 8.85112 63.0868 8.86194C62.4167 8.87452 61.7121 8.88765 60.9769 8.90145C59.5066 8.93477 57.9138 8.97091 56.229 9.00907C54.5444 9.05256 52.7678 9.09841 50.93 9.14577C49.0923 9.19725 47.1933 9.2504 45.2638 9.30438C43.3342 9.35908 41.3742 9.41773 39.4142 9.47937C37.4541 9.5381 35.494 9.59919 33.5648 9.66358C32.6001 9.69585 31.6432 9.72787 30.6978 9.7595C29.7523 9.79274 28.8184 9.82563 27.8999 9.85799C26.9814 9.89324 26.0783 9.92786 25.1944 9.96191C24.7526 9.98039 24.3155 9.99879 23.8839 10.017C23.6679 10.0269 23.4533 10.0367 23.24 10.0465C23.0274 10.0571 22.8155 10.0704 22.6054 10.0822C21.7646 10.1303 20.9467 10.1772 20.1555 10.2224C19.3651 10.2796 18.6014 10.3349 17.8683 10.3879C17.685 10.4013 17.5036 10.4145 17.3242 10.4276C17.1447 10.441 16.9677 10.4582 16.7924 10.473C16.4419 10.5035 16.0996 10.5334 15.7658 10.5625C15.4319 10.5912 15.1067 10.6193 14.7906 10.6465C14.4746 10.6751 14.1681 10.7077 13.8707 10.7366C13.5735 10.7661 13.2858 10.7947 13.0081 10.8224C12.7305 10.8505 12.4625 10.8751 12.2057 10.9046C11.6918 10.961 11.2198 11.0128 10.7934 11.0596C10.5801 11.0822 10.3788 11.1084 10.1891 11.1306C9.99941 11.1532 9.82158 11.1742 9.65619 11.1939C9.32507 11.232 9.04414 11.2685 8.81613 11.2977C8.35996 11.3554 8.11719 11.3898 8.11719 11.3898Z" fill="#AF1423"/>
<path d="M21.9457 18.6376C21.9457 18.6376 23.6099 17.5367 29.0509 17.1843C34.4917 16.8319 55.2409 13.8347 55.6559 16.9701L42.2842 17.8001C42.2842 17.8001 21.3506 19.6223 21.8117 18.8956" fill="#AF1423"/>
<path d="M27.394 7.354C27.394 7.354 27.5904 8.03816 27.5129 8.18799C27.4354 8.33781 27.3786 8.84417 28.0606 9.00956C28.7426 9.17487 28.9906 8.72535 28.97 8.55479C28.9493 8.38439 28.7994 7.91927 28.8976 7.71265C28.9958 7.50595 27.394 7.354 27.394 7.354Z" fill="#231A1D"/>
<path d="M30.274 6.77843C30.2708 6.64216 30.2499 6.49259 30.2043 6.32937C29.9098 5.27399 29.3208 5.37886 29.3208 5.37886C29.3208 5.37886 27.074 5.96458 27.183 7.07361C27.778 7.0745 29.4942 7.05242 30.274 6.77843Z" fill="#9C0D11"/>
<path d="M27.1831 7.07286C27.1842 7.08439 27.1852 7.09587 27.1869 7.10756C27.347 8.23902 29.7704 7.87233 29.7704 7.87233C29.7704 7.87233 30.291 7.52332 30.274 6.77783C29.4943 7.05174 27.7781 7.07383 27.1831 7.07286Z" fill="#160106"/>
<path d="M23.4347 20.4743C23.4252 20.4743 23.4147 20.4723 23.4037 20.4673C23.181 20.3665 23.0197 19.134 22.9494 16.9965C22.8448 13.8147 22.8296 8.40443 23.9029 7.92011L23.9282 7.97609C23.1681 8.31906 22.8337 11.6061 23.0108 16.9944C23.1081 19.9544 23.3501 20.3548 23.4219 20.407C23.4285 20.4119 23.4329 20.4127 23.4346 20.4127L23.4406 20.4077L23.4514 20.4076C23.6026 20.4058 38.6163 20.2215 42.1411 20.0798C45.0772 19.9617 45.3414 19.1542 45.5971 18.3734C45.6503 18.2109 45.7052 18.043 45.7832 17.8837C46.0908 17.2545 46.8223 14.3256 47.3565 12.1873C47.6036 11.198 47.817 10.3437 47.9331 9.93719C48.2934 8.67592 47.2309 7.33565 47.2201 7.32226L47.268 7.28369C47.279 7.29733 48.3612 8.66252 47.9922 9.95405C47.8764 10.3595 47.663 11.2134 47.4161 12.2021C46.8813 14.3432 46.1489 17.2756 45.8384 17.9107C45.7624 18.0662 45.7081 18.2321 45.6555 18.3926C45.3934 19.1934 45.1223 20.0215 42.1436 20.1414C38.65 20.2818 23.8755 20.4641 23.4599 20.4692C23.453 20.4723 23.4444 20.4743 23.4347 20.4743Z" fill="#6D030B"/>
<path d="M20.8132 19.5932C20.8132 22.9732 18.0731 25.7131 14.6931 25.7131C11.3133 25.7131 8.57324 22.9732 8.57324 19.5932C8.57324 16.213 11.3132 13.4731 14.6931 13.4731C18.0731 13.4731 20.8132 16.213 20.8132 19.5932Z" fill="#27262C"/>
<path d="M10.0845 19.5934C10.0845 22.1466 12.1544 24.2164 14.7079 24.2164C17.2612 24.2164 19.3307 22.1467 19.3307 19.5934C19.3307 17.0402 17.2612 14.9702 14.7079 14.9702C12.1544 14.9702 10.0845 17.0402 10.0845 19.5934Z" fill="#C3BFBE"/>
<path d="M13.1034 16.4934L14.1733 17.7094C14.1733 17.7094 14.3581 18.0011 14.6109 18.0011C14.8639 18.0011 15.0488 17.7969 15.0488 17.7969L16.1672 16.4934C16.1672 16.4934 16.3228 16.3085 16.1672 16.1824C16.0119 16.0558 15.4658 15.8711 14.708 15.8711C13.9495 15.871 12.8309 16.0752 13.1034 16.4934Z" fill="#27262C"/>
<path d="M13.1033 22.6925L14.1732 21.4766C14.1732 21.4766 14.3583 21.1851 14.6111 21.1851C14.8637 21.1851 15.049 21.3892 15.049 21.3892L16.1674 22.6925C16.1674 22.6925 16.323 22.8773 16.1674 23.0036C16.0118 23.1302 15.4658 23.315 14.708 23.315C13.9496 23.3151 12.831 23.1108 13.1033 22.6925Z" fill="#27262C"/>
<path d="M17.8453 18.0473L16.6293 19.1172C16.6293 19.1172 16.3374 19.3018 16.3374 19.5547C16.3374 19.808 16.5417 19.9926 16.5417 19.9926L17.8452 21.1112C17.8452 21.1112 18.0301 21.2668 18.1561 21.1112C18.2828 20.9558 18.4676 20.4096 18.4676 19.6515C18.4676 18.8934 18.2634 17.7746 17.8453 18.0473Z" fill="#27262C"/>
<path d="M11.6462 18.0473L12.8621 19.1172C12.8621 19.1172 13.1538 19.3018 13.1538 19.5547C13.1538 19.8077 12.9494 19.9925 12.9494 19.9925L11.6462 21.1112C11.6462 21.1112 11.4614 21.2668 11.3345 21.1112C11.2083 20.9554 11.0234 20.4096 11.0234 19.6515C11.0234 18.8934 11.228 17.7746 11.6462 18.0473Z" fill="#27262C"/>
<path d="M68.7386 19.5932C68.7386 22.9732 65.9984 25.7131 62.6184 25.7131C59.2386 25.7131 56.4985 22.9732 56.4985 19.5932C56.4985 16.213 59.2386 13.4731 62.6184 13.4731C65.9984 13.4731 68.7386 16.213 68.7386 19.5932Z" fill="#27262C"/>
<path d="M58.0103 19.5934C58.0103 22.1466 60.0802 24.2164 62.6338 24.2164C65.1869 24.2164 67.2564 22.1467 67.2564 19.5934C67.2564 17.0402 65.1869 14.9702 62.6338 14.9702C60.0802 14.9702 58.0103 17.0402 58.0103 19.5934Z" fill="#C3BFBE"/>
<path d="M61.0287 16.4934L62.0987 17.7094C62.0987 17.7094 62.2835 18.0011 62.5364 18.0011C62.7893 18.0011 62.9741 17.7969 62.9741 17.7969L64.0926 16.4934C64.0926 16.4934 64.2483 16.3085 64.0926 16.1824C63.9372 16.0558 63.3912 15.8711 62.6334 15.8711C61.8747 15.871 60.7562 16.0752 61.0287 16.4934Z" fill="#27262C"/>
<path d="M61.0286 22.6925L62.0984 21.4766C62.0984 21.4766 62.2835 21.1851 62.5365 21.1851C62.7891 21.1851 62.9743 21.3892 62.9743 21.3892L64.0927 22.6925C64.0927 22.6925 64.2484 22.8773 64.0927 23.0036C63.9372 23.1302 63.3911 23.315 62.6334 23.315C61.8748 23.3151 60.7563 23.1108 61.0286 22.6925Z" fill="#27262C"/>
<path d="M65.771 18.0473L64.5551 19.1172C64.5551 19.1172 64.2632 19.3018 64.2632 19.5547C64.2632 19.808 64.4675 19.9926 64.4675 19.9926L65.771 21.1112C65.771 21.1112 65.956 21.2668 66.0819 21.1112C66.2086 20.9558 66.3934 20.4096 66.3934 19.6515C66.3934 18.8934 66.1891 17.7746 65.771 18.0473Z" fill="#27262C"/>
<path d="M59.572 18.0473L60.7879 19.1172C60.7879 19.1172 61.0796 19.3018 61.0796 19.5547C61.0796 19.8077 60.8752 19.9925 60.8752 19.9925L59.572 21.1112C59.572 21.1112 59.3872 21.2668 59.2603 21.1112C59.1341 20.9554 58.9492 20.4096 58.9492 19.6515C58.9492 18.8934 59.1537 17.7746 59.572 18.0473Z" fill="#27262C"/>
</svg>
