<svg width="87" height="29" viewBox="0 0 87 29" fill="none" xmlns="http://www.w3.org/2000/svg">
<path d="M75.2095 21.518L75.5951 21.76C75.5951 21.76 77.8236 21.6116 78.1431 21.639C78.4628 21.6664 79.1705 21.461 79.8554 22.2143C79.8554 22.2143 81.0197 21.9175 81.1111 21.7463C81.2023 21.5751 80.1798 20.9873 79.7185 20.8103C79.2569 20.6333 76.1341 20.639 75.7916 20.7189C75.4492 20.7988 75.2095 21.518 75.2095 21.518Z" fill="#C3BFBE"/>
<path d="M84.2042 17.5586C84.2042 17.5586 86.2367 17.6132 86.3278 17.9331C86.4187 18.2531 85.7405 20.2054 85.7405 20.2054C85.7405 20.2054 85.5512 20.8442 85.1517 20.89C84.7522 20.9356 81.4532 20.7073 80.9625 20.205C80.4716 19.7028 84.2042 17.5586 84.2042 17.5586Z" fill="black"/>
<path d="M6.82247 12.9795C6.82247 12.9795 4.69955 13.1072 4.48034 13.0732C4.26121 13.0393 4.39719 12.9067 4.5844 12.3029C4.73098 11.8307 4.43811 11.3511 4.30366 11.1646C3.93572 11.2366 3.60519 11.3656 3.39777 11.5846C3.39777 11.5846 2.77088 12.4227 2.47089 13.1562C2.40001 13.3293 2.34746 13.4966 2.32564 13.6456C2.21105 14.4263 2.03416 16.7163 2.25274 16.9245C2.47139 17.1326 5.01111 17.0783 5.01111 17.0783L6.6871 15.3943L7.72096 13.0749L6.82247 12.9795Z" fill="#C5D6E2"/>
<path d="M4.58536 12.3035C4.39808 12.9072 4.26217 13.0399 4.4813 13.0737C4.70051 13.1078 6.82343 12.9801 6.82343 12.9801L7.72199 13.0756L8.31207 11.7518L6.43832 11.1689C6.43832 11.1689 5.24793 10.9803 4.30469 11.1652C4.43914 11.3517 4.73194 11.8313 4.58536 12.3035Z" fill="#B95E25"/>
<path d="M3.78817 14.6416H7.71213L7.21845 16.9398H3.90039C3.90039 16.9398 3.66891 16.1558 3.71059 15.5521C3.75206 14.9484 3.65783 14.6992 3.78817 14.6416Z" fill="#B95E25"/>
<path d="M3.36733 11.638L3.17969 11.92C3.17969 11.92 3.97106 11.6588 4.14803 11.638C4.32493 11.6172 6.13615 11.4194 6.42777 12.2313C6.71912 13.0432 5.04925 14.6937 4.85367 17.0797L5.50132 16.7801L7.99958 13.5325L7.62487 12.0231L6.68797 11.5131C6.68797 11.5131 4.13772 10.9198 3.3674 11.5964" fill="black"/>
<path d="M2.59671 13.2184C2.56618 13.2184 2.54131 13.1898 2.54054 13.1594C2.53991 13.1284 2.56444 13.1006 2.59538 13.0999L6.23853 13.0186C6.26871 13.0177 6.29519 13.0418 6.29582 13.0728C6.29652 13.1037 6.27192 13.1334 6.24098 13.1341L2.59783 13.2184C2.59756 13.2184 2.59692 13.2184 2.59671 13.2184Z" fill="black"/>
<path d="M5.58283 14.4735H2.38758C2.3567 14.4735 2.33154 14.4696 2.33154 14.4387C2.33154 14.4078 2.35663 14.4038 2.38758 14.4038H5.58283C5.61391 14.4038 5.63886 14.4078 5.63886 14.4387C5.63886 14.4696 5.61391 14.4735 5.58283 14.4735Z" fill="black"/>
<path d="M4.34958 13.2676H5.97519L5.52236 14.1645H4.2373L4.34958 13.2676Z" fill="black"/>
<path d="M0.937985 18.4126C0.937985 18.4126 0.419138 18.783 0.56488 19.3867C0.710553 19.9905 1.00287 21.1229 1.00287 21.1229C1.00287 21.1229 0.986148 21.4862 1.93337 21.6111C2.88066 21.736 3.14321 21.8181 3.14321 21.8181V22.3768C3.14321 22.3768 2.426 22.5155 2.44691 22.8174C2.46782 23.1193 3.22413 23.3587 6.18038 23.3587L6.25692 22.3386L8.51741 22.3595L19.0005 22.1617C19.0005 22.1617 21.1557 22.807 21.9572 22.9632C22.7588 23.1194 23.7999 23.2921 24.0602 23.2786C24.3205 23.2651 24.5808 21.2665 24.5808 21.2665L21.385 13.0121L8.61284 12.3042L6.98305 15.5102L5.84401 17.0195L5.57336 17.0797L3.17736 17.0612C3.17736 17.0612 1.88847 17.5505 1.62814 17.8315C1.36802 18.1124 0.937985 18.4126 0.937985 18.4126Z" fill="#010101"/>
<path d="M54.963 11.3857L53.1506 8.78223C53.1506 8.78223 52.4212 9.09099 52.0402 9.03488C51.659 8.97885 34.3384 12.8465 34.3384 12.8465L21.0089 20.4834C21.0089 20.4834 20.7172 22.5439 21.558 22.8803C22.3988 23.2166 27.388 23.2726 27.388 23.2726L54.0145 22.8803C54.0145 22.8803 54.9674 23.3281 56.1447 23.2721C57.3217 23.2161 58.1627 22.767 58.1627 22.767H59.508C59.508 22.767 62.0866 22.7063 63.3198 22.5381C64.5529 22.3699 73.0174 21.8609 73.0174 21.8609H75.5873V20.8063V11.6134L54.963 11.3857Z" fill="black"/>
<path d="M32.2123 1.65678L31.3302 1.4502C31.3302 1.4502 21.6813 7.29516 20.7965 9.93226C19.9117 12.5692 23.8 7.96105 23.8 7.96105L32.2123 1.65678Z" fill="#C5D6E2"/>
<path d="M28.5017 3.66922C29.4842 3.03029 31.6671 1.67292 31.6671 1.67292L31.4394 1.41553C31.354 1.43992 31.3107 1.45365 31.3301 1.45044C31.4422 1.43177 31.5729 1.65613 31.5729 1.65613C29.1998 2.68383 24.0986 6.94433 23.6876 7.29931C23.2765 7.65435 21.8001 8.64539 21.4078 8.71851C21.3978 8.72039 21.3868 8.72212 21.3755 8.72387C21.8982 9.04009 27.1097 4.57432 28.5017 3.66922Z" fill="#222222"/>
<path d="M52.0653 21.6226C51.841 21.4918 51.9591 20.8162 51.9591 20.8162L51.5668 21.3674C51.6789 21.0871 52.4636 10.4554 52.445 8.45619C52.4262 6.4569 51.9218 1.82315 51.4173 1.0196C50.9128 0.216192 48.9134 0.234874 43.0088 0.328339C37.1045 0.421804 34.0398 0.926278 33.6102 0.926278C33.2545 0.926278 31.8499 1.29743 31.4398 1.41473L31.6676 1.67212C31.6676 1.67212 29.4846 3.02949 28.5021 3.66842C27.1101 4.57359 21.8986 9.03929 21.376 8.72307C20.9441 8.79012 19.5834 8.77534 19.1282 8.7207C18.6609 8.66466 8.25202 10.1437 6.58906 10.4426C4.92609 10.7415 4.34479 10.8894 3.73283 11.1392C3.12086 11.3888 3.17976 11.9195 3.17976 11.9195C4.75706 10.8797 6.42332 11.8194 6.59151 12.0811C6.75962 12.3426 6.16173 13.6318 5.76932 14.3419C5.37691 15.0519 4.85368 17.0793 4.85368 17.0793H7.30146C7.97406 15.2855 8.85235 14.5802 9.73057 14.1878C10.6087 13.7954 17.1486 12.9219 18.8116 14.1178C20.4745 15.3136 21.0538 20.7882 21.0911 21.1806C21.1285 21.573 21.4461 21.8907 21.4461 21.8907C21.4836 22.3391 21.8806 22.4886 21.8806 22.4886L52.585 22.2083V21.7592C52.585 21.7592 52.2896 21.7534 52.0653 21.6226Z" fill="#DEDEDE"/>
<path d="M82.8929 8.93701L84.6202 9.88958C84.6202 9.88958 84.9814 10.7628 85.0052 12.0637C85.0292 13.3645 85.1126 16.0616 84.6831 16.5867C84.2533 17.1118 81.6517 15.0113 81.6397 14.8204C81.6278 14.6295 82.8929 8.93701 82.8929 8.93701Z" fill="#AE222F"/>
<path d="M53.1525 8.78296C53.1525 8.78296 52.8306 8.68747 52.8306 9.20268C52.8306 9.71796 52.7555 13.9162 52.6983 15.2903C52.641 16.6643 51.8713 21.4121 52.0753 21.5368C52.2796 21.6616 52.8901 21.7716 52.8901 21.7716L52.8712 22.2799H57.6017C57.6017 22.2799 58.3674 21.9278 58.7873 21.9278C59.2072 21.9278 59.3406 21.6338 59.3406 21.3666C59.3406 21.0995 59.8751 15.6187 62.375 14.5309C64.8751 13.4431 71.2683 13.5079 71.2683 13.5079C71.2683 13.5079 73.4629 13.4258 74.169 15.7732C74.8751 18.1204 75.1233 20.4458 74.7416 21.1901L79.398 20.6161C79.398 20.6161 83.3102 20.4627 83.921 19.2605C84.5317 18.0582 84.7797 16.3976 84.7797 16.3976C84.7797 16.3976 83.9972 16.1494 83.7682 15.0616C83.5393 13.9739 83.024 12.5805 83.0048 12.2371C82.9858 11.8935 82.5892 10.3859 83.0662 10.1187C83.5435 9.85157 84.5782 9.88969 84.5782 9.88969V8.92361C84.5782 8.92361 84.6542 8.47754 84.2342 8.47754C83.8145 8.47747 53.1525 8.78296 53.1525 8.78296Z" fill="#DEDEDE"/>
<path d="M6.98305 17.3872H2.49856C2.49856 17.3872 0.982813 17.4352 0.857911 18.1326C0.732939 18.83 0.899522 19.0902 1.01397 19.111C1.12856 19.1318 6.58291 19.111 6.58291 19.111C6.58291 19.111 6.6648 18.1408 6.98305 17.3872Z" fill="#DEDEDE"/>
<path d="M52.7524 16.1543V17.5276H57.3772C57.3772 17.5276 57.6049 17.5279 57.673 17.4599C57.7409 17.392 57.7414 17.1515 57.7414 17.1515V16.4905C57.7414 16.4905 57.7313 16.1728 57.5044 16.1542C57.2778 16.1357 52.7524 16.1543 52.7524 16.1543Z" fill="#222222"/>
<path d="M57.3774 17.528C57.3774 17.528 57.7137 17.7814 58.237 16.8372C58.7601 15.8931 59.5823 12.231 61.2266 11.7825C62.8708 11.334 77.3707 10.1008 77.3707 10.1008C77.3707 10.1008 62.0862 9.80191 60.4045 11.4462C58.7227 13.0904 58.4613 17.1077 57.3774 17.528Z" fill="#D3D3D3"/>
<path d="M24.4583 9.01116C24.4583 9.01116 24.2612 8.17847 25.0939 7.54304C25.9265 6.9076 30.2213 3.48939 30.2213 3.48939C30.2213 3.48939 32.2373 1.868 34.8666 1.6488C37.4962 1.42967 40.8487 1.3859 40.8487 1.3859C40.8487 1.3859 41.6374 1.34205 41.6595 1.97749C41.6814 2.61293 41.2213 8.22231 41.2213 8.22231C41.2213 8.22231 41.3528 8.68239 40.9583 8.92348C40.5639 9.1645 39.6874 9.12072 39.6874 9.12072L25.7732 9.77805C25.7732 9.77805 24.6117 9.71232 24.4583 9.01116Z" fill="#1E1E1E"/>
<path d="M40.7398 8.33219L41.2437 2.32838C41.2437 2.32838 41.4189 1.86816 40.9917 1.86816C40.5645 1.86816 34.9331 1.86817 32.8733 2.76657C30.8136 3.66498 26.2119 6.40392 25.5328 8.33212C24.8535 10.2604 26.6722 9.07712 26.6722 9.07712L29.3455 9.03328L39.6004 8.57314C39.6003 8.57327 40.7083 8.70751 40.7398 8.33219Z" fill="#C5D6E2"/>
<path d="M50.2583 7.23202C50.2583 8.13203 49.5287 8.96771 48.6286 8.96771H45.1615C44.2614 8.96771 43.3159 8.02594 43.3159 7.12593V2.70574C43.3159 1.8058 44.2613 1.37061 45.1615 1.37061H48.1803C49.0802 1.37061 49.6734 1.65818 49.9738 2.85664L50.2583 7.23202Z" fill="#C5D6E2"/>
<path d="M48.1804 1.63617C48.9004 1.63617 49.3713 1.82729 49.6401 2.86962L49.9221 7.25475C49.9168 7.99174 49.3146 8.64293 48.6288 8.64293H45.1616C44.4515 8.64293 43.6439 7.83541 43.6439 7.12547V2.70527C43.6439 2.01854 44.4294 1.63624 45.1616 1.63624H48.1844M48.1804 1.2998H45.1616C44.2615 1.2998 43.3076 1.80526 43.3076 2.7052V7.12539C43.3076 8.0254 44.2615 8.97922 45.1616 8.97922H48.6288C49.5289 8.97922 50.2584 8.13755 50.2584 7.23747L49.9739 2.8239C49.6735 1.62551 49.0804 1.2998 48.1804 1.2998Z" fill="#1E1E1E"/>
<path d="M24.2664 16.1543C23.885 16.1543 23.7998 16.4636 23.7998 16.8451V16.8649C23.7998 17.2465 23.8851 17.5557 24.2664 17.5557H42.3544V16.1544H24.2664V16.1543Z" fill="#222222"/>
<path d="M51.7727 16.8451C51.7727 16.4636 51.7997 16.1543 51.4181 16.1543H42.8037V17.5557H51.4181C51.7997 17.5557 51.7727 17.2464 51.7727 16.8648V16.8451Z" fill="#222222"/>
<path d="M24.5812 9.14064C24.5812 9.14064 24.4468 8.35988 25.2498 8.16661L25.3464 7.16288C25.3464 7.16288 25.3093 6.64244 25.6141 6.50855C25.919 6.37473 27.4878 5.99558 28.1347 6.09225C28.7816 6.18885 28.5882 7.89897 28.5735 8.15922C28.5584 8.4194 28.6403 8.8953 28.2089 9.05142C27.7778 9.20747 26.328 9.69084 26.1272 9.76521C25.9264 9.83957 24.5519 10.07 24.5812 9.14064Z" fill="#040404"/>
<path d="M42.6185 20.3984H42.5488V11.0541L42.7878 0.331055L42.8994 0.333981L42.6185 11.0555V20.3984Z" fill="#222222"/>
<path d="M23.2936 20.8077L23.2797 20.7704C23.0249 20.0788 22.2621 14.9099 22.4171 13.011C22.5652 11.1966 23.4357 7.52227 23.4446 7.48471L23.5833 7.38428C23.5743 7.42164 22.6761 11.2143 22.5286 13.0201C22.3818 14.82 23.1127 19.8879 23.3723 20.6944L51.6802 20.2892L51.6818 20.4013L23.2936 20.8077Z" fill="#222222"/>
<path d="M19.4205 22.3187C19.578 19.0074 17.0213 16.1954 13.7099 16.0379C10.3986 15.8804 7.58662 18.4372 7.42916 21.7485C7.27169 25.0598 9.8284 27.8718 13.1397 28.0292C16.451 28.1867 19.263 25.63 19.4205 22.3187Z" fill="#27262C"/>
<path d="M8.89355 22.033C8.89355 24.5371 10.9236 26.5671 13.4281 26.5671C15.9321 26.5671 17.962 24.5371 17.962 22.033C17.962 19.529 15.9321 17.499 13.4281 17.499C10.9236 17.499 8.89355 19.529 8.89355 22.033Z" fill="#C3BFBE"/>
<path d="M11.855 18.9922L12.9045 20.1846C12.9045 20.1846 13.0856 20.4708 13.3339 20.4708C13.5818 20.4708 13.7628 20.2705 13.7628 20.2705L14.8603 18.9922C14.8603 18.9922 15.0128 18.8108 14.8603 18.687C14.7077 18.5629 14.172 18.3818 13.4287 18.3818C12.685 18.3818 11.5877 18.5821 11.855 18.9922Z" fill="#27262C"/>
<path d="M11.855 25.0729L12.9042 23.8804C12.9042 23.8804 13.0856 23.5942 13.3336 23.5942C13.5816 23.5942 13.7628 23.7946 13.7628 23.7946L14.8599 25.0729C14.8599 25.0729 15.0127 25.2541 14.8599 25.378C14.7072 25.5021 14.1719 25.6834 13.4283 25.6834C12.6846 25.6834 11.5877 25.4831 11.855 25.0729Z" fill="#27262C"/>
<path d="M16.5048 20.5166L15.3126 21.5658C15.3126 21.5658 15.0264 21.7472 15.0264 21.9951C15.0264 22.2434 15.2266 22.4244 15.2266 22.4244L16.5049 23.5215C16.5049 23.5215 16.6864 23.6743 16.8103 23.5215C16.9341 23.3689 17.1158 22.8335 17.1158 22.09C17.1156 21.3464 16.9151 20.2495 16.5048 20.5166Z" fill="#27262C"/>
<path d="M10.4259 20.5166L11.6186 21.5658C11.6186 21.5658 11.9046 21.7471 11.9046 21.995C11.9046 22.2432 11.7044 22.4244 11.7044 22.4244L10.4259 23.5214C10.4259 23.5214 10.2447 23.6741 10.1207 23.5214C9.99673 23.3688 9.81543 22.8333 9.81543 22.0899C9.81543 21.3465 10.0158 20.2494 10.4259 20.5166Z" fill="#27262C"/>
<path d="M19.4205 22.3187C19.578 19.0074 17.0213 16.1954 13.7099 16.0379C10.3986 15.8804 7.58662 18.4372 7.42916 21.7485C7.27169 25.0598 9.8284 27.8718 13.1397 28.0292C16.451 28.1867 19.263 25.63 19.4205 22.3187Z" fill="#27262C"/>
<path d="M8.89355 22.033C8.89355 24.5371 10.9236 26.5671 13.4281 26.5671C15.9321 26.5671 17.962 24.5371 17.962 22.033C17.962 19.529 15.9321 17.499 13.4281 17.499C10.9236 17.499 8.89355 19.529 8.89355 22.033Z" fill="#C3BFBE"/>
<path d="M11.855 18.9922L12.9045 20.1846C12.9045 20.1846 13.0856 20.4708 13.3339 20.4708C13.5818 20.4708 13.7628 20.2705 13.7628 20.2705L14.8603 18.9922C14.8603 18.9922 15.0128 18.8108 14.8603 18.687C14.7077 18.5629 14.172 18.3818 13.4287 18.3818C12.685 18.3818 11.5877 18.5821 11.855 18.9922Z" fill="#27262C"/>
<path d="M11.855 25.0729L12.9042 23.8804C12.9042 23.8804 13.0856 23.5942 13.3336 23.5942C13.5816 23.5942 13.7628 23.7946 13.7628 23.7946L14.8599 25.0729C14.8599 25.0729 15.0127 25.2541 14.8599 25.378C14.7072 25.5021 14.1719 25.6834 13.4283 25.6834C12.6846 25.6834 11.5877 25.4831 11.855 25.0729Z" fill="#27262C"/>
<path d="M16.5048 20.5166L15.3126 21.5658C15.3126 21.5658 15.0264 21.7472 15.0264 21.9951C15.0264 22.2434 15.2266 22.4244 15.2266 22.4244L16.5049 23.5215C16.5049 23.5215 16.6864 23.6743 16.8103 23.5215C16.9341 23.3689 17.1158 22.8335 17.1158 22.09C17.1156 21.3464 16.9151 20.2495 16.5048 20.5166Z" fill="#27262C"/>
<path d="M10.4259 20.5166L11.6186 21.5658C11.6186 21.5658 11.9046 21.7471 11.9046 21.995C11.9046 22.2432 11.7044 22.4244 11.7044 22.4244L10.4259 23.5214C10.4259 23.5214 10.2447 23.6741 10.1207 23.5214C9.99673 23.3688 9.81543 22.8333 9.81543 22.0899C9.81543 21.3465 10.0158 20.2494 10.4259 20.5166Z" fill="#27262C"/>
<path d="M73.2704 22.9944C73.8015 19.7222 71.5793 16.639 68.3071 16.108C65.0348 15.5769 61.9516 17.7991 61.4206 21.0713C60.8895 24.3435 63.1117 27.4266 66.3839 27.9576C69.6561 28.4887 72.7393 26.2666 73.2704 22.9944Z" fill="#27262C"/>
<path d="M62.8193 22.033C62.8193 24.5371 64.8496 26.5671 67.3539 26.5671C69.858 26.5671 71.888 24.5371 71.888 22.033C71.888 19.529 69.858 17.499 67.3539 17.499C64.8496 17.499 62.8193 19.529 62.8193 22.033Z" fill="#C3BFBE"/>
<path d="M65.7808 18.9927L66.8303 20.1851C66.8303 20.1851 67.0112 20.4713 67.2595 20.4713C67.5074 20.4713 67.6884 20.2709 67.6884 20.2709L68.7858 18.9927C68.7858 18.9927 68.9385 18.8113 68.7858 18.6875C68.6333 18.5634 68.0978 18.3823 67.3543 18.3823C66.6106 18.3823 65.5136 18.5826 65.7808 18.9927Z" fill="#27262C"/>
<path d="M65.7808 25.0734L66.8299 23.8808C66.8299 23.8808 67.0113 23.5947 67.2593 23.5947C67.5073 23.5947 67.6885 23.795 67.6885 23.795L68.7857 25.0734C68.7857 25.0734 68.9386 25.2546 68.7857 25.3784C68.633 25.5026 68.0977 25.6839 67.3542 25.6839C66.6106 25.6839 65.5137 25.4836 65.7808 25.0734Z" fill="#27262C"/>
<path d="M70.4311 20.5171L69.2388 21.5663C69.2388 21.5663 68.9526 21.7477 68.9526 21.9956C68.9526 22.2439 69.153 22.4249 69.153 22.4249L70.4312 23.522C70.4312 23.522 70.6127 23.6748 70.7365 23.522C70.8604 23.3694 71.042 22.834 71.042 22.0905C71.042 21.3469 70.8414 20.25 70.4311 20.5171Z" fill="#27262C"/>
<path d="M64.3509 20.5171L65.5434 21.5663C65.5434 21.5663 65.8295 21.7476 65.8295 21.9955C65.8295 22.2437 65.6292 22.4248 65.6292 22.4248L64.3509 23.5219C64.3509 23.5219 64.1696 23.6746 64.0456 23.5219C63.9216 23.3692 63.7402 22.8338 63.7402 22.0904C63.7402 21.347 63.9408 20.2498 64.3509 20.5171Z" fill="#27262C"/>
<path d="M84.6759 17.8887H86.1333C86.1333 17.8887 86.4757 17.9142 86.4186 18.2794C86.3618 18.6447 86.246 20.2296 85.5505 20.2754C84.8549 20.3209 83.5878 20.6225 83.5422 20.4399C83.4965 20.2573 84.0558 19.8808 84.2385 19.4585C84.4212 19.0361 84.5767 17.8887 84.6759 17.8887Z" fill="#DEDEDE"/>
<path d="M37.0428 11.0779C37.0428 11.0779 37.0637 10.6658 37.294 10.6499C37.524 10.634 37.8886 10.5777 37.8886 10.5777C37.8886 10.5777 38.261 10.1004 38.6738 10.1004C39.0866 10.1004 39.5524 10.1004 39.5524 10.1004C39.5524 10.1004 40.309 9.98843 40.6503 10.5489H41.4023C41.4023 10.5489 41.7773 10.5623 41.7931 11.0708C41.809 11.5794 41.4281 11.4842 41.4281 11.4842L40.6581 11.4984C40.6581 11.4984 40.309 12.0064 40.0152 12.0064C39.7215 12.0064 39.1599 12.0064 39.1599 12.0064C39.1599 12.0064 38.3482 12.0636 38.1577 11.8017C37.9672 11.5398 37.7846 11.5318 37.7846 11.5318L37.3719 11.508C37.3719 11.508 36.962 11.3818 37.0428 11.0779Z" fill="#1A1A1A"/>
</svg>
