<svg width="79" height="31" viewBox="0 0 79 31" fill="none" xmlns="http://www.w3.org/2000/svg">
<path d="M58.1149 24.9811L59.157 25.5979C59.157 25.5979 60.0746 25.0582 60.6142 25.2895C61.1538 25.5208 70.7537 25.2375 70.7537 25.2375C70.7537 25.2375 72.7418 25.5026 73.0827 24.2904C73.4235 23.0783 74.3008 14.6361 65.0165 16.3185C55.7322 18.001 57.9161 23.2486 58.1149 24.9811Z" fill="black"/>
<path d="M7.41699 24.6124L9.28707 26.0379C9.28707 26.0379 10.6548 25.5212 10.9957 25.6348C11.3365 25.7485 21.0215 26.4554 21.0215 26.4554C21.0215 26.4554 23.6061 26.6968 24.3445 26.0379C25.083 25.3792 21.1635 14.4148 15.5683 15.4947C9.97312 16.5745 7.41699 24.6124 7.41699 24.6124Z" fill="black"/>
<path d="M3.08256 17.9468L2.68115 16.7641C2.68115 16.7641 4.92248 12.6112 9.04108 13.0781C13.1596 13.5451 3.08256 17.9468 3.08256 17.9468Z" fill="#CBCDCC"/>
<path d="M70.9741 1.97754L75.6267 12.2372H77.7749C77.2539 9.69433 75.6823 5.53783 70.9741 1.97754Z" fill="#FF5963"/>
<path d="M75.627 12.2373L76.6495 14.4923L77.4954 14.63C77.4954 14.63 77.8548 14.6374 77.9119 14.583C77.9982 14.5007 78.0707 13.6803 77.775 12.2373H75.627Z" fill="#FF331B"/>
<path d="M15.166 11.1938L15.5801 10.4484C15.5801 10.4484 29.2993 1.39421 34.8754 1.55986C40.4515 1.72551 16.6566 14.037 15.166 11.1938Z" fill="#788D9E"/>
<path d="M78.0694 20.7899C78.0694 20.7899 77.9405 20.2129 78.0211 18.8249C76.0901 18.8249 72.9785 18.8249 72.3675 18.8249C71.4685 18.8249 70.3767 18.1177 70.3767 17.4861C70.3767 16.8545 70.7163 16.9506 70.7163 16.9506H77.6563V14.5816L77.3114 14.5398C77.3114 14.5398 77.3636 13.1183 76.841 10.6727C76.3185 8.22692 74.04 5.17511 72.744 3.27293C71.4481 1.37074 70.591 1.51711 67.1838 1.01536C63.7766 0.513607 49.0816 0.283691 49.0816 0.283691C49.0816 0.283691 40.1559 0.576355 35.9962 1.18254C31.8364 1.78873 27.5512 4.08816 26.0461 4.90329C24.541 5.71858 18.5923 10.2242 18.5923 10.2242C18.2871 10.4149 16.0279 10.2242 16.0279 10.2242C13.1586 10.4244 7.0382 13.227 7.0382 13.227C7.2193 13.2079 8.12421 13.4081 8.12421 13.4081C8.84867 13.8563 7.6844 14.6188 7.27451 14.9335C6.86463 15.2482 4.76487 16.4587 4.04986 16.6971C3.33492 16.9355 2.68152 16.7639 2.68152 16.7639C2.42409 17.0689 2.02285 18.4988 2.02285 18.4988C2.02285 18.4988 1.44763 18.7782 1.13281 19.3251L8.74256 19.2272C8.74256 19.2272 9.45286 19.1836 9.38035 19.517C9.30785 19.8504 8.80049 20.8505 7.84388 20.923C7.03236 20.9845 2.49755 21.0043 1.14018 21.0088C1.32583 21.4183 1.56855 21.6676 1.56855 21.6676V22.798C1.23413 23.1697 1.30135 23.6599 1.30135 23.6599C1.69547 26.0242 9.28745 26.0371 9.28745 26.0371C8.62405 21.5018 9.97165 17.3198 15.8245 17.3198C21.1133 17.3198 22.2202 22.3539 22.3845 23.9569L59.269 23.7918C59.6188 21.4212 60.9802 17.5513 66.1387 17.5079C73.5802 17.4452 72.279 25.0749 72.279 25.0749C72.279 25.0749 76.1199 24.4478 77.4159 23.758C78.7119 23.0682 78.0694 20.7899 78.0694 20.7899Z" fill="#A71A10"/>
<path d="M9.3801 19.5173C9.4526 19.1839 8.7423 19.2275 8.7423 19.2275L1.13256 19.3254C1.02405 19.5139 0.946265 19.7342 0.934022 19.986C0.914816 20.382 1.01437 20.7322 1.13985 21.0092C2.4973 21.0046 7.03211 20.9848 7.84355 20.9234C8.80024 20.8509 9.3076 19.8507 9.3801 19.5173Z" fill="#2C2D32"/>
<path d="M22.4089 24.3432C22.4089 25.2003 22.8687 26.4545 22.8687 26.4545L59.1567 25.5975C59.1567 25.5975 59.1199 24.9489 59.2374 24.0195L22.4028 24.1842C22.4065 24.2471 22.4089 24.3028 22.4089 24.3432Z" fill="#9B1310"/>
<path d="M22.4023 24.1839L59.2369 24.0192C59.2464 23.9451 59.2569 23.8691 59.2683 23.7915L22.3838 23.9565C22.3926 24.0437 22.3984 24.1183 22.4023 24.1839Z" fill="#BA1C19"/>
<path d="M23.1196 20.1838L57.4635 19.3058C57.4635 19.3058 59.0731 19.4311 59.533 18.2188C59.533 18.2188 59.7001 17.8843 58.655 17.9052C57.6098 17.9262 22.8268 19.1386 22.8268 19.1386C22.8268 19.1386 22.3461 19.682 23.1196 20.1838Z" fill="#28272D"/>
<path d="M45.4227 13.5155C45.4227 13.8784 43.3498 13.9173 40.7926 13.9173C38.2355 13.9173 36.1626 13.9387 36.1626 13.5155C36.1626 13.1138 38.2355 13.1138 40.7926 13.1138C43.3498 13.1138 45.4227 13.1534 45.4227 13.5155Z" fill="#C1B8BD"/>
<path d="M70.23 17.4515C70.23 18.0832 71.4688 18.9087 72.3678 18.9087C72.9789 18.9087 76.0905 18.9087 78.0214 18.9087C78.025 18.7414 78.0284 18.7856 78.0329 18.7205C78.1374 17.1946 77.6566 16.9019 77.6566 16.9019H70.7167C70.7167 16.9019 70.23 16.8199 70.23 17.4515Z" fill="#2C2D32"/>
<path d="M18.5098 12.2373L40.826 10.9566L69.9792 9.77104C69.9792 9.77104 72.8818 9.81193 73.0862 8.91246C73.2906 8.01314 71.8457 4.2929 70.9738 3.39358C70.1018 2.49411 70.2654 2.41233 69.734 2.24884C69.2025 2.08527 58.9822 1.39025 54.7306 1.34944C50.479 1.30855 37.3562 1.06335 33.3498 2.45329C29.3434 3.84324 22.2709 7.71292 18.5098 12.2373Z" fill="#252428"/>
<path d="M19.6934 11.6194C19.6934 11.6194 25.3267 6.62607 27.0934 5.99268L26.5268 11.1927L19.6934 11.6194Z" fill="#788D9E"/>
<path d="M27.7438 5.44341L27.3271 11.0935L39.2272 10.4268L40.4606 1.84327C40.4606 1.84327 32.5438 1.81014 27.7438 5.44341Z" fill="#788D9E"/>
<path d="M43.5436 1.84301L43.127 10.2598L57.427 9.77648L56.177 1.69306C56.177 1.69306 46.4769 1.40968 43.5436 1.84301Z" fill="#788D9E"/>
<path d="M59.1694 1.7876L60.3599 9.28741H70.5955C70.5955 9.28741 71.8433 9.18753 72.1934 8.75428C72.5433 8.32103 72.4266 7.26535 72.06 6.54857C71.6933 5.83179 70.4933 2.75149 69.5266 2.58472C68.56 2.41811 59.1694 1.7876 59.1694 1.7876Z" fill="#788D9E"/>
<path d="M40.4023 23.8846C40.209 22.508 40.7448 11.4251 40.7677 10.9539L40.7682 10.9492L42.1225 0.555664L42.2388 0.570708L40.8848 10.9619C40.8742 11.1806 40.3276 22.5089 40.5185 23.8682L40.4023 23.8846Z" fill="#1C1B21"/>
<path d="M58.1278 23.8262L58.0327 23.7576C59.571 21.6235 60.2537 15.1537 60.3098 13.5134C60.3671 11.838 59.2328 10.2567 59.2213 10.2408L59.2128 10.229L59.2108 10.2147L57.9653 1.57688L57.377 0.592987L57.4777 0.532715L58.078 1.53687L59.3249 10.184C59.4314 10.336 60.4831 11.8807 60.4271 13.5175C60.3707 15.1655 59.6819 21.67 58.1278 23.8262Z" fill="#1C1B21"/>
<path d="M60.3549 13.2088C60.3238 13.2088 60.3659 13.1296 60.3626 13.0236C60.3593 12.9156 60.2699 12.8459 60.349 12.8352L76.8224 12.3286C76.8244 12.3286 76.8266 12.3286 76.8286 12.3286C76.9337 12.3286 77.0206 12.4163 77.0239 12.5223C77.0272 12.6301 76.9424 12.7082 76.8344 12.7115L60.3611 13.2088C60.359 13.2088 60.3569 13.2088 60.3549 13.2088Z" fill="#1C1B21"/>
<path d="M8.34453 13.9303L8.32275 13.815C8.39478 13.8013 15.5664 12.4442 18.5051 12.1787L18.5157 12.2956C15.5825 12.5604 8.41655 13.9166 8.34453 13.9303Z" fill="#1C1B21"/>
<path d="M22.9092 12.8037L24.766 10.3475C24.766 10.3475 25.3215 8.68076 26.7105 8.53464C28.0994 8.38836 29.8538 8.40302 29.9562 9.70422C30.0585 11.0054 29.4592 11.1956 28.8889 11.1809C28.3187 11.1662 26.038 11.4294 26.038 11.4294L26.228 12.4528C26.228 12.4528 23.07 13.3593 22.9092 12.8037Z" fill="#A71A10"/>
<path d="M21.638 24.2904C21.638 27.5166 19.0225 30.1318 15.7964 30.1318C12.5704 30.1318 9.95508 27.5166 9.95508 24.2904C9.95508 21.0639 12.5704 18.4487 15.7964 18.4487C19.0225 18.4487 21.638 21.0639 21.638 24.2904Z" fill="#27262C"/>
<path d="M11.3975 24.2907C11.3975 26.728 13.3733 28.7035 15.8106 28.7035C18.2475 28.7035 20.2228 26.728 20.2228 24.2907C20.2228 21.8537 18.2475 19.8779 15.8106 19.8779C13.3733 19.878 11.3975 21.8537 11.3975 24.2907Z" fill="#C3BFBE"/>
<path d="M14.2782 21.3314L15.2994 22.4922C15.2994 22.4922 15.4759 22.7706 15.7172 22.7706C15.9587 22.7706 16.1351 22.5756 16.1351 22.5756L17.2027 21.3313C17.2027 21.3313 17.3512 21.1548 17.2027 21.0344C17.0543 20.9136 16.5333 20.7373 15.81 20.7373C15.0858 20.7374 14.0181 20.9322 14.2782 21.3314Z" fill="#27262C"/>
<path d="M14.2782 27.2485L15.2993 26.0878C15.2993 26.0878 15.476 25.8096 15.7174 25.8096C15.9585 25.8096 16.1353 26.0045 16.1353 26.0045L17.2029 27.2485C17.2029 27.2485 17.3513 27.4249 17.2029 27.5455C17.0545 27.6664 16.5333 27.8429 15.81 27.8429C15.086 27.8429 14.0183 27.6478 14.2782 27.2485Z" fill="#27262C"/>
<path d="M18.8054 22.8149L17.6448 23.8362C17.6448 23.8362 17.3662 24.0124 17.3662 24.2537C17.3662 24.4955 17.5612 24.6717 17.5612 24.6717L18.8055 25.7395C18.8055 25.7395 18.982 25.8879 19.1023 25.7395C19.2233 25.5912 19.3996 25.0698 19.3996 24.3463C19.3995 23.6226 19.2045 22.5546 18.8054 22.8149Z" fill="#27262C"/>
<path d="M12.8875 22.8149L14.048 23.8362C14.048 23.8362 14.3264 24.0124 14.3264 24.2537C14.3264 24.4952 14.1313 24.6716 14.1313 24.6716L12.8875 25.7395C12.8875 25.7395 12.711 25.8879 12.5899 25.7395C12.4693 25.5908 12.293 25.0698 12.293 24.3463C12.293 23.6226 12.4883 22.5546 12.8875 22.8149Z" fill="#27262C"/>
<path d="M71.51 24.2904C71.51 27.5166 68.8946 30.1318 65.6684 30.1318C62.4423 30.1318 59.8271 27.5166 59.8271 24.2904C59.8271 21.0639 62.4423 18.4487 65.6684 18.4487C68.8946 18.4487 71.51 21.0639 71.51 24.2904Z" fill="#27262C"/>
<path d="M61.2686 24.2907C61.2686 26.728 63.2443 28.7035 65.6816 28.7035C68.1186 28.7035 70.0939 26.728 70.0939 24.2907C70.0939 21.8537 68.1186 19.8779 65.6816 19.8779C63.2444 19.878 61.2686 21.8537 61.2686 24.2907Z" fill="#C3BFBE"/>
<path d="M64.1503 21.3314L65.1715 22.4922C65.1715 22.4922 65.348 22.7706 65.5894 22.7706C65.8309 22.7706 66.0072 22.5756 66.0072 22.5756L67.0748 21.3313C67.0748 21.3313 67.2233 21.1548 67.0748 21.0344C66.9265 20.9136 66.4054 20.7373 65.6821 20.7373C64.958 20.7374 63.8903 20.9322 64.1503 21.3314Z" fill="#27262C"/>
<path d="M64.1502 27.2485L65.1713 26.0878C65.1713 26.0878 65.3481 25.8096 65.5895 25.8096C65.8306 25.8096 66.0074 26.0045 66.0074 26.0045L67.0749 27.2485C67.0749 27.2485 67.2234 27.4249 67.0749 27.5455C66.9265 27.6664 66.4054 27.8429 65.682 27.8429C64.9581 27.8429 63.8904 27.6478 64.1502 27.2485Z" fill="#27262C"/>
<path d="M68.6769 22.8149L67.5163 23.8362C67.5163 23.8362 67.2378 24.0124 67.2378 24.2537C67.2378 24.4955 67.4327 24.6717 67.4327 24.6717L68.677 25.7395C68.677 25.7395 68.8536 25.8879 68.9738 25.7395C69.0948 25.5912 69.2712 25.0698 69.2712 24.3463C69.271 23.6226 69.0761 22.5546 68.6769 22.8149Z" fill="#27262C"/>
<path d="M62.7595 22.8149L63.9201 23.8362C63.9201 23.8362 64.1985 24.0124 64.1985 24.2537C64.1985 24.4952 64.0034 24.6716 64.0034 24.6716L62.7595 25.7395C62.7595 25.7395 62.5831 25.8879 62.4619 25.7395C62.3414 25.5908 62.165 25.0698 62.165 24.3463C62.165 23.6226 62.3603 22.5546 62.7595 22.8149Z" fill="#27262C"/>
</svg>
