<svg width="69" height="29" viewBox="0 0 69 29" fill="none" xmlns="http://www.w3.org/2000/svg">
<path d="M3.63163 23.8137C3.63163 23.8137 5.23854 25.0303 5.33773 24.9599C5.43691 24.8896 5.26227 24.4679 5.33773 24.3938C5.41318 24.3196 6.45826 24.0621 6.45826 24.0621L17.1475 24.6996C17.1475 24.6996 18.7015 24.8423 18.9935 24.7116C19.2854 24.5808 49.7616 23.7021 49.7616 23.7021L50.1066 24.0743C50.1066 24.0743 50.9969 23.7935 51.5432 24.4959C52.0896 25.1984 64.6282 23.722 64.8932 24.0743C65.158 24.4266 64.1877 14.2168 64.1877 14.2168L38.6212 15.579L9.06922 14.1064C9.06922 14.1064 2.58642 18.9375 3.63163 23.8137Z" fill="#010101"/>
<path d="M30.1685 2.04137C30.1685 2.04137 31.4298 1.01655 32.9594 0.874666C34.4889 0.732784 54.3878 0.291344 59.0075 0.906251C63.6276 1.52109 45.7469 6.20358 45.7469 6.20358L30.1685 2.04137Z" fill="#C9CDD6"/>
<path d="M16.8574 10.078C16.8574 10.078 27.9422 2.52614 28.762 2.39999C29.5821 2.27384 29.9918 2.99904 29.9918 2.99904L17.4724 11.087L16.8574 10.078Z" fill="#9599A5"/>
<path d="M18.6274 10.0837C18.6274 10.0837 24.9917 5.051 29.0475 2.4931L28.0908 2.70103C28.0908 2.70103 29.6921 0.76698 42.1712 1.16213C54.6503 1.55727 59.9538 1.28694 63.136 1.64052C63.136 1.64052 63.6323 1.54698 63.6768 2.68031C63.6768 2.68031 62.4081 3.28339 62.4498 3.61613C62.4913 3.94887 56.6053 9.39749 56.6053 9.39749L31.8137 10.7907L18.6274 10.0837Z" fill="#2C3033"/>
<path d="M67.4159 19.4593L67.5782 16.272C67.5782 16.272 68.4341 16.4048 68.5523 17.0098C68.6702 17.6148 69.3492 20.8331 68.5523 21.2005C67.7553 21.5678 68.5079 22.558 68.5079 22.558L67.4602 23.827C67.4602 23.827 66.3385 20.1233 67.4159 19.4593Z" fill="#222526"/>
<path d="M1.72867 16.7759C1.72867 16.7759 0.830533 16.8917 0.68563 18.1662C0.540854 19.4407 0.367054 21.9318 0.888477 23.3511C1.4099 24.7704 1.84442 23.6291 1.84442 23.6291L1.72867 16.7759Z" fill="#222526"/>
<path d="M0.845441 21.6797C0.893401 22.4447 0.852552 23.0699 0.753627 23.0762C0.654829 23.0824 0.535561 22.4673 0.487473 21.7022C0.439257 20.9372 0.48038 20.3118 0.579178 20.3057C0.678104 20.2995 0.797225 20.9146 0.845441 21.6797Z" fill="#BABABA"/>
<path d="M65.5053 8.11109C65.5053 8.11109 65.9821 7.89299 66.0636 8.11109C66.1452 8.32925 65.8181 8.56922 65.6508 8.59096C65.4835 8.61276 65.5053 8.11109 65.5053 8.11109Z" fill="#252527"/>
<path d="M63.7083 2.42141C63.7083 2.42141 62.5988 2.08016 62.2719 3.78658C61.9447 5.493 62.0301 9.887 62.0301 9.887L64.3198 13.2714L66.5959 13.9574C66.5959 13.9574 66.3534 13.5843 66.2538 12.5462C66.2538 12.5462 66.1259 12.3756 66.1259 12.0343C66.1259 11.693 65.5996 8.92004 65.8414 8.84894C65.8414 8.84894 65.1446 5.36493 63.7083 2.42141Z" fill="#6C6A6B"/>
<path d="M4.2808 12.0427C4.2808 12.0427 3.30209 12.5492 3.20023 12.7534C3.09829 12.9576 2.29034 14.2766 2.47444 15.6074C2.65867 16.9383 4.40557 16.2075 4.40557 16.2075L6.65758 14.9182L10.0027 11.609C10.0027 11.609 5.20189 11.318 4.2808 12.0427Z" fill="#B6B5BD"/>
<path d="M63.4535 3.24805L64.0863 4.5723C64.0863 4.5723 63.7625 4.95485 63.8802 5.48465C63.998 6.01439 64.6748 9.20747 64.8663 9.51649C65.0573 9.82545 65.5578 10.3405 65.5725 10.5613C65.5873 10.782 65.7491 12.3123 65.7491 12.3123C65.7491 12.3123 63.7036 10.8261 63.4535 10.1492C63.2033 9.47238 62.6882 4.43994 62.8647 3.96903C63.0413 3.49818 63.4535 3.24805 63.4535 3.24805Z" fill="#A93D3D"/>
<path d="M64.2904 5.29248C64.2904 5.29248 64.1172 5.45431 64.2202 5.86634C64.3232 6.27837 64.8675 9.13302 65.0589 9.33903C65.2503 9.54504 65.3239 9.72158 65.368 9.61857C65.4122 9.51563 64.6078 5.82829 64.2904 5.29248Z" fill="#E1E1EA"/>
<path d="M65.8938 10.7153C65.8938 10.7153 65.6126 8.87576 65.7495 8.80306C65.8864 8.73036 66.2208 9.60288 66.3444 10.7372C66.4682 11.8715 66.439 12.533 66.2791 12.5622C66.1191 12.5913 65.9737 11.3334 65.8938 10.7153Z" fill="#861C1E"/>
<path d="M11.5178 14.6327C19.1367 14.6327 20.2085 22.8301 20.2085 22.8301L48.3954 22.5404C48.3954 22.5404 48.7432 14.2181 57.9264 14.2181C64.3106 14.2181 66.0673 21.3238 66.0673 21.3238L67.4829 21.2484C67.4534 21.2468 67.4336 21.25 67.4336 21.25C67.3848 21.1523 67.5069 19.8827 67.5802 19.6629C67.6533 19.4432 67.7267 18.3201 67.7267 18.3201C67.7267 18.3201 67.8 17.8805 67.7267 16.3911C67.6535 14.9018 66.9453 14.5111 66.8721 14.4135C66.7989 14.3158 66.4814 13.7573 66.4814 13.7573C66.4814 13.7573 64.9429 12.5335 63.8198 11.6057C62.6966 10.6779 62.5988 9.99423 62.4768 8.96877C62.3546 7.9433 62.3236 3.57131 62.3236 3.57131L58.3012 3.37744C58.6429 3.79254 56.6163 7.01541 56.1523 7.79675C55.6884 8.57803 54.443 8.52925 54.443 8.52925L38.8395 9.06634L21.0625 9.76334C21.0625 9.76334 17.5951 9.99417 16.765 9.89653C15.9348 9.79883 11.3928 10.4825 7.92534 10.9709C4.45782 11.4592 3.4568 12.4847 3.4568 12.4847C3.4568 12.4847 2.74853 13.1439 3.67653 12.4115C4.60439 11.679 8.02305 11.7035 8.43807 11.728C8.85334 11.7524 9.07293 12.0699 9.07293 12.0699C8.5602 12.2165 5.77629 14.3898 5.01928 14.8536C4.26228 15.3176 3.57824 15.538 2.99224 15.538C2.4061 15.538 2.45431 15.1351 2.45431 15.1351C1.81944 16.0494 1.62427 15.6536 1.30678 16.4838C0.989281 17.3139 1.37609 22.2124 1.37609 22.2124L3.6397 22.2958C3.63957 22.2956 3.899 14.6327 11.5178 14.6327Z" fill="#6E1213"/>
<path d="M68.042 21.2959C68.042 22.0334 68.1861 22.6313 68.364 22.6313C68.5417 22.6313 68.6858 22.0334 68.6858 21.2959C68.6858 20.5584 68.5417 19.9604 68.364 19.9604C68.1861 19.9604 68.042 20.5584 68.042 21.2959Z" fill="#C4C3C8"/>
<path d="M24.7689 9.2967L37.4583 8.83806L39.0077 2.95459H30.5201C30.5201 2.95459 24.8558 6.91053 24.5465 7.4881C24.237 8.06567 24.7689 9.2967 24.7689 9.2967Z" fill="#C9CDD6"/>
<path d="M41.2337 3.01953L40.4087 8.67979L52.7039 8.30267L53.034 5.0906L52.147 3.24747L41.2337 3.01953Z" fill="#C9CDD6"/>
<path d="M53.0356 3.24805L55.1399 8.01456C55.1399 8.01456 55.243 8.22658 55.7176 7.6696C56.192 7.11275 57.7804 4.26616 57.7804 4.26616C57.7804 4.26616 58.0074 3.9361 57.7804 3.64729C57.5535 3.35854 56.8109 3.40022 56.8109 3.40022L53.0356 3.24805Z" fill="#C9CDD6"/>
<path d="M16.0083 11.552C16.0083 11.552 16.4116 12.5944 17.6402 12.556C18.8688 12.5176 19.6898 12.4217 19.6898 12.4217C19.6898 12.4217 19.901 11.4185 19.982 11.2881L16.0083 11.552Z" fill="#80676A"/>
<path d="M20.2275 22.8402C19.06 19.3192 19.6484 12.7595 19.6675 12.5511C19.6613 12.4441 19.6123 11.0846 20.9504 9.65231C22.3018 8.206 30.2296 2.48475 30.3094 2.42714L30.3249 2.41602L30.344 2.41621L50.4627 2.66353C50.7169 2.66199 56.7245 2.62829 57.7557 2.85745C58.0817 2.92983 58.3098 3.08163 58.4337 3.30855C58.6393 3.68458 58.4813 4.12531 58.4745 4.14392L58.3657 4.10402C58.3671 4.09993 58.5122 3.6927 58.3317 3.36341C58.2243 3.1675 58.0221 3.03533 57.7306 2.9705C56.7121 2.74422 50.5249 2.779 50.4623 2.77945L30.3617 2.53232C29.9649 2.81877 22.3505 8.32378 21.0352 9.73141C19.7071 11.1529 19.7826 12.5344 19.7836 12.5482L19.7839 12.5529L19.7835 12.5575C19.7771 12.6242 19.1647 19.2668 20.3375 22.8037L20.2275 22.8402Z" fill="#161616"/>
<path d="M19.9724 11.2321L9.06641 12.0215L9.07477 12.137L19.9807 11.3477L19.9724 11.2321Z" fill="#161616"/>
<path d="M19.4514 11.7358H16.7861C16.7861 11.7358 16.7283 12.1885 17.3463 12.3658C17.3463 12.3658 19.3294 12.3658 19.4514 12.2506C19.5732 12.1354 19.4514 11.7358 19.4514 11.7358Z" fill="white"/>
<path d="M24.6279 6.90417L24.895 6.67041H25.251C25.251 6.67041 25.4637 6.76555 25.4847 7.85809C25.5059 8.95056 25.3616 9.22518 25.0563 9.27876C24.7509 9.33228 24.6279 6.90417 24.6279 6.90417Z" fill="#1C181A"/>
<path d="M22.6538 8.46818C22.6538 8.46818 22.9166 9.30905 23.4212 9.3721C23.9256 9.43521 24.9769 9.31954 25.124 9.24601C25.2713 9.17241 25.2704 7.67814 25.1867 7.41625C25.103 7.15441 23.7575 7.3541 23.7575 7.3541L23.2003 7.71146L23.0743 8.24753C23.0744 8.24746 22.6643 8.28953 22.6538 8.46818Z" fill="#2A2426"/>
<path d="M23.1707 8.21143C23.1707 8.21143 23.2138 8.30855 23.3505 8.21143C23.4872 8.11424 23.8615 7.85094 25.2405 7.9143L25.1952 7.48571C25.1952 7.48571 22.8963 7.20495 23.1707 8.21143Z" fill="#E3E8EB"/>
<path d="M22.9961 8.29044C22.9961 8.29044 23.0487 6.85046 24.2471 6.72437C25.4454 6.59822 24.9409 6.66126 24.9409 6.66126C24.9409 6.66126 25.1195 6.50365 25.1932 7.55469C25.1932 7.55469 23.7952 7.55463 23.5323 7.65974C23.2695 7.76486 23.1538 7.89101 23.1643 8.15374C23.1748 8.41666 22.9961 8.29044 22.9961 8.29044Z" fill="#DA2C2E"/>
<path d="M38.09 22.7461C37.9986 22.4108 37.9323 20.4465 37.8885 19.1466C37.876 18.7749 37.8651 18.4539 37.8564 18.2533C37.8205 17.431 38.0439 11.9818 38.2048 11.0797C38.3537 10.2454 38.9084 8.88287 38.949 8.78345L40.0975 2.59863L40.2114 2.61986L39.0607 8.81638L39.0584 8.822C39.0527 8.83626 38.4705 10.2505 38.319 11.1C38.1716 11.925 37.9312 17.3072 37.9721 18.2484C37.9809 18.4494 37.9916 18.7707 38.0042 19.1427C38.0452 20.3585 38.1139 22.3934 38.2018 22.7156L38.09 22.7461Z" fill="#161616"/>
<path d="M20.207 22.8263C20.207 22.8263 19.1351 14.6289 11.5162 14.6289C3.89741 14.6289 3.63805 22.2918 3.63805 22.2918L1.37445 22.2084C0.831922 22.1696 0.940449 22.4914 0.940449 22.5891C0.940449 22.6867 0.793939 22.8577 0.696293 22.9797C0.598518 23.1018 0.403298 22.8332 0.232304 23.761C0.0613102 24.6888 3.21132 24.7621 3.21132 24.7621C3.28454 24.9085 3.60184 24.9574 3.60184 24.9574C4.96947 25.1772 5.33563 24.9574 5.33563 24.9574C3.45547 22.2961 6.31229 15.4108 11.953 16.241C19.1548 17.3008 18.5847 24.7091 18.5847 24.7091H50.4611C50.2942 24.1547 50.2609 23.3858 50.3803 22.5366H48.3939L20.207 22.8263Z" fill="#2C3033"/>
<path d="M68.7992 23.1062C68.6283 22.9353 68.555 22.0563 68.555 22.0563C68.555 22.0563 68.3596 22.7888 68.1644 22.7644C67.969 22.74 67.7981 21.9343 67.7575 21.568C67.7274 21.2974 67.5643 21.2535 67.481 21.249L66.0653 21.3244C66.0653 21.3244 64.3087 14.2188 57.9245 14.2188C48.7413 14.2188 48.3936 22.541 48.3936 22.541H50.38C50.785 19.6624 52.9503 15.8573 57.6643 16.3286C65.6094 17.123 64.4283 24.4979 64.4283 24.4979C64.4283 24.4979 66.9188 24.2782 67.9689 24.0584C69.019 23.8387 68.97 23.2771 68.7992 23.1062Z" fill="#2C3033"/>
<path d="M49.4437 22.6376L49.3281 22.629C49.6332 18.5419 52.3809 16.7773 54.0228 15.723C54.2632 15.5687 54.4707 15.4354 54.644 15.3116C55.7906 14.4927 55.8026 12.1202 55.8098 10.7026C55.8109 10.4736 55.8118 10.276 55.8171 10.1045C55.8542 8.87995 54.8311 8.23717 54.8209 8.23084L54.8055 8.22144L54.7983 8.20507L52.3826 2.79188L52.4882 2.74463L54.8971 8.14222C55.0309 8.23129 55.9695 8.9008 55.933 10.108C55.9278 10.278 55.9267 10.475 55.9256 10.7031C55.9183 12.1429 55.9061 14.5525 54.7113 15.4059C54.5356 15.5314 54.327 15.6654 54.0854 15.8205C52.4618 16.8632 49.7443 18.6082 49.4437 22.6376Z" fill="#161616"/>
<path d="M18.9961 23.8013C19.008 24.057 19.2462 24.3128 19.5389 24.3128H49.3319C49.6248 24.3128 49.863 24.057 49.8749 23.8013H18.9961Z" fill="#C4C3C8"/>
<path d="M36.3228 12.2142C36.3538 12.7323 36.0093 13.1581 35.5542 13.1855L35.0047 13.2186C34.5496 13.2461 34.1561 12.8649 34.125 12.3468C34.0937 11.8287 34.4382 11.4029 34.8935 11.3754L35.4431 11.3422C35.8981 11.3148 36.2915 11.6961 36.3228 12.2142Z" fill="#4D1216"/>
<path d="M37.6486 12.1751C37.6539 12.3447 37.5285 12.4862 37.3686 12.4912L33.3148 12.6171C33.1549 12.622 33.021 12.4886 33.0158 12.319C33.0105 12.1494 33.1358 12.008 33.2958 12.003L37.3496 11.8771C37.5096 11.8721 37.6434 12.0055 37.6486 12.1751Z" fill="#C4C3C8"/>
<path d="M53.4087 11.5173C53.4399 12.0354 53.0953 12.4611 52.6402 12.4886L52.0907 12.5218C51.6355 12.5493 51.2422 12.168 51.2109 11.6499C51.1797 11.1318 51.5242 10.7061 51.9795 10.6786L52.5289 10.6454C52.984 10.6179 53.3775 10.9992 53.4087 11.5173Z" fill="#4D1216"/>
<path d="M54.7366 11.4754C54.7417 11.645 54.6165 11.7865 54.4565 11.7914L50.4027 11.9174C50.2428 11.9223 50.109 11.7888 50.1037 11.6193C50.0984 11.4498 50.2237 11.3083 50.3837 11.3033L54.4375 11.1774C54.5973 11.1724 54.7312 11.3058 54.7366 11.4754Z" fill="#C4C3C8"/>
<path d="M17.8019 22.9498C17.8019 26.2144 15.1553 28.8608 11.8904 28.8608C8.62556 28.8608 5.979 26.2144 5.979 22.9498C5.979 19.6853 8.62556 17.0391 11.8904 17.0391C15.1553 17.0391 17.8019 19.6853 17.8019 22.9498Z" fill="#27262C"/>
<path d="M7.44629 22.9503C7.44629 25.4163 9.44578 27.4156 11.9123 27.4156C14.3784 27.4156 16.3776 25.4164 16.3776 22.9503C16.3776 20.4844 14.3784 18.4854 11.9123 18.4854C9.44578 18.4853 7.44629 20.4844 7.44629 22.9503Z" fill="#C3BFBE"/>
<path d="M10.3563 19.9571L11.3899 21.1314C11.3899 21.1314 11.5682 21.4133 11.8123 21.4133C12.0569 21.4133 12.2352 21.216 12.2352 21.216L13.3158 19.9571C13.3158 19.9571 13.4661 19.7786 13.3158 19.6565C13.1655 19.5343 12.6381 19.356 11.9061 19.356C11.1737 19.3559 10.0931 19.5531 10.3563 19.9571Z" fill="#27262C"/>
<path d="M10.3563 25.9439L11.3894 24.7695C11.3894 24.7695 11.5683 24.4878 11.8123 24.4878C12.0567 24.4878 12.2353 24.685 12.2353 24.685L13.3157 25.9439C13.3157 25.9439 13.4662 26.1224 13.3157 26.2445C13.1654 26.3666 12.638 26.5451 11.9061 26.5451C11.1736 26.5451 10.0932 26.3478 10.3563 25.9439Z" fill="#27262C"/>
<path d="M14.9436 21.452L13.7693 22.4853C13.7693 22.4853 13.4873 22.6638 13.4873 22.9079C13.4873 23.1524 13.6848 23.3307 13.6848 23.3307L14.9436 24.4112C14.9436 24.4112 15.1224 24.5617 15.2441 24.4112C15.3665 24.2609 15.5452 23.7336 15.5452 23.0015C15.5452 22.2692 15.3477 21.1889 14.9436 21.452Z" fill="#27262C"/>
<path d="M8.95616 21.452L10.1305 22.4854C10.1305 22.4854 10.4123 22.6638 10.4123 22.9079C10.4123 23.1524 10.215 23.3307 10.215 23.3307L8.9561 24.4112C8.9561 24.4112 8.7775 24.5616 8.65498 24.4112C8.53309 24.2608 8.35449 23.7336 8.35449 23.0014C8.35456 22.2693 8.55183 21.1889 8.95616 21.452Z" fill="#27262C"/>
<path d="M63.0027 22.9498C63.0027 26.2144 60.3559 28.8608 57.0911 28.8608C53.8262 28.8608 51.1797 26.2144 51.1797 22.9498C51.1797 19.6853 53.8263 17.0391 57.0911 17.0391C60.3559 17.0391 63.0027 19.6853 63.0027 22.9498Z" fill="#27262C"/>
<path d="M52.645 22.9503C52.645 25.4163 54.6444 27.4156 57.1109 27.4156C59.5771 27.4156 61.5761 25.4164 61.5761 22.9503C61.5761 20.4844 59.5771 18.4854 57.1109 18.4854C54.6444 18.4853 52.645 20.4844 52.645 22.9503Z" fill="#C3BFBE"/>
<path d="M55.5585 19.9556L56.5919 21.1299C56.5919 21.1299 56.7703 21.4118 57.0145 21.4118C57.259 21.4118 57.4375 21.2145 57.4375 21.2145L58.5179 19.9556C58.5179 19.9556 58.6684 19.7771 58.5179 19.6551C58.3676 19.5329 57.8404 19.3545 57.1083 19.3545C56.3758 19.3544 55.2953 19.5517 55.5585 19.9556Z" fill="#27262C"/>
<path d="M55.5575 25.9434L56.5906 24.769C56.5906 24.769 56.7695 24.4873 57.0135 24.4873C57.2579 24.4873 57.4366 24.6845 57.4366 24.6845L58.5168 25.9434C58.5168 25.9434 58.6674 26.1219 58.5168 26.244C58.3666 26.3661 57.8393 26.5446 57.1071 26.5446C56.3748 26.5446 55.2945 26.3473 55.5575 25.9434Z" fill="#27262C"/>
<path d="M60.1414 21.452L58.9672 22.4853C58.9672 22.4853 58.6851 22.6638 58.6851 22.9079C58.6851 23.1524 58.8824 23.3307 58.8824 23.3307L60.1414 24.4112C60.1414 24.4112 60.32 24.5617 60.4417 24.4112C60.5642 24.2609 60.7429 23.7336 60.7429 23.0015C60.7429 22.2692 60.5453 21.1889 60.1414 21.452Z" fill="#27262C"/>
<path d="M54.1541 21.452L55.3284 22.4854C55.3284 22.4854 55.6102 22.6638 55.6102 22.9079C55.6102 23.1524 55.4128 23.3307 55.4128 23.3307L54.154 24.4112C54.154 24.4112 53.9754 24.5616 53.8529 24.4112C53.731 24.2608 53.5522 23.7336 53.5522 23.0014C53.5523 22.2693 53.7498 21.1889 54.1541 21.452Z" fill="#27262C"/>
</svg>
