<svg width="79" height="26" viewBox="0 0 79 26" fill="none" xmlns="http://www.w3.org/2000/svg">
<path d="M2.87793 20.7278L5.37694 22.3253C5.37694 22.3253 5.88759 21.0228 7.80604 21.4103C9.72456 21.7977 17.5541 22.4049 17.5541 22.4049C17.5541 22.4049 20.3745 23.1965 21.6788 22.2798C22.9829 21.363 51.8906 21.4062 51.8906 21.4062L56.0489 22.4525C56.0489 22.4525 57.4097 21.9788 58.3722 21.9427C59.3347 21.9063 67.5943 21.7251 67.5943 21.7251L69.0485 21.472L72.4846 18.4369L65.5837 9.03711L14.9343 10.8757L4.63502 13.7875L2.87793 20.7278Z" fill="#050505"/>
<path d="M74.7693 19.3502H77.7264C77.7264 19.3502 78.118 19.3291 78.0522 20.0754C77.9863 20.8214 77.3719 20.7225 77.3719 20.7225H74.5122L74.7693 19.3502Z" fill="#DFE4E8"/>
<path d="M8.71294 10.3768L7.33469 10.1992C7.33469 10.1992 5.03026 10.5612 3.73362 11.6748C2.43699 12.7886 1.89224 14.9672 1.97017 15.2784C2.04804 15.5896 6.24939 13.9302 6.35304 13.7874C6.45676 13.6445 8.71294 10.3768 8.71294 10.3768Z" fill="#C5D6E2"/>
<path d="M21.0356 8.25858C21.0356 8.25858 21.595 7.94532 21.9976 7.81098C22.4004 7.6767 23.8102 7.47541 23.7206 7.58729C23.6311 7.69917 23.0717 7.94532 23.1835 8.25858C23.2954 8.57176 21.0356 8.25858 21.0356 8.25858Z" fill="#5C5F66"/>
<path d="M22.5796 8.28142C22.5796 8.28142 31.8254 3.09643 34.9579 2L36.1611 2.06111L29.2027 5.88734L24.8395 8.77373L22.5796 8.28142Z" fill="#C5D6E2"/>
<path d="M74.2222 7.93854C74.2222 7.93854 75.3374 7.6016 75.519 8.35357C75.7005 9.10561 75.7005 9.83172 76.0116 10.6098C76.3229 11.3879 76.5301 11.8546 76.2708 12.3992C76.0115 12.9438 71.7066 11.8806 71.7066 11.8806C71.7066 11.8806 71.6805 7.9904 74.2222 7.93854Z" fill="#AE222F"/>
<path d="M20.3014 22.7414C22.7347 22.5236 50.664 22.4618 55.3751 22.453L55.3488 21.1426L20.2954 21.7501C20.2967 22.1332 20.2988 22.4625 20.3014 22.7414Z" fill="#9D9E9B"/>
<path d="M76.7465 13.6648C76.7465 13.4107 76.3834 11.922 76.3834 11.922C76.3834 11.922 75.9114 11.9045 74.5498 11.8682C73.1881 11.8319 72.9159 10.5802 72.6071 9.98104C72.2985 9.38183 74.7859 8.45796 75.0765 8.02221C75.367 7.58645 70.8462 7.17302 69.8838 7.06395C68.9216 6.95503 66.1623 5.31097 62.5308 3.53176C58.8997 1.75241 54.3065 0.588379 45.5555 0.588379C36.8046 0.588379 34.3978 2.15776 34.3978 2.15776H35.4429C28.5256 5.37214 24.6031 8.06598 24.6031 8.06598C23.8768 8.28389 21.6248 8.01917 21.6248 8.01917C11.1126 9.09032 7.33491 10.1987 7.33491 10.1987C7.33491 10.1987 8.29424 10.6364 8.0946 10.9269C7.89482 11.2174 4.98412 13.3273 4.07628 14.1262C3.16852 14.9251 1.92244 14.8781 1.92244 14.8781C0.972933 15.3111 0.802046 16.0794 0.838449 16.5877C0.874708 17.096 1.25607 19.5289 1.2742 19.8558C1.29218 20.1826 0.783838 20.1463 0.947435 20.7454C1.11096 21.3445 2.54505 22.0527 2.54505 22.0527L4.90249 22.2793C4.76021 21.5794 4.35696 19.2498 4.94655 17.7756C5.64702 16.0247 7.4395 12.4746 12.4177 12.4746C16.4421 12.4746 20.2941 15.1066 20.2941 20.6495C20.2941 21.0603 20.2948 21.4244 20.2959 21.7503L55.3492 21.1428L55.3315 20.2555C55.3315 20.2555 56.4052 12.3582 63.3054 12.701C69.2302 12.9954 70.2933 18.2793 69.5908 21.4243C70.8877 21.3122 74.1019 21.0396 74.5496 21.054C75.1124 21.0722 75.3487 20.6001 75.3487 20.6001C78.4896 19.6924 77.4002 18.6576 77.4002 18.6576C78.0901 17.2777 78.0357 16.37 78.1266 15.0809C78.2172 13.7917 76.7465 13.6648 76.7465 13.6648Z" fill="#A7A8A3"/>
<path d="M63.3054 12.7013C56.4052 12.3584 55.3315 20.2557 55.3315 20.2557L55.3756 22.4536C55.8115 22.4527 56.0492 22.4523 56.0492 22.4523C55.9404 20.9818 55.9949 13.6407 63.3657 13.5599C69.9923 13.4871 69.0488 21.4718 69.0488 21.4718C69.0488 21.4718 69.2573 21.4534 69.5908 21.4246C70.2933 18.2796 69.2302 12.9955 63.3054 12.7013Z" fill="#9D9E9B"/>
<path d="M12.4172 12.4751C7.43886 12.4751 5.64645 16.0252 4.94598 17.7761C4.35639 19.2503 4.75964 21.5799 4.90193 22.2798L5.37675 22.3254C4.65057 18.2949 6.33897 12.594 13.1111 13.1568C19.8832 13.7197 20.0103 21.2905 20.0103 21.9078C20.0103 22.525 20.1554 22.7612 20.1554 22.7612C20.1821 22.7547 20.2321 22.7483 20.3014 22.7421C20.2964 22.2261 20.2936 21.5437 20.2936 20.6499C20.2936 15.1071 16.4416 12.4751 12.4172 12.4751Z" fill="#9D9E9B"/>
<path d="M25.8149 9.03607C25.8149 9.03607 34.8434 2.80376 36.1609 2.57509C36.1609 2.57509 42.1136 0.912173 46.9664 1.374C51.819 1.83583 60.7871 2.57141 61.0441 5.38579C61.3015 8.20031 60.8835 7.68597 60.8835 7.68597L25.8149 9.03607Z" fill="#C5D6E2"/>
<path d="M44.5233 1.64355L43.1733 8.44618L46.0663 8.3054L46.5485 1.64355H44.5233Z" fill="#313D49"/>
<path d="M12.5494 25.6349C15.7051 25.556 18.1993 22.9339 18.1203 19.7782C18.0414 16.6225 15.4193 14.1283 12.2636 14.2072C9.10797 14.2861 6.61378 16.9083 6.69269 20.064C6.77161 23.2196 9.39375 25.7139 12.5494 25.6349Z" fill="#27262C"/>
<path d="M8.09961 19.9235C8.09961 22.308 10.0328 24.241 12.4174 24.241C14.8019 24.241 16.7347 22.308 16.7347 19.9235C16.7347 17.539 14.8018 15.606 12.4174 15.606C10.0327 15.606 8.09961 17.5389 8.09961 19.9235Z" fill="#C3BFBE"/>
<path d="M10.9195 17.0285L11.9187 18.1641C11.9187 18.1641 12.0911 18.4366 12.3276 18.4366C12.5637 18.4366 12.7361 18.2458 12.7361 18.2458L13.7809 17.0286C13.7809 17.0286 13.9262 16.8559 13.7809 16.738C13.6356 16.6198 13.1258 16.4473 12.4178 16.4473C11.7096 16.4472 10.6649 16.6379 10.9195 17.0285Z" fill="#27262C"/>
<path d="M10.9195 22.8172L11.9184 21.6816C11.9184 21.6816 12.0911 21.4092 12.3273 21.4092C12.5635 21.4092 12.7361 21.5999 12.7361 21.5999L13.7807 22.8172C13.7807 22.8172 13.9263 22.9898 13.7807 23.1078C13.6353 23.2259 13.1256 23.3985 12.4177 23.3985C11.7096 23.3985 10.665 23.2077 10.9195 22.8172Z" fill="#27262C"/>
<path d="M15.348 18.48L14.2125 19.4791C14.2125 19.4791 13.9399 19.6518 13.9399 19.8879C13.9399 20.1243 14.1307 20.2967 14.1307 20.2967L15.348 21.3414C15.348 21.3414 15.5207 21.4869 15.6387 21.3414C15.7566 21.1961 15.9295 20.6862 15.9295 19.9783C15.9295 19.2701 15.7386 18.2256 15.348 18.48Z" fill="#27262C"/>
<path d="M9.55786 18.48L10.6934 19.4791C10.6934 19.4791 10.9658 19.6517 10.9658 19.8879C10.9658 20.1243 10.7752 20.2967 10.7752 20.2967L9.55786 21.3415C9.55786 21.3415 9.38516 21.4869 9.26707 21.3415C9.14912 21.196 8.97656 20.6863 8.97656 19.9782C8.97649 19.2702 9.16732 18.2256 9.55786 18.48Z" fill="#27262C"/>
<path d="M68.3916 19.9236C68.3916 23.0802 65.8326 25.6392 62.6759 25.6392C59.5194 25.6392 56.9604 23.0802 56.9604 19.9236C56.9604 16.7669 59.5194 14.208 62.6759 14.208C65.8326 14.2079 68.3916 16.7669 68.3916 19.9236Z" fill="#27262C"/>
<path d="M58.3721 19.9235C58.3721 22.308 60.3053 24.241 62.6898 24.241C65.0742 24.241 67.0071 22.308 67.0071 19.9235C67.0071 17.539 65.0741 15.606 62.6898 15.606C60.3053 15.606 58.3721 17.5389 58.3721 19.9235Z" fill="#C3BFBE"/>
<path d="M61.1914 17.0285L62.1906 18.1641C62.1906 18.1641 62.3631 18.4366 62.5993 18.4366C62.8356 18.4366 63.0081 18.2458 63.0081 18.2458L64.0528 17.0286C64.0528 17.0286 64.1982 16.8559 64.0528 16.738C63.9074 16.6198 63.3976 16.4473 62.6897 16.4473C61.9816 16.4472 60.9369 16.6379 61.1914 17.0285Z" fill="#27262C"/>
<path d="M61.1914 22.8172L62.1904 21.6816C62.1904 21.6816 62.3632 21.4092 62.5992 21.4092C62.8355 21.4092 63.0083 21.5999 63.0083 21.5999L64.0527 22.8172C64.0527 22.8172 64.1983 22.9898 64.0527 23.1078C63.9072 23.2259 63.3975 23.3985 62.6897 23.3985C61.9816 23.3985 60.9371 23.2077 61.1914 22.8172Z" fill="#27262C"/>
<path d="M65.6205 18.48L64.4851 19.4791C64.4851 19.4791 64.2124 19.6518 64.2124 19.8879C64.2124 20.1243 64.4032 20.2967 64.4032 20.2967L65.6206 21.3414C65.6206 21.3414 65.7933 21.4869 65.911 21.3414C66.0292 21.1961 66.202 20.6862 66.202 19.9783C66.202 19.2701 66.0109 18.2256 65.6205 18.48Z" fill="#27262C"/>
<path d="M59.8312 18.48L60.9667 19.4791C60.9667 19.4791 61.2391 19.6517 61.2391 19.8879C61.2391 20.1243 61.0484 20.2967 61.0484 20.2967L59.8311 21.3415C59.8311 21.3415 59.6584 21.4869 59.5402 21.3415C59.4222 21.196 59.2495 20.6863 59.2495 19.9782C59.2496 19.2702 59.4404 18.2256 59.8312 18.48Z" fill="#27262C"/>
<path d="M57.8324 2.84617C57.8324 2.84617 53.1327 1.10987 45.5745 1.31522C45.5745 1.31522 39.2214 1.27152 36.211 2.31681C36.211 2.31681 31.559 4.06654 25.0117 9.29357H25.7505H26.0403L26.3882 9.25825L61.5866 7.86302C61.5709 7.53618 61.6343 6.92571 61.5375 6.20855C61.3389 4.73408 60.8236 3.57914 57.8324 2.84617ZM60.5406 7.5546L44.6499 8.14738L26.2284 8.98624C28.0078 7.74644 34.6753 3.32129 36.6605 2.58059C38.9752 1.71688 46.0448 1.66502 46.8077 1.70323C47.5706 1.74129 55.6314 1.97033 59.2493 3.83946C59.2493 3.83946 61.5928 4.43982 60.5406 7.5546Z" fill="#F0F4F7"/>
<path d="M23.8611 20.7275L23.8557 20.6685C23.8497 20.6029 23.2613 14.091 23.6622 12.1049C24.0528 10.1696 24.3296 9.69534 25.6361 8.72192L25.702 8.67259C30.9927 4.72877 34.9624 2.39947 37.1818 1.93677C39.1715 1.52182 42.8519 1.24316 46.3399 1.24316C48.9366 1.24316 52.6177 1.3916 55.4066 2.09893C60.6277 3.42309 61.2788 4.21277 61.5197 5.69865C61.75 7.11982 61.7015 11.9667 61.2975 12.8687L61.2844 12.8979L61.253 12.905C61.2 12.9172 55.941 14.1896 55.4547 20.3243L55.4501 20.383L23.8611 20.7275ZM46.3399 1.37173C42.8598 1.37173 39.19 1.64938 37.2078 2.0626C35.0381 2.51496 30.9793 4.89915 25.7788 8.77566L25.7127 8.82492C24.4402 9.77313 24.1704 10.2365 23.7881 12.1304C23.4112 13.9973 23.9202 19.9383 23.9784 20.5976L55.3316 20.2556C55.8326 14.3278 60.7433 12.9052 61.1922 12.7879C61.5682 11.8519 61.6131 7.078 61.3928 5.71916C61.1613 4.29113 60.5222 3.52891 55.375 2.22352C52.599 1.51951 48.9293 1.37173 46.3399 1.37173Z" fill="#1D1D1D"/>
<path d="M7.80596 14.4858L4.56827 14.501C4.56827 14.501 4.43538 15.127 5.20836 15.1753C5.98105 15.2237 7.01001 15.2426 7.01001 15.2426C7.01001 15.2426 7.4805 14.7216 7.80596 14.4858Z" fill="#BC4926"/>
<path d="M56.4559 15.5056C56.4602 15.7296 49.3355 15.8579 40.547 16.0244C31.7583 16.1909 24.6338 16.3325 24.6299 16.1085C24.6253 15.8844 31.7752 15.647 40.5637 15.4807C49.3524 15.3142 56.4518 15.2816 56.4559 15.5056Z" fill="#9D9E9B"/>
<path d="M44.0355 20.4513C43.5062 16.605 44.5968 8.05412 44.6079 7.96817L45.447 1.29932L45.5747 1.3155L44.7354 7.98449C44.7243 8.07045 43.6358 16.6043 44.1629 20.4336L44.0355 20.4513Z" fill="#1D1D1D"/>
<path d="M38.9057 10.7319C38.9057 10.7319 38.8727 10.2346 39.7348 10.0156C40.5969 9.79672 40.8424 9.77686 41.1276 9.77686C41.4126 9.77686 43.21 9.89618 43.2233 10.5595C43.2366 11.2227 41.8904 11.4415 41.3663 11.4813C40.8425 11.5212 38.8725 11.5809 38.9057 10.7319Z" fill="#9D9E9B"/>
<path d="M55.8783 10.346C55.8783 10.346 55.8452 9.84868 56.7074 9.6299C57.5694 9.41098 57.815 9.39111 58.1001 9.39111C58.3853 9.39111 60.1826 9.51044 60.1958 10.1736C60.2091 10.8369 58.8628 11.0557 58.339 11.0955C57.8149 11.1354 55.8451 11.1951 55.8783 10.346Z" fill="#9D9E9B"/>
<path d="M42.4992 10.5123C42.5028 10.6721 42.3765 10.8046 42.2166 10.8084L39.8387 10.8639C39.679 10.8676 39.5464 10.7411 39.5427 10.5815L39.5411 10.5171C39.5376 10.3575 39.6639 10.225 39.8237 10.2211L42.2016 10.1656C42.3613 10.1619 42.4939 10.2884 42.4977 10.448L42.4992 10.5123Z" fill="#DCE4F1"/>
<path d="M59.4693 10.1272C59.4729 10.2869 59.3466 10.4194 59.1868 10.4231L56.8087 10.4787C56.6492 10.4823 56.5166 10.3559 56.5129 10.1962L56.5113 10.1319C56.5077 9.97219 56.6342 9.83973 56.7937 9.83597L59.1718 9.78035C59.3314 9.7766 59.4641 9.90315 59.4679 10.0628L59.4693 10.1272Z" fill="#DCE4F1"/>
</svg>
