<svg width="79" height="24" viewBox="0 0 79 24" fill="none" xmlns="http://www.w3.org/2000/svg">
<path d="M54.1782 1.5625C54.1782 1.5625 55.2694 0.70578 55.5346 0.644759C55.7998 0.583426 56.0139 0.532415 56.0139 0.716024C56.0139 0.899632 55.555 1.58296 55.6162 1.8379C55.6774 2.09277 54.1782 1.5625 54.1782 1.5625Z" fill="#D6DBE1"/>
<path d="M69.5453 19.6809L68.0579 21.012L65.7426 21.163L54.5463 20.9467L21.2653 20.6493L20.3822 20.9467C20.3822 20.9467 19.0411 20.9098 18.4944 20.9499C17.9475 20.9902 10.123 21.163 10.123 21.163C10.123 21.163 8.48354 21.2451 7.97975 21.5842L6.5083 18.7783L7.71785 12.0392C7.71785 12.0392 11.63 10.3458 11.9376 10.3113C12.2452 10.2767 18.224 10.104 18.224 10.104L28.4538 11.0875L59.186 9.27441L68.716 9.51648L69.5453 19.6809Z" fill="black"/>
<path d="M77.1522 17.0369C77.1522 17.0369 76.9389 17.6213 76.9759 17.779C77.013 17.9368 77.4213 18.1779 77.4213 18.4469C77.4213 18.716 76.9759 19.5603 76.5214 19.616C76.5214 19.616 76.373 20.3581 75.8719 20.3581C75.371 20.3581 72.0776 20.4602 72.0776 20.4602C72.0776 20.4602 75.64 16.5544 77.1522 17.0369Z" fill="#333439"/>
<path d="M21.8525 8.00239C21.8525 8.00239 23.5976 6.45563 25.3031 5.66243C27.0085 4.86924 32.8862 1.66618 35.0999 1.30451C37.3136 0.942834 36.7453 3.04487 36.7453 3.10441C36.7453 3.16395 22.3681 11.3142 21.8525 8.00239Z" fill="#7E909E"/>
<path d="M72.2756 8.64746H75.5936L75.8513 8.80708C75.8513 8.80708 77.0014 9.66527 76.1091 11.6086C75.2167 13.5522 70.8019 11.4346 72.2756 8.64746Z" fill="#B80201"/>
<path d="M56.436 2.21285L57.9827 2.15332C57.9827 2.15332 65.4938 3.93753 70.2182 6.39695C74.9426 8.85645 67.3824 7.80496 67.3824 7.80496C67.3824 7.80496 55.7618 3.5414 56.436 2.21285Z" fill="#7E909E"/>
<path d="M21.1548 7.2955C21.1548 7.2955 22.169 6.98438 22.5458 7.2955C22.9226 7.60662 22.8036 8.0033 22.8036 8.0033L21.1548 7.2955Z" fill="#060A0B"/>
<path d="M7.97905 21.5832C7.97905 21.5832 0.835878 21.0691 0.73673 19.7803C0.73673 19.7803 0.694929 19.5033 1.07176 19.3248C1.07176 19.3248 0.832753 15.1608 1.4078 13.8717C1.98285 12.5827 1.94269 10.9966 4.87762 9.90579C7.81255 8.81515 14.8323 7.52629 21.3169 7.28838C21.3169 7.28838 22.8833 7.8239 23.7162 7.80406C23.7162 7.80406 33.0365 2.1722 35.317 2.03336C35.317 2.03336 34.6824 1.59722 34.841 1.39884C34.9996 1.20062 40.4134 0.26851 47.255 0.704796C54.0965 1.14108 57.9833 2.15235 57.9833 2.15235C57.9833 2.15235 56.9719 2.64816 57.1107 2.72746C57.2495 2.80668 67.6606 6.25728 67.6606 6.25728C67.6606 6.25728 69.1876 6.57459 70.0204 6.21761C70.0204 6.21761 71.8647 6.71343 72.3802 6.75297C72.8958 6.79266 75.5135 6.69341 75.5531 7.01086C75.5927 7.32815 75.5134 7.90329 75.6522 8.02213C75.7911 8.14112 76.505 9.25161 76.2868 9.62844L75.8506 8.79554C75.8506 8.79554 72.2018 8.97408 72.1423 9.43021C72.0828 9.88634 72.4595 11.0761 72.6579 11.2942C72.8562 11.5124 76.2274 11.3736 76.2274 11.3736C76.2274 11.3736 76.4653 12.9799 76.7826 13.1981C77.0999 13.4163 78.0517 13.5947 78.032 14.1698C78.0121 14.7449 78.0914 17.1245 77.1396 17.2831C77.1396 17.2831 76.0291 17.1443 75.2954 18.017C74.5617 18.8896 73.7288 20.1189 72.2217 20.476C70.7146 20.8328 68.0573 21.0114 68.0573 21.0114C68.0573 21.0114 68.7315 12.402 61.5926 12.2037C54.4535 12.0053 54.751 20.9461 54.751 20.9461H20.3814C20.3814 20.9461 22.1891 12.0281 14.1181 11.7109C6.04701 11.3936 7.97905 21.5832 7.97905 21.5832Z" fill="#D6DBE1"/>
<path d="M52.9323 2.64924C50.3209 2.02254 41.7554 1.29125 37.6556 2.15296C33.5557 3.01483 29.3512 4.5555 25.4341 7.81992L26.1942 7.80452C27.1144 7.05907 29.444 5.35776 33.0596 3.95491C37.8385 2.10085 40.9983 1.94412 44.7326 2.15296C48.4669 2.36204 52.0707 2.46642 54.4209 3.6155C56.7712 4.76443 59.3565 6.48808 59.1737 6.67083C59.0132 6.83139 48.5207 7.29393 45.9674 7.40425L58.9386 7.1418C58.9386 7.1418 59.7481 7.11477 59.7481 6.77529C59.7481 6.43581 55.5437 3.27593 52.9323 2.64924Z" fill="white"/>
<path d="M54.4201 3.61501C52.0698 2.46593 48.466 2.36155 44.7317 2.15247C40.9974 1.94355 37.8376 2.10028 33.0587 3.95441C29.4432 5.35726 27.1136 7.05858 26.1934 7.80403L45.9666 7.40376C48.5198 7.29344 59.0123 6.8309 59.1728 6.67034C59.3556 6.48759 56.7703 4.76393 54.4201 3.61501Z" fill="black"/>
<path d="M30.1077 7.14113C30.1077 7.14113 34.8344 3.92815 38.5165 3.30138C42.1986 2.67468 46.4813 3.01416 46.4813 3.01416C46.4813 3.01416 45.6195 7.27076 45.2539 7.45343C44.8883 7.63626 29.3306 7.74034 29.3306 7.74034L30.1077 7.14113Z" fill="#788D9E"/>
<path d="M48.7799 3.17134L48.2314 7.01003L56.5619 6.72281C56.5619 6.72281 57.4237 6.74891 57.4237 6.43545C57.4237 6.12222 53.5849 2.91015 48.7799 3.17134Z" fill="#788D9E"/>
<path d="M31.5525 6.87938C31.5744 6.7439 31.5705 6.59553 31.5294 6.43544C31.3303 5.66132 30.8584 4.90179 29.7303 5.29245C28.6022 5.68342 28.44 6.29534 28.2925 6.89258C28.2925 6.89258 27.6805 6.72288 27.6289 6.99572C27.5979 7.15948 27.7053 7.3888 27.8627 7.55788C29.0225 7.74406 30.604 7.24425 31.5525 6.87938Z" fill="#D6DBE1"/>
<path d="M27.8633 7.55756C27.9684 7.6703 28.0953 7.75625 28.2192 7.77704C28.529 7.8286 29.082 7.93923 29.2811 7.8507C29.4801 7.76218 30.446 7.87775 30.7557 7.79407C31.0014 7.72782 31.4691 7.39848 31.5531 6.87891C30.6046 7.24378 29.0231 7.74359 27.8633 7.55756Z" fill="#C5CBD1"/>
<path d="M3.17907 11.3974C3.17907 11.3974 2.32314 11.6794 1.92436 12.9536C1.52558 14.2277 2.01187 13.9263 2.19665 13.8678C2.38143 13.8095 5.04649 13.5372 5.45497 13.4885C5.86351 13.44 5.81484 13.0897 5.93157 12.9049C6.0483 12.7201 7.15706 11.4752 6.85555 11.1542C6.55404 10.8332 3.67513 11.1638 3.17907 11.3974Z" fill="#788D9E"/>
<path d="M1.31299 16.5137C1.31299 16.5137 1.35182 18.4298 1.51722 18.7118C1.68255 18.9938 2.0911 19.276 2.71357 19.3538C3.33605 19.4316 4.51294 19.5287 4.61022 18.7216C4.70749 17.9143 4.87282 16.397 4.87282 16.397C4.87282 16.397 1.26431 16.3387 1.31299 16.5137Z" fill="#040404"/>
<path d="M20.5151 19.5748L20.5142 19.4862C20.5694 19.4856 22.1897 19.4688 24.4914 19.4456C23.9306 18.5909 23.9848 16.7551 23.9875 16.6755C23.9859 16.6244 23.8367 11.2795 24.1988 9.75412C24.5643 8.21485 25.8019 7.56502 25.8144 7.55861C25.8503 7.53666 29.7073 5.18443 30.8125 4.58258C33.4435 3.1498 35.9869 2.25637 37.9742 2.06683C40.8413 1.79321 46.9978 1.91057 47.0596 1.91182C47.2904 1.93362 52.6447 2.4464 53.6787 2.8819C54.7095 3.31624 58.3047 5.51273 58.3409 5.53484C58.3934 5.5611 59.7028 6.22491 59.7754 6.69511C59.7887 6.7816 59.7627 6.85746 59.698 6.92052C59.3846 7.22585 58.4687 7.21429 57.3092 7.19976C56.8165 7.19335 56.3071 7.18711 55.7977 7.20508C54.1988 7.26203 46.9166 7.43258 46.2942 7.44727C46.2935 7.55728 46.3112 7.87777 46.518 8.15881C46.554 8.2078 46.5928 8.2579 46.6328 8.30947C46.8881 8.63848 47.206 9.04788 47.147 9.65817C47.135 9.78256 47.1217 10.0232 47.1032 10.3564C47.0212 11.8413 46.8504 14.9313 46.3141 16.1857C45.6404 17.7613 45.2664 18.358 44.3793 18.7851C43.4814 19.2174 41.8591 19.4202 40.7204 19.3978C39.6275 19.3751 20.7061 19.5726 20.5151 19.5748ZM43.9838 1.97423C42.0031 1.97423 39.5189 2.00832 37.9826 2.15497C36.0068 2.34342 33.4755 3.23326 30.8548 4.66033C29.7515 5.26108 25.8963 7.61221 25.8576 7.63589C25.8426 7.6437 24.6406 8.27618 24.2849 9.77458C23.9255 11.2887 24.0745 16.6221 24.076 16.6756C24.0754 16.6979 24.018 18.6384 24.5981 19.4445C30.2763 19.3875 39.9491 19.294 40.7222 19.3092C41.8501 19.3319 43.4555 19.1316 44.3409 18.7052C45.2024 18.2904 45.5689 17.7038 46.2328 16.1507C46.7629 14.9109 46.9331 11.8314 47.0149 10.3514C47.0334 10.0174 47.0467 9.77583 47.0589 9.64964C47.1146 9.07452 46.8215 8.69698 46.563 8.36383C46.5225 8.31148 46.4832 8.26101 46.4467 8.2114C46.1733 7.8395 46.2058 7.41805 46.2073 7.40016L46.2107 7.36079L46.2504 7.35985C46.329 7.3579 54.133 7.17569 55.7946 7.11678C56.3062 7.09865 56.8166 7.10505 57.3103 7.1113C58.4043 7.12521 59.3491 7.13709 59.6364 6.85722C59.6801 6.81464 59.6969 6.76613 59.6881 6.70863C59.6336 6.35548 58.6662 5.79746 58.2981 5.61237C58.2588 5.58838 54.6692 3.39522 53.6446 2.9637C52.623 2.53335 47.1103 2.00549 47.0547 2.00018C47.0274 1.99955 45.693 1.97423 43.9838 1.97423Z" fill="#040404"/>
<path d="M19.8353 17.5795C19.8353 20.6398 17.3545 23.1204 14.2942 23.1204C11.2341 23.1204 8.75342 20.6398 8.75342 17.5795C8.75342 14.5192 11.2341 12.0386 14.2942 12.0386C17.3544 12.0386 19.8353 14.5192 19.8353 17.5795Z" fill="#27262C"/>
<path d="M10.1221 17.58C10.1221 19.8918 11.9962 21.7657 14.3081 21.7657C16.6196 21.7657 18.4935 19.8918 18.4935 17.58C18.4935 15.2684 16.6196 13.3945 14.3081 13.3945C11.9962 13.3945 10.1221 15.2684 10.1221 17.58Z" fill="#C3BFBE"/>
<path d="M12.8558 14.7735L13.8243 15.8743C13.8243 15.8743 13.9917 16.1385 14.2205 16.1385C14.4497 16.1385 14.617 15.9536 14.617 15.9536L15.6296 14.7735C15.6296 14.7735 15.7705 14.606 15.6296 14.4916C15.4888 14.3772 14.9945 14.21 14.3083 14.21C13.6218 14.2099 12.609 14.3948 12.8558 14.7735Z" fill="#27262C"/>
<path d="M12.8557 20.3855L13.8242 19.2847C13.8242 19.2847 13.9918 19.0205 14.2207 19.0205C14.4497 19.0205 14.6172 19.2054 14.6172 19.2054L15.6298 20.3855C15.6298 20.3855 15.7708 20.553 15.6298 20.6672C15.4889 20.7817 14.9946 20.949 14.3084 20.949C13.6218 20.949 12.6091 20.7641 12.8557 20.3855Z" fill="#27262C"/>
<path d="M17.1487 16.1804L16.0481 17.1491C16.0481 17.1491 15.7837 17.3164 15.7837 17.5452C15.7837 17.7745 15.9688 17.9417 15.9688 17.9417L17.1488 18.9543C17.1488 18.9543 17.3163 19.0954 17.4305 18.9543C17.5452 18.8136 17.7126 18.3192 17.7126 17.6328C17.7125 16.9467 17.5274 15.9339 17.1487 16.1804Z" fill="#27262C"/>
<path d="M11.5371 16.1804L12.6379 17.1491C12.6379 17.1491 12.902 17.3164 12.902 17.5452C12.902 17.7743 12.717 17.9415 12.717 17.9415L11.537 18.9543C11.537 18.9543 11.3696 19.0954 11.2549 18.9543C11.1405 18.8133 10.9731 18.3192 10.9731 17.6328C10.9732 16.9467 11.1582 15.9339 11.5371 16.1804Z" fill="#27262C"/>
<path d="M67.0848 18.2431C67.0848 21.3033 64.604 23.784 61.5437 23.784C58.4836 23.784 56.0029 21.3033 56.0029 18.2431C56.0029 15.1828 58.4836 12.7021 61.5437 12.7021C64.604 12.7021 67.0848 15.1828 67.0848 18.2431Z" fill="#27262C"/>
<path d="M57.3706 18.2428C57.3706 20.5545 59.2447 22.4285 61.5566 22.4285C63.8681 22.4285 65.7419 20.5545 65.7419 18.2428C65.7419 15.9312 63.8682 14.0571 61.5566 14.0571C59.2447 14.0571 57.3706 15.9312 57.3706 18.2428Z" fill="#C3BFBE"/>
<path d="M60.1043 15.4364L61.0729 16.5373C61.0729 16.5373 61.2402 16.8015 61.4691 16.8015C61.6983 16.8015 61.8655 16.6167 61.8655 16.6167L62.8781 15.4365C62.8781 15.4365 63.0191 15.2691 62.8781 15.1549C62.7374 15.0402 62.2431 14.873 61.5568 14.873C60.8703 14.8729 59.8576 15.0578 60.1043 15.4364Z" fill="#27262C"/>
<path d="M60.1043 21.0493L61.0727 19.9484C61.0727 19.9484 61.2403 19.6841 61.4691 19.6841C61.6981 19.6841 61.8657 19.869 61.8657 19.869L62.8782 21.0492C62.8782 21.0492 63.0192 21.2165 62.8782 21.3309C62.7373 21.4453 62.243 21.6125 61.5569 21.6125C60.8703 21.6127 59.8577 21.4278 60.1043 21.0493Z" fill="#27262C"/>
<path d="M64.3972 16.8436L63.2965 17.8121C63.2965 17.8121 63.0322 17.9795 63.0322 18.2082C63.0322 18.4376 63.2172 18.6047 63.2172 18.6047L64.3972 19.6175C64.3972 19.6175 64.5648 19.7585 64.6788 19.6175C64.7935 19.4766 64.9611 18.9822 64.9611 18.296C64.9611 17.6096 64.7759 16.5968 64.3972 16.8436Z" fill="#27262C"/>
<path d="M58.785 16.8436L59.8858 17.8121C59.8858 17.8121 60.1499 17.9795 60.1499 18.2082C60.1499 18.4375 59.9649 18.6045 59.9649 18.6045L58.785 19.6175C58.785 19.6175 58.6175 19.7585 58.5029 19.6175C58.3886 19.4765 58.2212 18.9822 58.2212 18.2958C58.2211 17.6096 58.4061 16.5968 58.785 16.8436Z" fill="#27262C"/>
</svg>
