<svg width="46" height="45" viewBox="0 0 46 45" fill="none" xmlns="http://www.w3.org/2000/svg">
<path d="M1.73103 22.3046C1.72998 26.098 2.72116 29.802 4.60588 33.0667L1.55078 44.2214L12.9662 41.2283C16.1236 42.9471 19.6611 43.8477 23.256 43.848H23.2655C35.1329 43.848 44.7933 34.1911 44.7984 22.3216C44.8006 16.5699 42.5628 11.1615 38.4969 7.09243C34.4317 3.02375 29.0252 0.781861 23.2646 0.779236C11.3958 0.779236 1.7361 10.4356 1.7312 22.3046" fill="url(#paint0_linear_530_208)"/>
<path d="M0.966544 22.2974C0.965319 26.2274 1.99203 30.0638 3.94395 33.4455L0.779297 45L12.604 41.8996C15.8621 43.676 19.5304 44.6126 23.2631 44.614H23.2727C35.5659 44.614 45.5733 34.6097 45.5786 22.3153C45.5807 16.357 43.2623 10.7541 39.0512 6.53929C34.8395 2.32501 29.2396 0.00244996 23.2727 0C10.9774 0 0.971444 10.0028 0.966544 22.2974ZM8.00861 32.8631L7.56709 32.1622C5.71107 29.2111 4.73143 25.8007 4.73283 22.2988C4.73668 12.0799 13.0532 3.76594 23.2797 3.76594C28.2322 3.76804 32.8864 5.69861 36.387 9.20135C39.8875 12.7044 41.8137 17.3611 41.8125 22.3139C41.8079 32.5329 33.4912 40.8478 23.2727 40.8478H23.2654C19.9382 40.8461 16.675 39.9526 13.8292 38.264L13.1519 37.8624L6.13491 39.7021L8.00861 32.8631Z" fill="url(#paint1_linear_530_208)"/>
<path d="M17.6986 12.9751C17.2811 12.0471 16.8416 12.0284 16.4446 12.0121C16.1194 11.9981 15.7477 11.9992 15.3764 11.9992C15.0047 11.9992 14.4008 12.139 13.8903 12.6964C13.3793 13.2542 11.9395 14.6024 11.9395 17.3445C11.9395 20.0865 13.9367 22.7366 14.2151 23.1089C14.4939 23.4804 18.0708 29.2875 23.7358 31.5215C28.444 33.378 29.4021 33.0088 30.4239 32.9157C31.4459 32.8229 33.7215 31.5679 34.1858 30.2664C34.6504 28.9651 34.6504 27.8497 34.5111 27.6166C34.3718 27.3844 34.0001 27.2449 33.4428 26.9663C32.8854 26.6877 30.1451 25.3392 29.6343 25.1532C29.1233 24.9673 28.7518 24.8746 28.3801 25.4326C28.0084 25.9898 26.9411 27.2449 26.6158 27.6166C26.2908 27.9892 25.9655 28.0356 25.4083 27.7568C24.8506 27.4771 23.0556 26.8893 20.9261 24.9908C19.2692 23.5134 18.1506 21.6891 17.8255 21.131C17.5003 20.5738 17.7907 20.2718 18.0701 19.9941C18.3206 19.7444 18.6277 19.3433 18.9066 19.0179C19.1845 18.6925 19.2773 18.4602 19.4631 18.0885C19.6491 17.7165 19.556 17.391 19.4169 17.1122C19.2773 16.8335 18.1942 14.0771 17.6986 12.9751Z" fill="white"/>
<defs>
<linearGradient id="paint0_linear_530_208" x1="2163.93" y1="4345" x2="2163.93" y2="0.779236" gradientUnits="userSpaceOnUse">
<stop offset="1" stop-color="#FFED00"/>
<stop offset="1" stop-color="#FDEF3F"/>
</linearGradient>
<linearGradient id="paint1_linear_530_208" x1="2240.74" y1="4500" x2="2240.74" y2="0" gradientUnits="userSpaceOnUse">
<stop stop-color="#F9F9F9"/>
<stop offset="1" stop-color="white"/>
</linearGradient>
</defs>
</svg>
