<svg width="213" height="160" viewBox="0 0 213 160" fill="none" xmlns="http://www.w3.org/2000/svg">
<path d="M208.002 46.6667H183.096L176.173 29.3333C169.059 11.5125 152.082 0 132.916 0H80.0816C60.9199 0 43.9381 11.5125 36.8201 29.3333L29.8976 46.6667H4.99484C1.74576 46.6667 -0.638018 49.725 0.152413 52.8792L2.64851 62.8792C3.20181 65.1042 5.19869 66.6667 7.49094 66.6667H15.8404C10.2533 71.5542 6.65475 78.6583 6.65475 86.6667V106.667C6.65475 113.383 9.2174 119.446 13.311 124.137V146.667C13.311 154.029 19.2725 160 26.6235 160H39.936C47.287 160 53.2486 154.029 53.2486 146.667V133.333H159.749V146.667C159.749 154.029 165.71 160 173.061 160H186.374C193.725 160 199.686 154.029 199.686 146.667V124.137C203.78 119.45 206.343 113.387 206.343 106.667V86.6667C206.343 78.6583 202.744 71.5542 197.161 66.6667H205.51C207.803 66.6667 209.8 65.1042 210.353 62.8792L212.849 52.8792C213.635 49.725 211.251 46.6667 208.002 46.6667ZM61.5398 39.2375C64.5725 31.6458 71.9152 26.6667 80.0816 26.6667H132.916C141.082 26.6667 148.425 31.6458 151.457 39.2375L159.749 60H53.2486L61.5398 39.2375ZM39.936 106.583C31.9485 106.583 26.6235 101.267 26.6235 93.2917C26.6235 85.3167 31.9485 80 39.936 80C47.9235 80 59.9048 91.9625 59.9048 99.9375C59.9048 107.912 47.9235 106.583 39.936 106.583ZM173.061 106.583C165.074 106.583 153.092 107.912 153.092 99.9375C153.092 91.9625 165.074 80 173.061 80C181.049 80 186.374 85.3167 186.374 93.2917C186.374 101.267 181.049 106.583 173.061 106.583Z" fill="black"/>
</svg>
