<svg width="214" height="121" viewBox="0 0 214 121" fill="none" xmlns="http://www.w3.org/2000/svg">
<path d="M2.31113 103.905L45.0413 47.011C46.1095 45.5865 47.4021 44.518 48.919 43.8057C50.436 43.0934 51.992 42.7373 53.5873 42.7373C55.1826 42.7373 56.7422 43.0934 58.2663 43.8057C59.7903 44.518 61.0793 45.5865 62.1333 47.011L98.454 95.3576C99.5222 96.7822 100.769 97.8506 102.193 98.5629C103.617 99.2752 105.22 99.6313 107 99.6313C111.451 99.6313 114.656 97.6298 116.614 93.6268C118.573 89.6237 118.217 85.8379 115.546 82.2693L93.1127 52.6203C91.6884 50.6615 90.9762 48.5247 90.9762 46.2097C90.9762 43.8948 91.6884 41.7579 93.1127 39.7991L119.819 4.27373C120.887 2.84915 122.18 1.78072 123.697 1.06843C125.214 0.356143 126.77 0 128.365 0C129.96 0 131.52 0.356143 133.044 1.06843C134.568 1.78072 135.857 2.84915 136.911 4.27373L211.689 103.905C214.359 107.467 214.716 111.206 212.757 115.124C210.799 119.041 207.594 121 203.143 121H10.8572C6.4061 121 3.20134 119.041 1.24287 115.124C-0.715594 111.206 -0.359507 107.467 2.31113 103.905Z" fill="black"/>
</svg>
