<svg width="219" height="180" viewBox="0 0 219 180" fill="none" xmlns="http://www.w3.org/2000/svg">
<path d="M0 90.25C0 86.9167 0.746591 83.8333 2.23977 81C3.73295 78.1667 5.80682 75.8333 8.46136 74L58.2341 38.25C60.0591 36.9167 61.9272 35.9567 63.8385 35.37C65.7498 34.7833 67.6975 34.4933 69.6818 34.5C71.6661 34.5067 73.6172 34.8 75.5351 35.38C77.453 35.96 79.3178 36.9167 81.1295 38.25L130.902 74C133.557 75.8333 135.631 78.1667 137.124 81C138.617 83.8333 139.364 86.9167 139.364 90.25V160C139.364 165.5 137.416 170.21 133.52 174.13C129.625 178.05 124.936 180.007 119.455 180H109.5C104.025 180 99.3397 178.043 95.4442 174.13C91.5486 170.217 89.5975 165.507 89.5909 160V135C89.5909 130.833 88.1409 127.293 85.2408 124.38C82.3407 121.467 78.8134 120.007 74.6591 120H64.7045C60.5568 120 57.0329 121.46 54.1328 124.38C51.2327 127.3 49.7794 130.84 49.7727 135V160C49.7727 165.5 47.8249 170.21 43.9294 174.13C40.0339 178.05 35.3453 180.007 29.8636 180H19.9091C14.4341 180 9.74882 178.043 5.85327 174.13C1.95773 170.217 0.00663636 165.507 0 160V90.25ZM219 20V160C219 165.5 217.052 170.21 213.157 174.13C209.261 178.05 204.573 180.007 199.091 180H169.227C166.407 180 164.044 179.04 162.14 177.12C160.235 175.2 159.279 172.827 159.273 170V80.25C159.273 76.9167 158.566 73.8333 157.152 71C155.739 68.1667 153.708 65.8333 151.06 64L99.0477 26.5C96.8909 24.8333 95.1489 22.8333 93.8216 20.5C92.4943 18.1667 91.8307 15.8333 91.8307 13.5C91.8307 9.33333 93.1579 6.04333 95.8125 3.63C98.467 1.21667 102.034 0.00666667 106.514 0H199.091C204.566 0 209.254 1.96 213.157 5.88C217.059 9.8 219.007 14.5067 219 20ZM164.25 60H174.205C175.532 60 176.693 59.5 177.689 58.5C178.684 57.5 179.182 56.3333 179.182 55V45C179.182 43.6667 178.684 42.5 177.689 41.5C176.693 40.5 175.532 40 174.205 40H164.25C162.923 40 161.761 40.5 160.766 41.5C159.77 42.5 159.273 43.6667 159.273 45V55C159.273 56.3333 159.77 57.5 160.766 58.5C161.761 59.5 162.923 60 164.25 60ZM164.25 100H174.205C175.532 100 176.693 99.5 177.689 98.5C178.684 97.5 179.182 96.3333 179.182 95V85C179.182 83.6667 178.684 82.5 177.689 81.5C176.693 80.5 175.532 80 174.205 80H164.25C162.923 80 161.761 80.5 160.766 81.5C159.77 82.5 159.273 83.6667 159.273 85V95C159.273 96.3333 159.77 97.5 160.766 98.5C161.761 99.5 162.923 100 164.25 100ZM164.25 140H174.205C175.532 140 176.693 139.5 177.689 138.5C178.684 137.5 179.182 136.333 179.182 135V125C179.182 123.667 178.684 122.5 177.689 121.5C176.693 120.5 175.532 120 174.205 120H164.25C162.923 120 161.761 120.5 160.766 121.5C159.77 122.5 159.273 123.667 159.273 125V135C159.273 136.333 159.77 137.5 160.766 138.5C161.761 139.5 162.923 140 164.25 140Z" fill="black"/>
</svg>
