<svg width="166" height="180" viewBox="0 0 166 180" fill="none" xmlns="http://www.w3.org/2000/svg">
<path d="M36.8889 129.231C39.3348 129.231 41.6805 128.258 43.41 126.527C45.1395 124.796 46.1111 122.448 46.1111 120C46.1111 117.552 45.1395 115.204 43.41 113.473C41.6805 111.742 39.3348 110.769 36.8889 110.769C34.443 110.769 32.0973 111.742 30.3678 113.473C28.6383 115.204 27.6667 117.552 27.6667 120C27.6667 122.448 28.6383 124.796 30.3678 126.527C32.0973 128.258 34.443 129.231 36.8889 129.231ZM46.1111 147.692C46.1111 150.14 45.1395 152.488 43.41 154.219C41.6805 155.951 39.3348 156.923 36.8889 156.923C34.443 156.923 32.0973 155.951 30.3678 154.219C28.6383 152.488 27.6667 150.14 27.6667 147.692C27.6667 145.244 28.6383 142.896 30.3678 141.165C32.0973 139.434 34.443 138.462 36.8889 138.462C39.3348 138.462 41.6805 139.434 43.41 141.165C45.1395 142.896 46.1111 145.244 46.1111 147.692ZM36.8889 101.538C39.3348 101.538 41.6805 100.566 43.41 98.8348C45.1395 97.1037 46.1111 94.7558 46.1111 92.3077C46.1111 89.8595 45.1395 87.5117 43.41 85.7806C41.6805 84.0494 39.3348 83.0769 36.8889 83.0769C34.443 83.0769 32.0973 84.0494 30.3678 85.7806C28.6383 87.5117 27.6667 89.8595 27.6667 92.3077C27.6667 94.7558 28.6383 97.1037 30.3678 98.8348C32.0973 100.566 34.443 101.538 36.8889 101.538ZM46.1111 64.6154C46.1111 67.0635 45.1395 69.4114 43.41 71.1425C41.6805 72.8736 39.3348 73.8462 36.8889 73.8462C34.443 73.8462 32.0973 72.8736 30.3678 71.1425C28.6383 69.4114 27.6667 67.0635 27.6667 64.6154C27.6667 62.1672 28.6383 59.8194 30.3678 58.0882C32.0973 56.3571 34.443 55.3846 36.8889 55.3846C39.3348 55.3846 41.6805 56.3571 43.41 58.0882C45.1395 59.8194 46.1111 62.1672 46.1111 64.6154ZM36.8889 46.1538C39.3348 46.1538 41.6805 45.1813 43.41 43.4502C45.1395 41.7191 46.1111 39.3712 46.1111 36.9231C46.1111 34.4749 45.1395 32.127 43.41 30.3959C41.6805 28.6648 39.3348 27.6923 36.8889 27.6923C34.443 27.6923 32.0973 28.6648 30.3678 30.3959C28.6383 32.127 27.6667 34.4749 27.6667 36.9231C27.6667 39.3712 28.6383 41.7191 30.3678 43.4502C32.0973 45.1813 34.443 46.1538 36.8889 46.1538ZM101.444 20.7692V27.6923H145.25C150.753 27.6923 156.031 29.8805 159.922 33.7755C163.814 37.6705 166 42.9532 166 48.4615V173.077C166 174.913 165.271 176.674 163.974 177.972C162.677 179.271 160.918 180 159.083 180H131.417V154.615C131.417 153.391 130.931 152.217 130.066 151.352C129.201 150.486 128.028 150 126.806 150H103.75C102.527 150 101.354 150.486 100.489 151.352C99.6247 152.217 99.1389 153.391 99.1389 154.615V180H6.91667C5.08225 180 3.32297 179.271 2.02584 177.972C0.728717 176.674 0 174.913 0 173.077V20.7692C0 15.2609 2.18615 9.97815 6.07753 6.08317C9.96891 2.18818 15.2468 0 20.75 0H80.6944C86.1977 0 91.4755 2.18818 95.3669 6.08317C99.2583 9.97815 101.444 15.2609 101.444 20.7692ZM20.75 13.8462C18.9156 13.8462 17.1563 14.5755 15.8592 15.8739C14.5621 17.1722 13.8333 18.9331 13.8333 20.7692V166.154H64.5556V48.4615C64.5556 42.9532 66.7417 37.6705 70.6331 33.7755C74.5245 29.8805 79.8023 27.6923 85.3056 27.6923H87.6111V20.7692C87.6111 18.9331 86.8824 17.1722 85.5853 15.8739C84.2881 14.5755 82.5289 13.8462 80.6944 13.8462H20.75ZM138.333 120C138.333 117.552 137.362 115.204 135.632 113.473C133.903 111.742 131.557 110.769 129.111 110.769C126.665 110.769 124.32 111.742 122.59 113.473C120.861 115.204 119.889 117.552 119.889 120C119.889 122.448 120.861 124.796 122.59 126.527C124.32 128.258 126.665 129.231 129.111 129.231C131.557 129.231 133.903 128.258 135.632 126.527C137.362 124.796 138.333 122.448 138.333 120ZM101.444 129.231C103.89 129.231 106.236 128.258 107.966 126.527C109.695 124.796 110.667 122.448 110.667 120C110.667 117.552 109.695 115.204 107.966 113.473C106.236 111.742 103.89 110.769 101.444 110.769C98.9986 110.769 96.6529 111.742 94.9234 113.473C93.1938 115.204 92.2222 117.552 92.2222 120C92.2222 122.448 93.1938 124.796 94.9234 126.527C96.6529 128.258 98.9986 129.231 101.444 129.231ZM138.333 92.3077C138.333 89.8595 137.362 87.5117 135.632 85.7806C133.903 84.0494 131.557 83.0769 129.111 83.0769C126.665 83.0769 124.32 84.0494 122.59 85.7806C120.861 87.5117 119.889 89.8595 119.889 92.3077C119.889 94.7558 120.861 97.1037 122.59 98.8348C124.32 100.566 126.665 101.538 129.111 101.538C131.557 101.538 133.903 100.566 135.632 98.8348C137.362 97.1037 138.333 94.7558 138.333 92.3077ZM101.444 101.538C103.89 101.538 106.236 100.566 107.966 98.8348C109.695 97.1037 110.667 94.7558 110.667 92.3077C110.667 89.8595 109.695 87.5117 107.966 85.7806C106.236 84.0494 103.89 83.0769 101.444 83.0769C98.9986 83.0769 96.6529 84.0494 94.9234 85.7806C93.1938 87.5117 92.2222 89.8595 92.2222 92.3077C92.2222 94.7558 93.1938 97.1037 94.9234 98.8348C96.6529 100.566 98.9986 101.538 101.444 101.538ZM138.333 64.6154C138.333 62.1672 137.362 59.8194 135.632 58.0882C133.903 56.3571 131.557 55.3846 129.111 55.3846C126.665 55.3846 124.32 56.3571 122.59 58.0882C120.861 59.8194 119.889 62.1672 119.889 64.6154C119.889 67.0635 120.861 69.4114 122.59 71.1425C124.32 72.8736 126.665 73.8462 129.111 73.8462C131.557 73.8462 133.903 72.8736 135.632 71.1425C137.362 69.4114 138.333 67.0635 138.333 64.6154ZM101.444 73.8462C103.89 73.8462 106.236 72.8736 107.966 71.1425C109.695 69.4114 110.667 67.0635 110.667 64.6154C110.667 62.1672 109.695 59.8194 107.966 58.0882C106.236 56.3571 103.89 55.3846 101.444 55.3846C98.9986 55.3846 96.6529 56.3571 94.9234 58.0882C93.1938 59.8194 92.2222 62.1672 92.2222 64.6154C92.2222 67.0635 93.1938 69.4114 94.9234 71.1425C96.6529 72.8736 98.9986 73.8462 101.444 73.8462Z" fill="black"/>
</svg>
