<svg width="17" height="17" viewBox="0 0 17 17" fill="none" xmlns="http://www.w3.org/2000/svg">
<path d="M5.15013 9.72802H4.57789C4.57789 9.87979 4.63818 10.0253 4.7455 10.1327C4.85281 10.24 4.99836 10.3003 5.15013 10.3003V9.72802ZM9.72802 9.72802V10.3003C9.87979 10.3003 10.0253 10.24 10.1327 10.1327C10.24 10.0253 10.3003 9.87979 10.3003 9.72802H9.72802ZM9.72802 6.86684H10.3003C10.3004 6.79164 10.2857 6.71715 10.257 6.64764C10.2284 6.57812 10.1863 6.51493 10.1332 6.46169L9.72802 6.86684ZM7.43907 4.57789L7.84422 4.17275C7.79106 4.11946 7.72791 4.07718 7.65839 4.04833C7.58887 4.01948 7.51434 4.00463 7.43907 4.00463C7.3638 4.00463 7.28928 4.01948 7.21975 4.04833C7.15023 4.07718 7.08709 4.11946 7.03393 4.17275L7.43907 4.57789ZM5.15013 6.86684L4.74498 6.46169C4.69188 6.51493 4.64979 6.57812 4.62112 6.64764C4.59245 6.71715 4.57776 6.79164 4.57789 6.86684H5.15013ZM17 16.1897L12.4221 11.6118L11.6118 12.4221L16.1897 17L17 16.1897ZM7.43907 13.7337C5.76964 13.7337 4.16859 13.0705 2.98812 11.89C1.80765 10.7096 1.14447 9.10851 1.14447 7.43907H0C0 9.41204 0.783757 11.3042 2.17885 12.6993C3.57395 14.0944 5.46611 14.8781 7.43907 14.8781V13.7337ZM13.7337 7.43907C13.7337 9.10851 13.0705 10.7096 11.89 11.89C10.7096 13.0705 9.10851 13.7337 7.43907 13.7337V14.8781C9.41204 14.8781 11.3042 14.0944 12.6993 12.6993C14.0944 11.3042 14.8781 9.41204 14.8781 7.43907H13.7337ZM7.43907 1.14447C9.10851 1.14447 10.7096 1.80765 11.89 2.98812C13.0705 4.16859 13.7337 5.76964 13.7337 7.43907H14.8781C14.8781 5.46611 14.0944 3.57395 12.6993 2.17885C11.3042 0.783757 9.41204 0 7.43907 0V1.14447ZM7.43907 0C5.46611 0 3.57395 0.783757 2.17885 2.17885C0.783757 3.57395 0 5.46611 0 7.43907H1.14447C1.14447 5.76964 1.80765 4.16859 2.98812 2.98812C4.16859 1.80765 5.76964 1.14447 7.43907 1.14447V0ZM5.15013 10.3003H9.72802V9.15578H5.15013V10.3003ZM10.3003 9.72802V6.86684H9.15578V9.72802H10.3003ZM10.1332 6.46169L7.84422 4.17275L7.03393 4.98303L9.32288 7.27198L10.1332 6.46169ZM7.03393 4.17275L4.74498 6.46169L5.55527 7.27198L7.84422 4.98303L7.03393 4.17275ZM4.57789 6.86684V9.72802H5.72236V6.86684H4.57789Z" fill="#FFED00"/>
</svg>
