<svg width="17" height="17" viewBox="0 0 17 17" fill="none" xmlns="http://www.w3.org/2000/svg">
<path d="M12.75 16.9996H11.5357V15.7853C11.5352 15.3024 11.3432 14.8394 11.0017 14.4979C10.6602 14.1564 10.1972 13.9643 9.71429 13.9639H7.28571C6.80279 13.9643 6.33978 14.1564 5.9983 14.4979C5.65682 14.8394 5.46477 15.3024 5.46429 15.7853V16.9996H4.25V15.7853C4.25096 14.9805 4.57111 14.2089 5.1402 13.6398C5.7093 13.0707 6.48089 12.7505 7.28571 12.7496H9.71429C10.5191 12.7505 11.2907 13.0707 11.8598 13.6398C12.4289 14.2089 12.749 14.9805 12.75 15.7853V16.9996ZM8.5 6.67815C8.86024 6.67815 9.2124 6.78498 9.51193 6.98512C9.81146 7.18526 10.0449 7.46973 10.1828 7.80255C10.3206 8.13537 10.3567 8.5016 10.2864 8.85493C10.2162 9.20825 10.0427 9.53279 9.78794 9.78753C9.53321 10.0423 9.20867 10.2157 8.85534 10.286C8.50202 10.3563 8.13579 10.3202 7.80297 10.1824C7.47015 10.0445 7.18568 9.81104 6.98554 9.51151C6.7854 9.21198 6.67857 8.85983 6.67857 8.49958C6.67857 8.01651 6.87047 7.55322 7.21206 7.21164C7.55364 6.87005 8.01693 6.67815 8.5 6.67815ZM8.5 5.46387C7.89959 5.46387 7.31267 5.64191 6.81345 5.97548C6.31423 6.30905 5.92513 6.78316 5.69537 7.33786C5.4656 7.89257 5.40548 8.50295 5.52262 9.09182C5.63975 9.68069 5.92887 10.2216 6.35343 10.6462C6.77798 11.0707 7.31889 11.3598 7.90776 11.477C8.49663 11.5941 9.10701 11.534 9.66172 11.3042C10.2164 11.0745 10.6905 10.6854 11.0241 10.1861C11.3577 9.68691 11.5357 9.09999 11.5357 8.49958C11.5357 7.69446 11.2159 6.92231 10.6466 6.35301C10.0773 5.7837 9.30512 5.46387 8.5 5.46387Z" fill="black"/>
<path d="M17 16.9998H15.7857V7.56722L8.5 1.4023L1.21429 7.56722V16.9998H0V7.28551C2.97612e-05 7.19732 0.0192725 7.11019 0.0563898 7.03019C0.0935072 6.95019 0.147608 6.87923 0.214929 6.82226L8.10779 0.143688C8.21741 0.050911 8.35638 0 8.5 0C8.64362 0 8.78259 0.050911 8.89221 0.143688L16.7851 6.82226C16.8524 6.87923 16.9065 6.95019 16.9436 7.03019C16.9807 7.11019 17 7.19732 17 7.28551V16.9998Z" fill="black"/>
</svg>
