<svg width="84" height="84" viewBox="0 0 84 84" fill="none" xmlns="http://www.w3.org/2000/svg">
<path d="M41.9033 25.142C37.2939 25.142 33.348 26.7832 30.0656 30.0656C26.7832 33.348 25.142 37.2939 25.142 41.9033C25.142 45.046 25.9283 47.9443 27.5011 50.5982C29.0739 53.2521 31.2556 55.3123 34.0464 56.7789C35.1638 57.3376 35.9502 58.1575 36.4056 59.2386C36.8609 60.3197 36.8427 61.4204 36.3511 62.5406C35.8622 63.5184 35.1289 64.2517 34.1512 64.7405C33.1734 65.2294 32.1957 65.2294 31.2179 64.7405C26.8181 62.6454 23.3094 59.5375 20.6918 55.4171C18.0743 51.2966 16.7641 46.792 16.7613 41.9033C16.7613 34.9194 19.2057 28.9831 24.0944 24.0944C28.9831 19.2057 34.9194 16.7613 41.9033 16.7613C46.8618 16.7613 51.4195 18.0715 55.5763 20.6918C59.7331 23.3122 62.8228 26.8907 64.8453 31.4274C65.2643 32.4052 65.2476 33.3829 64.795 34.3607C64.3425 35.3384 63.6259 36.0368 62.6454 36.4558C61.528 36.9447 60.4105 36.9447 59.2931 36.4558C58.1757 35.967 57.3376 35.1638 56.7789 34.0464C55.3123 31.2528 53.2521 29.0711 50.5982 27.5011C47.9443 25.9311 45.046 25.1447 41.9033 25.142ZM41.9033 8.38065C32.5449 8.38065 24.6182 11.6282 18.1232 18.1232C11.6282 24.6182 8.38066 32.5449 8.38066 41.9033C8.38066 50.7029 11.279 58.2455 17.0756 64.531C22.8722 70.8165 30.1354 74.3783 38.8653 75.2164C40.0525 75.356 41.082 75.8798 41.9536 76.7877C42.8251 77.6956 43.2274 78.7432 43.1604 79.9305C43.0933 81.1177 42.6561 82.0955 41.8488 82.8637C41.0415 83.6319 40.047 83.9811 38.8653 83.9113C33.4179 83.5621 28.3364 82.2002 23.6209 79.8257C18.9054 77.4512 14.7849 74.3601 11.2594 70.5525C7.73395 66.7449 4.97532 62.38 2.98352 57.4577C0.991716 52.5355 -0.00278768 47.3507 5.86881e-06 41.9033C5.86881e-06 36.1066 1.10067 30.6592 3.30198 25.561C5.5033 20.4628 8.48821 16.028 12.2567 12.2567C16.0252 8.48541 20.46 5.5005 25.561 3.30198C30.662 1.10345 36.1094 0.00279355 41.9033 0C52.868 0 62.4191 3.73637 70.5567 11.2091C78.6943 18.6819 83.1459 27.9006 83.9113 38.8653C84.051 39.9827 83.7199 40.9437 82.9182 41.7482C82.1164 42.5528 81.1205 42.9886 79.9305 43.0556C78.7404 43.1226 77.6761 42.7385 76.7375 41.9033C75.7988 41.068 75.2569 40.0553 75.1116 38.8653C74.064 30.4846 70.4156 23.3094 64.1665 17.3396C57.9173 11.3698 50.4962 8.38345 41.9033 8.38065ZM73.5402 81.7114L59.7122 67.988L56.5694 77.521C56.2202 78.4988 55.5567 78.9709 54.579 78.9374C53.6013 78.9038 52.9378 78.3968 52.5886 77.4163L43.0556 45.6745C42.7762 44.9063 42.9508 44.2079 43.5794 43.5794C44.2079 42.9508 44.9063 42.7762 45.6746 43.0556L77.4163 52.5886C78.394 52.9378 78.9011 53.6012 78.9374 54.579C78.9737 55.5567 78.5016 56.2202 77.521 56.5694L67.9881 59.7121L81.8161 73.5402C83.0034 74.7275 83.597 76.0893 83.597 77.6258C83.597 79.1622 83.0034 80.5241 81.8161 81.7114C80.6289 82.8986 79.2503 83.4922 77.6803 83.4922C76.1103 83.4922 74.7303 82.8986 73.5402 81.7114Z" fill="#FFED00"/>
</svg>
